<svg width="783" height="611" viewBox="0 0 783 611" fill="none" xmlns="http://www.w3.org/2000/svg">
<g opacity="0.8" clip-path="url(#clip0_826_2593)">
<path fill-rule="evenodd" clip-rule="evenodd" d="M433.728 90.9464C433.506 83.2812 421.302 81.2658 412.262 79.4188C402.092 77.4005 391.336 75.4716 382.974 76.1536C381.848 76.2521 380.259 78.1686 380.568 79.5765C381.179 82.8686 399.187 83.2612 402.31 83.7797C410.26 85.1053 418.395 86.1102 423.545 88.1186C427.175 89.5176 429.191 93.2464 433.792 90.9294L433.728 90.9464Z" fill="#284253"/>
<path fill-rule="evenodd" clip-rule="evenodd" d="M283.824 113.834C290.61 114.862 296.918 107.276 303.674 104.652C329.089 94.7256 353.617 96.4204 373.807 98.1255C378.533 98.5532 384.231 101.092 388.177 97.5954C386.897 92.314 379.421 92.7586 374.506 92.3817C350.784 90.4033 317.098 90.2137 291.591 105.112C288.365 106.993 280.933 109.12 283.904 113.88L283.824 113.834Z" fill="#284253"/>
<path fill-rule="evenodd" clip-rule="evenodd" d="M333.668 141.678C322.804 138.083 311.914 121.486 298.937 126.454C286.955 131.087 297.346 151.139 288.654 158.686C281.353 157.254 277.431 150.715 271.228 145.533C266.347 141.488 257.564 135.032 251.622 136.896C239.989 140.555 252.567 165.984 246.993 173.779C239.927 171.2 234.915 166.919 226.962 163.561C221.825 161.346 208.728 156.249 203.421 160.992C198.927 164.974 205.18 176.919 206.589 185.215C207.684 191.833 206.802 196.135 205.668 200.505C196.705 199.451 187.654 194.016 176.462 195.524C166.776 196.832 154.819 201.052 154.223 208.191C153.08 221.643 168.314 224.337 170.357 237.275C159.644 240.823 143.013 242.027 131.111 246.706C123.44 249.711 114.565 255.816 118.232 265.201C121.434 273.355 133.585 276.943 136.223 286.536C126.044 292.584 109.051 297.747 112.163 309.11C114.429 317.312 124.321 316.017 127.418 324.538C122.09 328.948 117.466 333.71 115.426 340.017C115.897 342.533 116.785 344.328 117.609 346.14C95.9193 350.732 99.2323 368.411 97.5515 387.7C96.2338 403.028 89.9808 411.073 90.4215 421.323C90.8542 432.049 102.766 437.531 110.924 443.68C117.73 448.835 123.912 453.684 130.067 456.914C144.588 464.542 160.516 468.813 173.463 475.372C201.167 489.43 230.056 506.896 260.102 511.72C276.542 514.363 296.296 522.283 313.673 516.272C315.358 514.465 315.744 511.854 318.971 510.99C323.005 503.268 325.848 494.646 328.32 485.649C331.271 474.897 336.105 465.606 335.079 452.667C337.813 447.936 341.606 443.871 344.259 439.094C349.865 441.793 363.899 443.047 358.706 430.751C365.234 432.593 376.798 431.46 374.734 421.984C380.631 425.012 396.415 429.253 393.697 415.819C401.191 416.453 414.734 420.685 414.089 408.66C419.395 411.508 431.89 409.041 431.752 401.692C440.002 407.68 451.301 399.232 454.332 392.321C456.727 394.932 457.858 399.914 461.15 401.065C469.703 401.348 471.843 394.405 476.249 390.853C478.382 392.992 479.634 396.654 484.054 394.928C486.339 401.431 492.245 401.203 498.066 403.438C506.318 406.648 514.087 412.359 523.555 413.278C530.302 413.909 540.706 412.748 546.313 408.874C569.434 416.706 590.156 427.484 614.927 436.161C620.009 437.916 622.641 441.412 628.916 438.511C635.255 435.593 637.416 420.377 639.206 412.376C641.381 402.781 645.343 394.536 649.63 386.747C658.917 370.028 665.431 352.833 673.064 337.032C681.358 319.902 690.103 305.971 697.139 287.688C700.169 279.761 702.485 270.941 705.576 260.965C707.943 253.351 717.065 241.081 716.001 235.336C714.774 228.482 704.063 225.456 698.293 223.411C677.435 215.922 660.912 202.595 640.026 197.282C642.036 191.119 639.95 176.499 633.569 171.162C629.735 167.988 622.792 165.105 616.692 162.335C605.869 157.374 592.892 153.737 580.568 150.263C573.529 148.286 566.298 145.345 561.203 146.575C552.197 148.649 549.028 156.816 544.476 161.085C541.461 142.242 534.331 125.247 522.646 119.095C508.946 122.63 509.122 134.17 494.603 137.18C486.395 127.046 479.019 97.2421 464.186 98.574C448.019 99.9919 448.104 125.109 438.438 133.323C427.026 126.42 418.6 100.286 402.693 103.938C389.983 106.869 387.354 126.412 378.014 132.302C370.447 130.129 359.06 105.6 347.877 111.443C343.892 113.527 343.171 122.733 341.479 127.048C339.102 133.107 336.486 137.263 333.736 141.931L333.668 141.678ZM285.619 170.137C303.262 172.457 302.977 149.63 304.661 137.185C309.317 140.139 316.067 142.802 321.673 146.518C324.806 148.592 326.994 151.191 329.316 152.263C334.63 154.633 340.618 151.674 343.226 147.993C347.726 141.502 349.919 131.97 354.21 124.45C357.944 128.261 361.031 131.432 365.618 135.895C368.815 138.968 374.281 145.703 378.69 145.199C384.558 144.576 389.806 135.309 393.193 130.742C397.794 124.63 400.008 119.226 405.05 114.758C417.104 119.253 422.997 139.222 434.613 144.106C443.334 147.8 450.053 137.191 453.346 130.752C457.253 123.064 458.274 114.727 465.024 109.801C474.493 119.326 480.378 134.96 487.606 148.27C501.22 150.992 514.349 137.987 521.667 131.893C524.296 136.135 527.561 139.462 529.875 145.821C533.158 155.038 531.012 168.285 538.602 168.013C530.3 181.825 527.223 197.421 523.973 213.132C520.74 228.906 515.693 244.488 512.127 260.284C506.83 283.793 499.948 307.457 493.473 329.859C488.785 346.023 483.463 361.341 481.835 378.04C479.017 378.659 476.904 375.837 473.728 376.892C469.477 378.234 467.957 385.214 464.225 387.231C461.543 380.766 453.048 379.18 446.577 383.625C443.419 385.758 442.534 391.823 439.396 392.257C437.493 392.496 435.398 389.737 433.46 388.833C425.343 385.113 421.178 392.599 421.091 398.856C415.989 392.973 401.057 393.179 403.863 405.167C396.199 403.9 382.852 401.919 382.458 412.596C375.829 407.596 362.401 409.364 363.277 419.972C359.955 418.964 354.689 418.546 351.13 420.448C347.398 422.464 348.727 425.903 346.544 428.386C343.682 427.323 339.46 428.522 335.174 429.738C333.084 432.06 334.105 436.123 329.929 437.242C314.679 423.1 293.97 416.926 275.361 406.192C259.479 397.03 242.878 389.485 228.082 381.591C212.323 373.142 197.259 363.49 180.432 357.631C171.897 354.633 162.963 352.419 154.336 349.58C145.343 346.637 136.269 344.664 126.577 343.669C126.333 335.671 137.095 335.091 138.705 328.697C141.478 317.789 129.772 311.304 124.248 305.872C130.696 299.062 145.952 298.295 147.744 289.548C150.301 277.072 134.294 268.961 128.881 260.653C142.537 250.625 165.483 252.743 180.048 245.859C186.221 232.956 171.786 219.07 165.996 210.119C180.639 200.232 194.043 212.293 204.937 211.949C222.277 211.369 219.068 188.512 214.718 171.517C226.806 171.328 236.229 185.743 247.579 186.09C261.583 186.471 259.405 160.628 258.091 150.409C267.958 153.321 274.429 168.867 285.717 170.247L285.619 170.137ZM594.267 241.12C596.77 246.413 601.654 252.49 602.094 257.929C602.367 260.973 598.16 268.808 596.355 273.968C590.772 289.829 585.247 308.182 579.827 322.374C569.256 349.736 559.054 370.63 544.427 391.965C542.131 395.29 540.237 399.863 537.951 400.95C534.497 402.486 528.455 402.207 525.434 402.068C517.244 401.62 510.489 396.654 503.081 393.556C499.962 392.292 496.709 392.553 494.416 390.322C488.307 378.406 495.391 365.869 497.787 357.096C499.014 352.566 499.343 347.463 500.65 342.98C508.833 315.308 516.338 289.919 523.144 260.652C527.433 242.494 531.816 225.193 536.069 204.876C537.85 196.335 541.073 187.611 545.789 178.894C549.521 172.066 558.631 156.208 566.18 157.303C580.004 159.291 599.748 166.672 613.328 173.062C621.639 177.001 633.364 180.771 629.466 193.81C628.743 196.172 626.25 197.246 624.89 199.508C620.606 206.551 619.57 216.858 616.318 225.725C613.793 232.5 610.656 238.762 608.021 244.618C607.377 246.01 606.582 248.866 604.675 248.835C598.546 237.602 593.021 222.549 587.182 210.628C585.52 207.211 583.691 200.383 578.709 201.786C576.071 208.388 585.778 216.019 585.566 223.326C585.297 220.552 583.39 220.521 581.13 221.195C579.9 227.487 583.908 236.374 586.603 243.648C587.801 246.851 589.657 250.487 590.963 253.593C592.304 256.825 592.997 262.196 596.942 261.478C601.215 256.674 595.141 249.695 592.721 243.703C589.934 236.589 587.424 228.995 586.777 223.544C588.959 228.651 591.201 234.488 594.25 241.057L594.267 241.12ZM634.673 206.916C659.434 214.037 679.406 229.353 703.611 237.436C701.755 242.405 699.144 246.832 696.807 251.524C676.502 241.04 653.342 235.591 632.204 226.551C631.093 225.696 628.871 226.766 627.604 226.089C629.479 219.42 630.552 212.289 634.736 206.899L634.673 206.916ZM154.53 361.184C163.229 364.545 172.715 366.543 180.76 369.741C196.977 376.102 211.8 385.615 228.546 394.206C251.607 406.119 275.842 418.87 300.173 430.714C307.814 434.426 319.224 440.314 322.234 446.487C328.483 459.178 321.539 468.695 319.009 477.979C316.73 486.179 314.725 493.628 312.065 499.897C306.396 501.01 305.619 504.945 303.078 507.862C294.28 506.154 283.905 506.156 274.296 504.461C270.726 503.792 267.484 501.814 263.897 501.081C260.74 500.436 257.285 500.956 254.209 500.357C248.166 499.062 241.25 495.02 234.231 492.361C214.052 484.622 194.295 473.653 176.046 464.516C163.982 458.465 149.776 454.546 136.31 447.313C130.459 444.205 125.405 440.274 118.603 435.388C113.988 432.084 102.889 425.842 101.548 421.594C100.358 417.915 103.14 410.326 104.557 405.745C109.334 390.167 106.935 371.091 114.107 358.124C130.776 352.505 142.218 356.487 154.466 361.201L154.53 361.184ZM663.423 270.43C661.132 266.436 657.957 263.696 654.517 262.246C644.066 257.66 630.041 253.151 619.115 250.59C618.36 251.063 616.535 253.111 616.286 252.432C619.524 246.55 620.58 239.355 625.36 234.415C628.856 237.341 633.297 239.742 637.737 241.128C656.805 246.996 676.763 252.897 693.675 262.866C692.179 268.417 690.522 273.875 688.578 279.275C680.188 276.306 672.121 272.775 663.36 270.447L663.423 270.43ZM611.053 268.335C616.497 273.721 624.568 273.726 631.672 276.702C637.944 279.358 643.425 283.107 647.99 283.442C652.016 283.787 654.426 280.634 657.725 280.292C661.214 279.899 667.731 282.964 671.631 284.358C676.506 286.101 681.035 288.073 684.379 290.429C681.648 297.192 677.873 303.353 675.159 310.179C652.307 300.31 629.037 291.163 605.026 283.299C606.206 277.833 607.467 272.413 611.053 268.335ZM601.704 293.676C624.554 301.513 647.312 309.509 668.819 319.671C666.492 325.918 662.641 331.287 660.251 337.552C650.926 332.867 640.182 330.732 632.125 323.946C618.583 321.747 611.406 308.627 595.965 309.715C597.141 303.979 598.379 298.226 601.704 293.676ZM589.991 326.901C594.446 330.112 601.206 331.553 608.956 335.169C617.411 339.137 625.337 345.687 631.856 337.367C639.374 341.384 648.451 342.611 654.904 348.471C652.066 354.585 649.87 361.068 646.471 366.858C635.692 363.58 625.604 358.829 615.317 354.606C604.934 350.273 594.445 346.307 584.028 341.848C586.331 337.03 587.431 331.517 590.055 326.884L589.991 326.901ZM641.874 377.034C639.972 382.084 637.429 386.764 634.564 391.258C628.071 386.764 621.345 382.671 613.757 380.164C605.098 366.831 587.713 368.508 575.331 361.526C577.096 358.749 577.818 355.37 579.583 352.594C601.129 359.356 620.607 369.79 641.891 377.098L641.874 377.034ZM584.771 388.405C593.669 392.255 603.518 397.883 610.4 390.414C616.843 394.719 624.507 397.002 630.718 401.707C628.014 410.089 626.753 419.304 623.728 427.501C598.567 421.164 577.791 407.148 553.324 399.609C557.519 391.98 563.221 385.167 567.462 377.458C569.088 383.527 578.402 385.639 584.898 388.371L584.771 388.405Z" fill="#284253"/>
<path fill-rule="evenodd" clip-rule="evenodd" d="M540.139 95.2982C539.493 102.248 546.936 107.504 551.5 110.618C559.953 116.349 573.792 121.179 585.572 125.408C593.212 128.105 603.176 131.127 612.743 133.171C615.326 133.699 620.901 135.525 620.661 131.592C620.527 128.307 612.379 127.509 611.707 127.282C602.229 124.808 592.087 121.63 583.118 118.273C566.522 112.014 553.244 107.508 543.438 94.9563C542.923 94.5523 542.269 94.3887 541.586 94.3686C541.211 94.7402 540.916 95.158 540.139 95.2982Z" fill="#284253"/>
<path fill-rule="evenodd" clip-rule="evenodd" d="M306.564 158.969C314.607 181.14 324.723 204.721 334.334 229.454C336.441 234.785 341.244 249.422 346.525 247.872C352.882 246.033 344.92 233.53 343.093 228.734C335.36 208.986 323.423 182.912 317.677 167.036C315.913 162.224 315.812 158.049 312.169 156.857C310.362 155.173 307.301 157.416 306.611 158.889L306.564 158.969Z" fill="#284253"/>
<path fill-rule="evenodd" clip-rule="evenodd" d="M354.945 150.477C354.11 158.494 357.954 168.035 360.462 177.392C366.611 200.342 371.802 223.006 376.331 244.968C377.162 249.082 378.167 254.098 381.938 253.494C387.992 252.549 383.324 238.418 381.652 229.65C378.861 214.677 372.89 192.899 368.181 175.323C365.809 166.472 362.913 144.277 354.819 150.511L354.945 150.477Z" fill="#284253"/>
<path fill-rule="evenodd" clip-rule="evenodd" d="M567.827 100.686C568.582 105.024 572.628 104.685 576.039 106.279C580.619 108.44 585.179 112.3 590.051 114.789C594.378 117.018 600.938 120.749 605.115 116.851C604.474 112.686 599.782 112.385 596.903 111.259C588.348 107.927 580.477 101.837 571.642 97.9701C569.343 98.2473 568.408 99.3111 567.89 100.67L567.827 100.686Z" fill="#284253"/>
<path fill-rule="evenodd" clip-rule="evenodd" d="M341.058 160.907C330.034 157.22 338.862 179.791 341.115 188.2C354.955 239.853 372.241 285.637 385.878 336.531C389.3 349.302 395.726 365.944 401.843 377.383C404.565 382.481 406.889 385.585 410.561 382.84C413.887 380.322 409.718 375.137 408.289 372.336C394.545 345.593 386.16 306.708 376.15 275.17C367.012 246.38 358.852 220.988 350.314 189.123C347.806 179.766 344.554 163.833 341.075 160.97L341.058 160.907Z" fill="#284253"/>
<path fill-rule="evenodd" clip-rule="evenodd" d="M268.939 180.773C284.15 215.525 302.25 252.959 321.19 286.441C323.743 290.907 327.038 298.901 331.297 297.082C336.835 294.717 329.791 284.881 328.549 282.775C315.188 258.979 303.151 234.557 290.379 208.909C285.581 199.353 280.461 184.801 275.122 179.049C273.795 176.626 269.241 178.863 268.859 180.727L268.939 180.773Z" fill="#284253"/>
<path fill-rule="evenodd" clip-rule="evenodd" d="M403.948 144.056C401.665 159.575 405.589 180.546 407.904 200.323C408.938 208.99 410.704 219.63 411.756 229.377C412.181 232.99 412.428 239.226 413.429 243.972C414.243 248.023 415.347 255.181 421.766 252.309C424.192 248.203 421.601 243.341 421.022 239.159C417.98 217.68 415.151 194.722 412.347 171.35C411.904 167.673 411.131 162.256 410.962 157.829C410.758 152.26 412.697 146.59 409.071 144.445C408.28 142.759 406.163 143.462 403.965 144.119L403.948 144.056Z" fill="#284253"/>
<path fill-rule="evenodd" clip-rule="evenodd" d="M226.212 193.916C243.359 223.745 264.635 255.313 282.402 285.179C284.346 288.385 286.205 295.07 291.898 291.511C292.391 282.977 285.299 274.984 280.253 266.781C268.416 247.659 255.534 225.903 243.485 206.499C239.796 200.576 232.813 183.88 226.195 193.853L226.212 193.916Z" fill="#284253"/>
<path fill-rule="evenodd" clip-rule="evenodd" d="M382.715 154.15C379.446 154.348 376.024 150.183 378.264 162.593C385.125 200.599 395.605 246.037 406.159 285.425C411.377 304.898 416.272 323.17 419.614 339.689C420.928 346.113 424.425 357.645 424.628 358.403C425.184 361.236 424.853 376.706 431.949 375.347C437.825 374.247 433.394 361.001 432.681 357.33C428.185 333.462 421.242 310.589 414.348 284.858C405.183 250.654 394.446 209.824 388.659 174.309C387.458 167.041 386.007 155.301 382.732 154.213L382.715 154.15Z" fill="#284253"/>
<path fill-rule="evenodd" clip-rule="evenodd" d="M468.552 135.622C460.896 132.862 462.85 142.435 462.472 148.364C461.132 170.949 456.532 199.083 455.391 225.952C455.222 230.131 454.711 233.791 454.417 239.02C454.404 239.227 452.791 250.162 458.343 249.623C463.958 249.067 462.185 239.92 462.335 237.44C463.462 221.147 464.76 203.723 466.456 186.26C467.27 177.91 468.624 169.551 469.181 161C469.662 152.672 472.353 143.48 468.472 135.576L468.552 135.622Z" fill="#284253"/>
<path fill-rule="evenodd" clip-rule="evenodd" d="M294.233 181.788C292.141 186.889 296.85 191.048 298.871 195.047C305.753 208.585 310.71 224.807 317.012 239.72C324.921 258.607 334.99 277.458 343.615 295.475C352.338 313.602 360.771 333.433 370.219 351.23C376.682 363.457 382.005 378.768 389.825 393.275C390.645 394.817 394.689 404.846 399.744 401.188C404.39 397.775 395.3 387.132 394.412 385.337C390.353 377.277 387.238 367.676 383.221 358.25C379.584 349.737 374.508 341.678 370.564 333.791C354.41 301.595 337.434 265.825 322.802 232.477C315.553 216.055 307.447 190.106 298.954 180.93C297.851 179.599 295.375 180.737 294.136 181.679L294.233 181.788Z" fill="#284253"/>
<path fill-rule="evenodd" clip-rule="evenodd" d="M261.612 194.933C249.567 195.789 264.217 217.817 267.045 223.564C272.389 234.397 276.482 242.584 281.102 250.968C300.766 286.899 321.76 319.695 342.076 353.756C349.235 365.797 356.462 378.091 364.439 393.436C365.589 395.703 368.573 405.067 374.123 402.496C378.412 400.534 373.734 393.452 371.798 389.77C355.176 358.106 335.96 330.933 319.403 300.269C310.369 283.512 299.392 267.345 289.589 249.236C284.77 240.363 279.698 231.558 275.162 222.473C270.626 213.389 267.287 203.713 261.675 194.917L261.612 194.933Z" fill="#284253"/>
<path fill-rule="evenodd" clip-rule="evenodd" d="M181.482 220.335C207.842 248.101 232.62 280.087 259.825 308.982C263.723 313.155 268.643 317.597 273.138 323.236C276.302 327.2 281.221 339.231 286.451 337.491C290.179 336.221 289.346 333.869 286.455 329.155C280.725 319.916 273.358 311.658 267.263 305.363C241.867 279.167 220.212 247.701 193.97 223.155C189.789 219.193 184.688 211.547 181.562 220.381L181.482 220.335Z" fill="#284253"/>
<path fill-rule="evenodd" clip-rule="evenodd" d="M438.203 155.477C429.831 150.808 433.199 167.931 433.252 170.153C433.287 179.901 431.636 191.456 431.598 203.461C431.567 214.988 432.66 227.164 433.874 239.036C435.165 251.7 435.236 263.607 436.15 274.611C437.252 287.326 439.61 299.162 440.432 311.343C441.023 320.129 439.701 331.393 442.52 344.19C443.635 349.109 444.765 361.681 449.334 361.27C457.426 360.592 451.247 346.391 450.302 342.105C447.385 328.182 448.698 311.567 446.478 294.679C444.505 279.216 444.286 263.215 442.717 247.237C440.156 222.241 439.178 201.633 440.884 178.136C441.387 171.158 442.118 159.713 438.139 155.494L438.203 155.477Z" fill="#284253"/>
<path fill-rule="evenodd" clip-rule="evenodd" d="M211.063 216.339C211.292 221.495 215.721 225.119 218.358 228.885C237.646 256.582 258.623 280.709 279.688 308.2C291.153 323.153 302.156 338.907 313.842 354.681C321.709 365.313 331.053 376.903 339.842 389.456C342.022 392.531 345.481 399.871 349.526 398.516C355.325 396.624 349.808 389.699 347.4 386.279C327.503 358.339 308.199 331.596 287.3 305.483C274.272 289.255 263.721 273.921 252.341 260.301C246.457 253.272 240.407 245.881 234.784 238.307C229.309 231.033 224.125 220.293 217.445 215.103C215.659 213.752 212.866 213.958 211.046 216.276L211.063 216.339Z" fill="#284253"/>
<path fill-rule="evenodd" clip-rule="evenodd" d="M494.88 165.295C487.604 162.434 487.824 175.656 486.041 182.164C478.189 210.56 477.057 246.574 475.868 277.318C475.601 284.166 475.519 290.693 475.695 297.422C476.003 310.214 476.631 325.97 475.347 337.631C475.096 339.731 469.267 354.167 477.073 354.448C484.402 354.72 483.24 336.464 483.51 332.665C484.087 323.43 484.43 316.359 484.148 307.964C482.864 273.817 485.346 241.575 488.538 209.956C489.327 202.019 491.02 194.925 493.122 187.585C495.107 180.82 498.449 172.538 494.977 165.404L494.88 165.295Z" fill="#284253"/>
<path fill-rule="evenodd" clip-rule="evenodd" d="M521.019 158.833C521.019 158.833 520.487 158.365 519.872 158.598C516.257 160.041 512.987 172.64 511.439 176.985C506.858 190.003 505.475 203.316 503.157 218.709C502.398 223.724 497.306 240.403 504.637 238.913C510.353 237.72 509.839 225.931 510.694 220.01C512.785 206.304 514.505 192.223 518.876 179.939C519.878 177.095 529.644 159.639 521.002 158.769L521.019 158.833Z" fill="#284253"/>
<path fill-rule="evenodd" clip-rule="evenodd" d="M184.964 250.03C174.618 249.889 184.721 260.26 188.724 264.066C197.315 272.335 208.497 282.688 216.446 290.587C222.925 297.05 227.948 303.903 233.878 309.836C239.727 315.723 245.881 321.731 252.051 327.803C264.569 340.101 278.49 350.805 289.185 362.372C295.124 368.845 300.392 376.107 305.829 382.985C311.363 389.972 317.285 396.381 322.89 402.875C325.159 405.52 327.74 412.621 331.932 411.565C337.787 410.132 333.663 403.851 330.448 399.698C322.333 389.404 311.16 376.813 303.273 366.864C291.233 351.795 277.762 339.48 264.379 327.752C239.582 306.071 220.8 282.034 196.428 259.156C192.99 255.943 187.934 249.98 185.073 249.933L184.964 250.03Z" fill="#284253"/>
<path fill-rule="evenodd" clip-rule="evenodd" d="M151.23 261.305C140.969 261.48 150.602 270.351 154.567 273.76C192.429 306.238 234.177 330.694 269.732 368.736C271.35 370.471 282.369 385.273 287.429 382.9C294.539 379.572 282.869 371.451 281.074 369.56C272.733 360.953 261.506 348.918 250.653 339.29C224.897 316.308 195.301 296.456 168.791 274.963C164.201 271.247 155.01 261.241 151.23 261.305Z" fill="#284253"/>
<path fill-rule="evenodd" clip-rule="evenodd" d="M98.153 281.626C90.4907 281.375 91.0642 297.688 91.851 303.914C92.2168 306.798 94.027 315.325 97.5113 314.663C101.962 313.809 98.3605 307.456 97.6978 302.958C96.6399 295.719 99.5172 287.224 98.1066 281.706L98.153 281.626Z" fill="#284253"/>
<path fill-rule="evenodd" clip-rule="evenodd" d="M79.6237 287.133C79.1725 291.523 79.1578 302.098 83.5729 303.896C88.6345 302.54 86.8908 284.644 79.6237 287.133Z" fill="#284253"/>
<path fill-rule="evenodd" clip-rule="evenodd" d="M580.746 259.244C583.023 253.823 578.414 248.011 576.291 242.617C570.056 226.94 561.43 204.112 555.001 188.216C549.293 185.138 551.12 193.728 552.69 198.322C557.277 211.391 566.078 232.343 571.886 247.185C573.845 252.217 575.291 259.893 580.7 259.325L580.746 259.244Z" fill="#284253"/>
<path fill-rule="evenodd" clip-rule="evenodd" d="M150.036 298.353C146.1 298.594 145.417 299.59 145.407 301.829C145.457 305.814 153.498 308.741 156.103 310.618C166.688 318.488 180.341 326.417 190.187 333.808C205.278 345.079 221.125 353.097 236.361 362.635C252.257 372.606 266.435 383.511 281.142 394.614C291.36 402.379 303.379 409.526 314.422 419.103C317.678 421.89 322.106 428.293 324.983 427.387C332.271 425.23 324.259 417.348 323.081 416.241C314.411 407.925 302.548 400.601 293.225 394.154C279.001 384.346 267.29 372.779 253.957 364.019C233.619 350.63 211.575 338.716 191.558 324.496C188.294 322.186 184.667 320.04 181.404 317.73C174.395 312.832 168.729 309.403 161.619 304.126C158.482 301.782 153.639 298.133 150.019 298.289L150.036 298.353Z" fill="#284253"/>
<path fill-rule="evenodd" clip-rule="evenodd" d="M544.533 209.385C543.394 217.279 548.576 227.004 552.002 235.234C553.872 239.679 556.254 246.292 560.763 245.151C563.594 241.546 559.355 237.871 557.984 234.783C554.733 227.455 551.716 218.98 549.222 210.432C548.154 210.244 547.828 208.773 546.575 208.905L544.487 209.465L544.533 209.385Z" fill="#284253"/>
<path fill-rule="evenodd" clip-rule="evenodd" d="M147.105 320.822C149.043 330.331 158.679 334.661 165.414 339.294C182.902 351.413 201.551 360.782 221.265 371.085C223.317 372.161 230.595 377.055 232.895 372.983C235.86 367.851 225.208 364.539 225.064 364.51C220.657 362.235 217.617 360 214.54 358.386C193.754 347.624 168.488 334.066 152.647 318.727C150.839 317.043 147.778 319.286 147.088 320.759L147.105 320.822Z" fill="#284253"/>
<path fill-rule="evenodd" clip-rule="evenodd" d="M356.698 269.134C354.378 269.078 353.058 269.974 352.44 271.969C356.018 276.973 356.844 283.596 359.949 291.641C360.993 294.275 362.787 298.944 366.073 297.793C369.548 296.59 366.748 293.478 365.842 290.604C363.916 284.682 360.938 272.809 356.762 269.117L356.698 269.134Z" fill="#284253"/>
<path fill-rule="evenodd" clip-rule="evenodd" d="M598.172 205.583C597.624 209.863 602.637 223.766 607.074 222.103C611.401 220.537 604.075 202.307 598.172 205.583Z" fill="#284253"/>
<path fill-rule="evenodd" clip-rule="evenodd" d="M389.216 265.977C389.216 265.977 388.836 266.079 388.71 266.113C382 268.656 392.462 296.82 394.969 306.177C400.187 325.65 405.692 341.386 410.695 356.512C413.221 364.17 413.501 374.327 418.627 377.765C423.473 375.856 420.096 370.595 419.22 367.577C410.867 339.187 398.146 306.139 392.636 276.716C392.042 273.487 392.575 270.159 391.141 267.088C390.621 266.414 389.98 266.044 389.136 265.931L389.216 265.977Z" fill="#284253"/>
<path fill-rule="evenodd" clip-rule="evenodd" d="M421.387 269.622C418.529 272.624 422.338 280.006 423.331 285.229C424.459 290.957 425.158 298.63 427.087 307.6C428.707 315.162 428.011 332.56 432.985 331.634C437.688 330.712 433.613 310.188 432.557 304.982C430.382 294.588 428.553 276.375 424.252 269.939C423.737 269.534 423.099 269.434 422.399 269.351L421.387 269.622Z" fill="#284253"/>
<path fill-rule="evenodd" clip-rule="evenodd" d="M706.417 196.027C705.173 200.494 710.385 202.485 712.937 205.935C718.59 213.365 724.057 228.705 724.63 241.223C724.815 244.697 722.57 248.212 726.125 250.851C731.693 249.359 730.811 241.26 729.928 235.941C727.021 218.763 719.193 200.938 710.023 195.06C709.008 196.078 707.706 194.258 707.935 195.62L706.354 196.044L706.417 196.027Z" fill="#284253"/>
<path fill-rule="evenodd" clip-rule="evenodd" d="M301.677 307.255C304.506 317.813 313.228 327.334 319.257 335.409C321.289 338.185 321.932 343.366 326.681 342.364C329.346 336.365 321.91 330.632 318.133 325.139C314.013 319.128 310.315 312.665 306.584 307.092C306.207 306.447 305.478 306.507 305.148 305.783C303.756 306.156 302.123 306.39 301.614 307.272L301.677 307.255Z" fill="#284253"/>
<path fill-rule="evenodd" clip-rule="evenodd" d="M492.489 258.363C492.861 263.549 493.013 267.912 492.355 272.29C491.739 276.317 488.279 280.362 490.587 284.419C495.351 285.243 496.7 279.393 497.732 273.628C498.806 267.512 501.116 253.612 492.489 258.363Z" fill="#284253"/>
<path fill-rule="evenodd" clip-rule="evenodd" d="M458.061 267.046C457.239 267.266 456.032 267.318 456.109 268.111C453.634 270.265 456.232 273.634 456.475 275.805C459.003 296.88 456.715 320.735 458.898 343.054C459.26 346.684 459.551 350.807 459.74 354.551C459.899 357.422 459.061 362.39 462.754 363.773C468.352 359.359 465.19 348.822 464.456 341.023C462.98 324.884 462.927 310.262 462.585 292.532C462.45 284.437 463.106 274.232 459.986 268.156C459.467 267.482 458.825 267.112 457.981 266.999L458.061 267.046Z" fill="#284253"/>
<path fill-rule="evenodd" clip-rule="evenodd" d="M384.593 391.967C387.742 385.498 380.278 377.131 376.29 371.355C367.417 358.487 359.909 344.642 351.207 329.626C346.904 322.174 343.963 313.475 339.48 306.612C330.01 304.678 339.936 319.704 341.712 323.294C352.23 344.328 365.263 364.62 376.626 382.988C378.913 386.712 380.703 392.128 384.593 391.967Z" fill="#284253"/>
<path fill-rule="evenodd" clip-rule="evenodd" d="M184.161 382.179C185.005 374.702 175.187 374.758 170.013 373.163C158.466 369.548 145.247 364.755 131.5 364.576C128.818 365.702 122.114 365.736 122.831 369.678C123.62 374.142 131.443 370.69 131.443 370.69C143.062 370.016 157.425 374.774 167.968 378.183C173.893 380.051 179.364 383.261 184.097 382.196L184.161 382.179Z" fill="#284253"/>
<path fill-rule="evenodd" clip-rule="evenodd" d="M138.031 372.245C128.482 371.28 131.829 384.275 138.586 382.668C143.808 381.404 144.175 372.903 138.031 372.245Z" fill="#284253"/>
<path fill-rule="evenodd" clip-rule="evenodd" d="M297.246 344.627C297.21 350.058 301.206 355.356 304.16 360.054C307.177 364.734 310.435 369.553 313.516 374.216C320.133 384.234 328.512 392.221 334.143 399.318C336.691 402.498 341.027 413.872 344.945 412.551C349.116 411.162 344.465 404.684 343.586 403.428C334.653 389.83 321.864 376.52 312.474 362.23C308.464 356.122 304.968 349.402 300.925 344.183C300.41 343.779 299.773 343.679 299.072 343.596C298.731 344.094 298.022 344.487 297.12 344.661L297.246 344.627Z" fill="#284253"/>
<path fill-rule="evenodd" clip-rule="evenodd" d="M165.992 389.283C167.198 380.625 157.316 379.682 155.321 384.892C153.007 390.933 162.054 396.098 165.992 389.283Z" fill="#284253"/>
<path fill-rule="evenodd" clip-rule="evenodd" d="M526.063 290.024C519.568 292.103 527.77 308.54 530.703 317.715C534.258 328.96 537.342 340.466 540.626 350.699C542.755 357.379 544.438 364.924 549.022 367.355C554.27 362.9 548.851 357.101 547.214 352.255C542.787 339.278 537.961 323.292 533.301 308.684C531.422 302.683 530.664 296.313 528.069 291.181C527.549 290.507 526.907 290.137 526.063 290.024Z" fill="#284253"/>
<path fill-rule="evenodd" clip-rule="evenodd" d="M75.155 411.929C76.4093 421.418 76.5402 434.055 81.6539 442.51C84.5615 447.287 88.7221 451.932 93.0974 456.113C97.2151 460.092 102.031 465.917 106.974 464.118C107.79 457.801 100.692 456.111 97.2372 452.836C93.411 449.185 87.7514 443.248 85.2348 437.146C82.4686 430.365 82.6073 421.519 79.708 412.471C79.1884 411.797 78.5467 411.426 77.7028 411.314L75.1087 412.009L75.155 411.929Z" fill="#284253"/>
<path fill-rule="evenodd" clip-rule="evenodd" d="M140.928 395.457C136.392 394.978 133.838 398.102 134.905 402.085C138.259 414.603 153.422 396.785 140.928 395.457Z" fill="#284253"/>
<path fill-rule="evenodd" clip-rule="evenodd" d="M557.433 286.633C556.462 289.333 559.008 291.496 560.023 294.274C563.869 304.83 564.209 323.306 572.28 323.312C575.02 320.884 571.795 315.175 570.389 309.928C568 301.013 565.954 288.822 560.478 285.343C558.795 285.387 558.716 286.357 557.514 286.679L557.433 286.633Z" fill="#284253"/>
<path fill-rule="evenodd" clip-rule="evenodd" d="M187.597 392.98C178.256 393.044 182.958 407.302 190.429 405.571C197.899 403.84 194.302 392.946 187.597 392.98Z" fill="#284253"/>
<path fill-rule="evenodd" clip-rule="evenodd" d="M271.427 396.065C269.477 391.573 264.922 388.999 261.59 386.436C257.841 383.578 254.096 380.99 250.524 378.288C250.245 377.753 249.41 378.18 249.24 377.548C241.92 381.61 253.938 387.741 258.46 391.204C263.257 394.934 267.781 400.43 271.427 396.065Z" fill="#284253"/>
<path fill-rule="evenodd" clip-rule="evenodd" d="M209.697 388.143C206.069 388.777 206.162 393.427 208.78 395.098C209.539 394.894 210.218 394.644 210.497 395.179C213.605 393.872 213.199 388.56 209.697 388.143Z" fill="#284253"/>
<path fill-rule="evenodd" clip-rule="evenodd" d="M552.43 299.087C551.213 301.378 556.254 329.3 561.37 328.404C567.217 327.447 557.348 301.496 555.53 298.256C553.569 298.781 553.923 298.077 552.43 299.087Z" fill="#284253"/>
<path fill-rule="evenodd" clip-rule="evenodd" d="M129.068 419.777C127.575 408.386 115.679 414.352 118.268 420.976C119.829 425.03 127.512 425.614 129.068 419.777Z" fill="#284253"/>
<path fill-rule="evenodd" clip-rule="evenodd" d="M170.5 408.133C161.449 407.509 164.187 419.243 170.043 418.826C176.151 418.341 177.61 408.599 170.5 408.133Z" fill="#284253"/>
<path fill-rule="evenodd" clip-rule="evenodd" d="M70.7588 437.026C68.9412 446.187 78.353 461.825 86.4734 456.194C82.9525 449.887 76.5591 448.55 75.4937 437.994C74.6622 437.675 74.1087 436.874 73.3529 436.331L70.7588 437.026Z" fill="#284253"/>
<path fill-rule="evenodd" clip-rule="evenodd" d="M516.468 318.751C515.147 322.425 517.421 330.151 519.342 335.803C520.878 340.27 522.868 347.191 527.815 344.645C527.766 337.882 522.398 328.479 520.988 319.167C519.861 319.265 519.603 318.047 518.476 318.145L516.388 318.705L516.468 318.751Z" fill="#284253"/>
<path fill-rule="evenodd" clip-rule="evenodd" d="M144.79 422.272C134.087 423.582 142.813 436.151 149.573 433.798C151.611 433.049 154.144 430.608 152.578 426.284C151.33 422.892 148.515 421.749 144.79 422.272Z" fill="#284253"/>
<path fill-rule="evenodd" clip-rule="evenodd" d="M228.198 401.007C228.915 404.949 233.198 405.495 235.976 407.258C254.747 419.101 275.633 429.226 295.55 440.287C298.341 441.844 300.272 445.256 304.351 444.028C305.33 436.041 295.409 433.685 289.655 430.686C277.058 424.168 265.269 418.383 251.954 410.702C246.419 407.509 238.404 400.374 233.876 399.418C232.728 399.184 229.504 398.286 228.181 400.944L228.198 401.007Z" fill="#284253"/>
<path fill-rule="evenodd" clip-rule="evenodd" d="M219.022 406.244C208.849 404.972 213.139 421.238 220.778 419.123C227.105 417.428 224.626 406.911 219.022 406.244Z" fill="#284253"/>
<path fill-rule="evenodd" clip-rule="evenodd" d="M186.202 418.901C183.342 423.665 187.419 429.01 191.945 427.933C199.795 426.101 195.177 412.159 186.202 418.901Z" fill="#284253"/>
<path fill-rule="evenodd" clip-rule="evenodd" d="M169.309 436.844C164.753 437.049 162.963 440.239 164.57 444.213C169.113 455.599 182.312 436.274 169.309 436.844Z" fill="#284253"/>
<path fill-rule="evenodd" clip-rule="evenodd" d="M250.417 423.446C245.594 422.909 242.902 426.273 244.53 430.58C248.803 441.971 261.671 424.7 250.417 423.446Z" fill="#284253"/>
<path fill-rule="evenodd" clip-rule="evenodd" d="M224.168 433.8C213.864 433.308 218.962 446.511 225.799 443.934C228.624 442.838 231.911 434.097 224.168 433.8Z" fill="#284253"/>
<path fill-rule="evenodd" clip-rule="evenodd" d="M202.918 456.231C202.059 445.687 190.718 449.675 191.712 455.914C192.599 461.503 200.633 462.129 202.918 456.231Z" fill="#284253"/>
<path fill-rule="evenodd" clip-rule="evenodd" d="M524.729 368.308C523.885 371.99 526.292 378.189 527.749 383.626C529.206 389.064 529.593 396.075 533.968 396.461C538.493 394.368 534.883 387.475 533.443 382.101C532.003 376.727 530.845 370.125 528.399 367.325C526.243 367.631 526.749 367.496 524.729 368.308Z" fill="#284253"/>
<path fill-rule="evenodd" clip-rule="evenodd" d="M279.421 436.274C269.197 435.829 272.379 448.461 279.469 446.832C284.438 445.636 285.561 437.678 279.421 436.274Z" fill="#284253"/>
<path fill-rule="evenodd" clip-rule="evenodd" d="M514.296 377.203C514.773 382.021 517.161 389.92 520.922 391.555C526.303 389.367 519.961 372.025 514.296 377.203Z" fill="#284253"/>
<path fill-rule="evenodd" clip-rule="evenodd" d="M254.57 449.574C250.676 449.465 248.391 451.568 248.783 455.055C250.397 469.936 269.148 450.072 254.57 449.574Z" fill="#284253"/>
<path fill-rule="evenodd" clip-rule="evenodd" d="M222.514 467.108C227.121 470.888 233.614 466.776 232.196 461.735C230.388 455.24 217.804 457.121 222.514 467.108Z" fill="#284253"/>
<path fill-rule="evenodd" clip-rule="evenodd" d="M303.517 449.266C293.706 447.829 296.474 461.453 303.565 459.824C309.057 458.555 309.171 450.122 303.517 449.266Z" fill="#284253"/>
<path fill-rule="evenodd" clip-rule="evenodd" d="M282.082 460.634C276.719 460.106 275.297 463.401 275.924 466.756C277.231 473.656 290.246 472.88 286.165 463.47C285.768 462.492 284.948 460.95 282.099 460.697L282.082 460.634Z" fill="#284253"/>
<path fill-rule="evenodd" clip-rule="evenodd" d="M222.101 530.102C224.011 524.576 216.836 522.094 213.07 519.173C209.063 516.113 204.667 512.615 200.504 509.732C191.502 503.471 179.969 496.871 172.408 492.189C164.661 496.433 178.827 502.734 182.568 505.052C192.219 511.207 199.848 516.142 208.441 522.649C212.688 525.848 216.744 530.86 222.101 530.102Z" fill="#284253"/>
<path fill-rule="evenodd" clip-rule="evenodd" d="M250.327 475.24C249.254 486.167 263.284 483.356 261.027 475.694C259.647 471.049 253.026 470.384 250.327 475.24Z" fill="#284253"/>
<path fill-rule="evenodd" clip-rule="evenodd" d="M342.751 491.675C348.164 491.377 346.837 485.159 347.573 482.591C350.049 473.863 357.264 465.357 364.522 458.534C377.21 446.664 401.084 440.605 423.936 437.057C429.403 436.202 432.727 435.447 432.235 432.597C431.501 428.593 416.188 431.679 412.118 432.431C381.243 437.926 360.967 451.084 348.865 466.659C346.594 469.572 344.076 474.854 342.65 478.895C341.358 482.426 338.951 488.628 342.751 491.675Z" fill="#284253"/>
<path fill-rule="evenodd" clip-rule="evenodd" d="M362.495 478.05C368.582 476.216 374.353 471.688 379.834 467.848C385.142 464.121 391.037 460.306 393.749 455.242C388.766 450.818 382.732 458.669 374.991 464.199C367.971 469.129 357.175 473.377 362.576 478.096L362.495 478.05Z" fill="#284253"/>
<path fill-rule="evenodd" clip-rule="evenodd" d="M292.28 486.293C281.902 487.041 290.812 503.085 297.382 494.955C300.386 491.236 297.136 485.941 292.28 486.293Z" fill="#284253"/>
<path fill-rule="evenodd" clip-rule="evenodd" d="M527.579 428.801C531.883 429.681 536.943 426.292 541.254 425.679C547.991 424.755 555.272 426.87 560.99 428.726C566.709 430.582 572.795 436.337 578.639 432.332C576.419 427.844 569.159 425.046 563.343 423.081C556.472 420.721 546.893 418.883 540.156 419.807C535.781 420.437 525.049 421.89 527.499 428.755L527.579 428.801Z" fill="#284253"/>
<path fill-rule="evenodd" clip-rule="evenodd" d="M641.453 456.7C645.303 455.126 643.511 451.473 643.816 448.816C645.317 434.93 651.638 419.548 658.55 408.141C661.798 402.799 667.768 398.76 667.542 391.841C666.119 391.341 665.22 390.769 664.171 391.66C653.594 400.525 644.68 422.429 640.413 438.141C638.69 444.362 635.184 453.298 641.47 456.763L641.453 456.7Z" fill="#284253"/>
<path fill-rule="evenodd" clip-rule="evenodd" d="M543.245 437.411C548.032 443.379 556.693 442.549 564.398 443.466C565.282 442.213 566.648 441.237 565.368 438.734C559.191 438.966 547.678 431.683 543.308 437.394L543.245 437.411Z" fill="#284253"/>
<path fill-rule="evenodd" clip-rule="evenodd" d="M659.528 420.144C658.884 421.536 658.063 422.773 659.2 425.246C657.673 429.925 653.259 432.937 654.62 439.281C655.13 439.415 655.687 439.469 655.903 440.021C658.961 439.54 663.953 431.088 664.712 427.09C665.472 423.092 664.231 418.206 659.528 420.144Z" fill="#284253"/>
<path fill-rule="evenodd" clip-rule="evenodd" d="M263.136 537.47C263.111 542.695 271.046 544.973 276.072 546.269C287.37 549.205 299.623 550.394 312.954 544.721C316.362 543.266 319.988 540.6 322.871 538.202C325.535 535.997 330.027 533.777 330.204 530.138C322.133 526.338 317.845 536.906 308.988 540.295C296.563 545.047 286.731 543.277 277.936 540.823C273.036 539.493 268.276 535.144 263.153 537.534L263.136 537.47Z" fill="#284253"/>
<path fill-rule="evenodd" clip-rule="evenodd" d="M310.561 556.543C310.113 551.581 305.352 553.805 302.032 553.814C293.454 553.944 284.453 551.477 278.844 550.541C276.646 550.181 275.776 553.26 275.869 554.116C276.688 558.437 288.438 557.999 292.641 558.499C298.801 559.22 306.626 561.596 310.481 556.497L310.561 556.543Z" fill="#284253"/>
</g>
<defs>
<clipPath id="clip0_826_2593">
<rect width="690.719" height="446.85" fill="white" transform="matrix(-0.965926 0.258819 0.258819 0.965926 667.183 -6.10352e-05)"/>
</clipPath>
</defs>
</svg>
