<svg width="1164" height="1164" viewBox="0 0 1164 1164" fill="none" xmlns="http://www.w3.org/2000/svg">
<g clip-path="url(#clip0_826_2512)">
<path fill-rule="evenodd" clip-rule="evenodd" d="M263.483 306.373C257.881 305.119 258.01 297.474 258.602 292.795C260.442 278.297 269.268 260.373 275.393 248.974C276.513 246.931 279.28 244.559 281.917 246.801C286.136 250.493 279.68 256.818 277.572 260.903C274.608 266.768 271.843 275.994 269.473 284.165C267.103 292.337 268.688 301.3 263.483 306.373Z" fill="#284253"/>
<path fill-rule="evenodd" clip-rule="evenodd" d="M253.721 281.458C258.667 291.016 248.059 300.569 254.258 310.193C252.084 313.553 249.975 312.498 247.734 312.366C240.548 304.652 244.166 284.421 253.655 281.524L253.721 281.458Z" fill="#284253"/>
<path fill-rule="evenodd" clip-rule="evenodd" d="M335.51 283.133C332.81 290.052 340.524 299.611 332.288 304.814C326.752 303.494 324.636 283.327 328.523 278.253C333.727 271.335 341.901 276.215 335.51 283.133Z" fill="#284253"/>
<path fill-rule="evenodd" clip-rule="evenodd" d="M225.049 471.519C212.196 467.231 199.408 460.768 186.624 464.455C183.262 462.279 184.316 460.17 184.447 457.93C189.85 454.768 196.967 453.848 205.074 455.761C217.597 458.797 239.876 466.713 234.276 473.104C231.443 476.333 228.411 473.168 225.115 471.454L225.049 471.519Z" fill="#284253"/>
<path fill-rule="evenodd" clip-rule="evenodd" d="M237.566 456.892L234.338 460.121C230.515 459.724 230.449 457.813 227.812 456.889C221.682 454.581 210.48 458.004 207.777 455.301C206.524 454.048 205.469 451.939 206.72 449.896C209.553 445.218 228.534 446.938 232.16 449.377C235.126 451.29 237.17 453.992 237.632 456.958L237.566 456.892Z" fill="#284253"/>
<path fill-rule="evenodd" clip-rule="evenodd" d="M180.13 556.522C176.109 555.4 173.076 549.468 170.373 546.765C164.242 540.897 146.181 533.642 151.386 527.778C156.393 522.112 182.564 544.462 184.413 553.294C182.963 555.403 181.513 555.402 180.13 556.522Z" fill="#284253"/>
<path fill-rule="evenodd" clip-rule="evenodd" d="M605.6 115.888C607.111 101.324 619.376 118.595 624.585 126.176C628.936 132.504 640.012 144.107 634.346 147.796C626.834 152.671 616.213 120.703 605.666 115.823L605.6 115.888Z" fill="#284253"/>
<path fill-rule="evenodd" clip-rule="evenodd" d="M632.092 108.911C640.331 112.803 644.292 132.971 634.8 127.827C633.284 126.97 619.437 105.876 632.092 108.911Z" fill="#284253"/>
<path fill-rule="evenodd" clip-rule="evenodd" d="M538.555 255.585C539.805 249.588 556.741 243.992 560.236 249.068C567.225 259.351 536.12 267.25 538.555 255.585Z" fill="#284253"/>
<path fill-rule="evenodd" clip-rule="evenodd" d="M241.974 632.334C239.339 637.21 241.252 640.967 235.981 644.788C222.408 654.801 188.98 613.995 207.233 604.181C216.59 599.175 240.718 620.8 241.908 632.4L241.974 632.334ZM231.694 636.153C236.634 626.335 218.505 612.95 210.004 613.408C212.117 625.14 221.412 632.459 231.694 636.153Z" fill="#284253"/>
<path fill-rule="evenodd" clip-rule="evenodd" d="M467.102 420.127C470.464 422.171 472.904 426.324 473.564 429.883L470.336 433.112C464.207 432.78 458.139 420.52 467.102 420.127Z" fill="#284253"/>
<path fill-rule="evenodd" clip-rule="evenodd" d="M254.369 645.914C267.813 643.414 295.369 667.018 283.048 678.942C277.712 684.147 260.312 680.319 253.323 671.881C249.301 667.068 248.376 660.741 246.266 656.127C248.242 652.701 250.481 649.274 254.435 645.848L254.369 645.914ZM277.642 672.482C277.376 663.914 264.324 656.397 257.601 653.494C252.924 662.654 270.986 673.205 277.642 672.482Z" fill="#284253"/>
<path fill-rule="evenodd" clip-rule="evenodd" d="M209.437 692.956L212.138 690.255C234.816 709.638 252.09 729.679 275.556 740.627C287.355 746.101 297.638 752.3 308.051 752.567C312.203 752.634 316.617 748.879 320.508 754.219C310.89 768.187 291.972 757.307 277.734 750.448C262.112 742.864 247.082 733.764 233.304 721.171C224.866 713.523 215.57 703.7 209.438 696.251C208.976 695.131 208.976 694.076 209.437 692.956Z" fill="#284253"/>
<path fill-rule="evenodd" clip-rule="evenodd" d="M225.731 740.611C233.047 741.47 237.004 750.039 242.542 754.127C246.629 757.16 253.352 759.93 257.702 761.645C263.041 763.822 271.279 762.836 271.215 769.756C262.452 774.3 246.566 767.507 237.074 760.518C232.327 756.957 228.7 751.222 223.558 747.003C224.019 745.619 222.503 744.103 223.557 742.653L225.731 740.479L225.731 740.611Z" fill="#284253"/>
<path fill-rule="evenodd" clip-rule="evenodd" d="M793.55 277.88C788.412 285.391 783.202 276.492 779.445 273.525C770.018 265.943 758.483 260.337 748.597 262.179C746.751 258.884 748.134 257.105 750.243 255.128C759.071 246.959 787.021 266.081 793.55 277.88Z" fill="#284253"/>
<path fill-rule="evenodd" clip-rule="evenodd" d="M762.671 371.521C781.521 372.977 824.041 406.932 815.809 426.767C807.374 429.401 808.952 416.879 807.105 412.661C798.601 404.947 792.996 397.498 786.008 391.564C774.669 382.07 761.159 382.263 752.457 373.165C750.543 366.245 759.572 367.632 762.737 371.587L762.671 371.521Z" fill="#284253"/>
<path fill-rule="evenodd" clip-rule="evenodd" d="M770.783 388.329C776.848 392.022 800.71 407.32 793.529 413.183C787.533 418.124 774.609 397.557 766.963 394.26C766.962 391.887 767.554 389.185 770.783 388.329Z" fill="#284253"/>
<path fill-rule="evenodd" clip-rule="evenodd" d="M755.201 500.429C755.201 500.429 755.596 500.034 755.728 499.902C762.053 496.082 781.962 513.092 788.753 518.828C805.563 533.135 816.706 549.022 823.434 564.314C827.721 574.003 834.908 583.958 831.549 590.876C821.86 589.489 820.472 577.824 816.911 569.782C810.645 555.61 800.293 539.855 782.757 524.823C773.594 516.977 760.279 510.646 755.136 503.659C754.674 502.538 754.674 501.484 755.135 500.363L755.201 500.429Z" fill="#284253"/>
<path fill-rule="evenodd" clip-rule="evenodd" d="M796.328 506.902C805.292 511.913 828.365 529.715 822.898 539.929C815.253 539.531 804.834 521.338 793.693 512.832C794.682 511.58 793.297 510.328 794.219 509.01L796.394 506.836L796.328 506.902Z" fill="#284253"/>
<path fill-rule="evenodd" clip-rule="evenodd" d="M586.37 754.834C592.83 758.79 588.876 761.161 591.25 766.171C596.065 776.256 608.326 786.541 619.93 798.144C623.951 802.166 638.916 814.627 636.149 818.712C632.263 824.445 621.186 810.206 613.406 802.426C600.88 789.9 570.094 763.066 586.304 754.768L586.37 754.834Z" fill="#284253"/>
<path fill-rule="evenodd" clip-rule="evenodd" d="M587.964 792.137C593.502 798.202 613.146 810.599 608.007 816.528C602.407 822.919 588.956 802.748 583.088 797.012C583.285 794.31 585.262 792.334 587.964 792.137Z" fill="#284253"/>
<path fill-rule="evenodd" clip-rule="evenodd" d="M941.534 757.126C948.193 764.707 951.295 779.141 950.705 789.093C950.509 792.85 949.39 797.924 944.777 799.372C944.184 798.647 943.656 798.515 943.195 798.844C939.767 795.416 941.875 791.99 942.665 788.563C941.146 779.138 939.824 769.779 937.251 760.354C938.7 758.904 940.15 757.06 941.534 757.126Z" fill="#284253"/>
<path fill-rule="evenodd" clip-rule="evenodd" d="M956.099 758.778C962.495 767.941 963.487 777.234 965.269 786.395C964.412 786.461 963.424 787.054 962.568 788.042C952.351 782.832 953.203 768.663 950.629 759.897C951.882 759.699 953.133 758.447 954.386 758.25C954.979 758.975 955.506 759.107 955.967 758.778L956.099 758.778Z" fill="#284253"/>
<path fill-rule="evenodd" clip-rule="evenodd" d="M506.051 217.679C502.162 214.844 496.296 215.04 494.12 209.042C482.323 209.763 463.271 195.455 472.494 183.068C483.693 168.045 505.972 176.62 520.141 176.559C526.464 162.194 513.999 135.762 529.877 121.334C539.628 112.505 556.962 116.268 567.842 131.1C572.122 118.777 586.683 108.435 598.682 120.829C602.176 124.323 602.244 129.793 604.618 134.407C606.267 137.506 608.97 140.472 610.552 143.636C617.345 156.754 621.172 171.386 624.668 179.361C636.531 180.684 654.651 168.102 665.795 184.779C667.839 187.746 666.917 191.963 667.446 196.181C667.909 199.938 670.414 203.498 667.45 206.99C661.191 214.435 650.249 208.236 642.539 212.386C648.542 228.271 647.295 244.154 657.713 259.975C671.027 263.406 688.821 260.248 706.418 262.166C710.966 262.628 715.711 264.871 720.457 265.4C739.307 267.647 766.13 269.039 782.155 296.791C786.507 304.305 791.915 316.829 780.516 323.35C792.053 334.096 800.097 345.171 806.494 359.079C810.847 368.571 820.672 383.93 807.031 387.814C789.299 378.384 767.148 356.496 748.562 354.249C732.085 352.267 711.59 356.412 697.154 349.355C687.465 344.673 673.159 333.794 664.655 326.607C654.042 317.575 645.8 305.907 639.205 294.7C634.855 292.195 630.505 292.325 626.154 289.292C623.059 295.947 619.239 302.668 611.53 309.322C624.128 341.422 650.7 375.768 658.619 409.514C659.609 413.798 658.425 418.543 659.744 422.498C664.428 437.196 677.353 459.213 689.023 473.386C715.198 505.227 759.102 540.04 782.774 574.648C790.62 586.184 798.139 603.19 804.47 615.846C810.274 627.447 823.594 648.936 818.06 656.448C813.119 663.102 801.716 658.288 796.377 655.32C774.426 642.989 753.988 620.838 731.444 607.649C737.84 615.23 751.357 635.6 758.544 645.554C763.621 652.607 772.059 659.069 760.725 664.996C752.62 669.278 742.993 653.589 733.634 652.004C735.746 660.704 736.868 668.02 738.519 676.391C740.037 684.366 740.568 694.779 745.579 700.712C751.315 707.634 772.143 714.495 780.185 718.057C813.735 732.765 852.625 750.572 883.077 761.39C892.635 764.755 913.659 767.332 918.803 777.615C920.65 781.306 915.774 786.05 916.105 790.07C916.304 792.772 919.468 796.2 919.931 799.298C922.573 817.489 911.709 850.24 891.216 859.394C887.071 879.889 878.773 900.185 870.081 922.722C866.262 932.739 860.864 951.586 847.878 941.63C842.406 937.476 840.096 928.446 839.238 923.239C837.059 910.123 839.096 892.132 840.872 881.522C828.019 877.629 815.758 870.639 802.443 864.703C788.601 858.635 772.52 856.916 757.491 851.112C742.859 845.571 728.094 839.371 713.131 833.764C685.184 823.342 650.381 806.854 623.814 785.558C605.356 770.789 598.163 744.754 589.655 724.386C582.399 706.985 580.68 689.717 575.534 673.503C567.947 649.445 558.186 627.034 556.003 603.11C547.435 600.998 537.68 600.204 531.614 591.766C528.054 586.756 528.182 575.816 527.85 568.5C526.987 549.585 527.045 525.925 527.303 508.394C498.97 526.838 474.524 542.845 447.702 547.911C433.863 550.543 422.461 547.573 407.631 544.603C389.11 540.972 372.303 537.869 354.044 526.725C364.207 566.403 372.72 602.983 376.291 638.837C377.481 650.437 374.653 668.823 371.494 681.608C368.072 695.447 355.095 714.357 337.963 724.896C322.346 734.448 295.128 736.086 279.506 729.161C265.4 722.961 249.117 709.182 237.777 696.129C227.492 684.262 217.404 670.089 206.328 657.168C193.339 641.94 186.546 625.923 172.174 613.264C162.747 605.023 150.816 599.153 140.269 593.218C125.833 585.107 105.598 578.576 101.836 561.242C100.582 555.639 102.028 544.963 103.477 540.086C112.232 510.893 139.577 493.833 166.794 486.526C181.753 482.511 197.24 479.023 207.39 480.608C216.946 481.996 234.942 491.426 239.36 498.479C246.283 509.62 241.609 523.919 239.438 536.375C244.121 547.383 249.596 561.159 258.958 573.156C263.507 579.023 278.144 595.373 284.405 595.309C296.597 595.379 303.838 569.678 304.429 561.177C305.938 540.285 294.528 517.412 296.828 497.312C294.323 493.489 291.883 489.468 290.3 485.381C289.311 482.81 289.968 478.329 288.649 473.979C287.197 469.101 283.901 467.255 283.768 462.641C283.635 459.346 284.556 456.051 286.467 453.482C277.693 426.655 279.856 391.001 276.683 361.475C274.567 341.834 275.814 327.138 278.246 306.774C281.335 281.797 295.495 251.551 323.696 230.998C328.573 230.604 333.384 230.276 338.26 228.3C372.202 230.355 406.083 247.106 440.093 256.476C453.273 254.766 468.698 262.812 482.275 266.243C485.703 267.167 496.183 269.346 499.543 266.249C502.376 263.68 503.228 249.774 502.764 243.513C502.5 240.218 500.39 236.526 500.586 233.824C501.046 227.827 505.724 223.808 505.985 217.613L506.051 217.679ZM290.052 331.887C289.987 335.249 291.636 338.874 291.637 342.169C291.912 377.626 293.639 417.302 301.361 450.455C301.295 452.63 300.439 454.804 300.242 456.979C304.987 454.476 309.601 457.509 314.281 459.159C316.058 450.921 294.373 445.839 302.938 438.065C305.244 436.418 307.618 439.846 309.991 439.715C313.811 432.599 297.202 430.484 301.879 422.907C304.382 420.271 306.954 423.765 309.392 422.909C308.006 418.098 312.091 415.331 308.795 410.453C305.959 406.036 293.041 403.659 300.684 396.94C303.385 395.161 306.089 399.182 308.791 399.644C313.006 391.473 293.629 389.094 298.503 380.66C301.403 378.816 304.237 380.333 307.138 382.838C313.264 373.679 290.461 375.253 296.851 364.908C300.079 362.866 303.375 365.372 306.606 368.207C313.127 359.048 297.835 353.243 300.073 344.413C302.05 343.227 304.027 343.755 306.005 343.888C305.543 342.108 305.542 340.263 306.003 338.483C302.114 336.703 296.709 334.855 299.475 329.848C301.649 327.41 303.825 329.454 306 328.729C304.674 307.244 304.404 285.759 313.03 264.342C295.045 286.151 289.978 309.546 289.788 332.019L290.052 331.887ZM499.552 293.534C496.651 292.083 493.751 291.555 490.85 288.127C474.044 287.133 454.601 284.951 433.443 277.234C409.451 268.526 386.643 252.833 365.749 249.597C342.022 245.898 327.398 265.006 322.396 285.303C319.236 298.22 321.943 312.917 321.882 325.901C335.26 323.994 335.861 348.181 321.361 344.881C322.878 348.111 321.758 351.34 322.419 354.635C328.351 358.987 334.35 361.823 340.283 368.152C342.196 372.7 340.089 377.181 340.815 381.729C346.55 385.092 349.056 391.156 354.857 393.662C354.79 391.883 356.108 390.038 358.15 388.259C370.804 388.79 383.723 391.431 396.048 394.796C407.912 397.963 422.413 402.45 433.946 401.333C458.132 399.035 491.078 377.824 509.193 352.061C503.126 340.328 504.769 324.972 521.112 320.628C510.499 314.891 500.346 303.552 499.42 293.534L499.552 293.534ZM192.65 550.595C184.871 544.134 176.695 534.113 169.905 527.85C166.411 524.62 157.711 522.244 162.849 516.446C172.339 515.395 181.373 529.304 190.998 538.138C194.954 541.698 200.096 548.422 204.511 545.195C203.651 535.374 175.572 524.557 180.183 517.572C183.345 512.828 192.64 520.806 195.87 523.509C203.847 530.3 209.585 542.362 215.91 538.146C211.295 533.136 206.614 525.819 199.626 519.754C195.934 516.589 183.938 512.499 187.693 506.766C191.118 501.495 199.754 509.604 203.38 512.703C210.961 519.23 216.302 526.284 221.247 531.624C227.372 520.883 195.075 509.009 203.31 501.828C209.108 496.822 218.406 511.917 225.526 517.587C230.729 508.296 219.193 500.054 208.186 496.953C191.642 492.4 155.926 505.174 139.453 514.791C127.592 521.773 113.628 546.944 119.43 554.327C121.936 557.492 127.67 558.087 131.888 559.142C136.106 560.198 141.38 562.968 142.169 559.673C137.027 552.817 123.58 546.222 129.707 540.754C135.044 535.945 146.715 554.864 154.099 561.852C156.142 560.732 163.194 563.173 161.677 559.68C158.71 553.418 134.651 542.272 141.635 536.342C147.498 531.402 165.234 552.695 173.079 559.09C179.603 557.84 186.061 554.679 192.584 550.397L192.65 550.595ZM326.325 408.218C334.628 407.034 340.499 421.733 348.011 419.099C351.83 408.424 333.438 395.435 324.144 389.829C325.002 395.959 323.555 402.154 326.325 408.218ZM585.582 166.233C581.955 159.576 579.185 152.853 575.294 146.195C574.24 147.644 573.186 148.171 572.065 148.369C576.087 153.972 580.11 162.475 585.582 166.233ZM198.604 620.456C205.066 629.553 211.726 638.717 219.769 648.078C232.626 663.174 243.308 681.104 254.977 691.982C279.897 715.057 303.692 726.335 330.774 710.461C327.279 704.33 319.897 701.165 316.138 694.771C312.778 697.34 312.383 699.844 309.616 702.347C297.293 705.441 280.613 687.707 289.045 677.428C296.687 668.072 317.715 678.69 317.191 691.476C324.044 687.655 330.903 700.18 337.759 705.586C341.184 701.633 345.072 700.646 346.982 696.362C337.753 689.373 331.357 680.21 320.48 670.914C316.261 667.354 296.552 658.187 303.141 652.521C306.633 649.556 317.444 658.259 323.179 662.809C333.595 671.116 342.562 681.928 351.857 689.378C353.965 685.424 354.82 681.405 355.082 677.45C346.38 668.88 339.59 664.198 329.109 656.879C325.22 654.176 303.203 642.569 306.958 636.837C310.779 630.907 324.623 643.829 328.578 646.598C341.235 655.433 347.893 659.324 356.727 668.29C359.098 663.414 360.085 658.603 359.424 653.726C345.515 642.979 331.606 633.681 317.697 627.152C317.697 625.307 316.971 623.527 318.75 621.748C332.261 622.61 345.841 633.027 359.355 643.906C361.991 641.534 358.298 634.547 358.823 630.329C352.101 629.536 348.145 625.712 339.84 621.096C336.807 619.382 319.802 613.445 327.379 607.582C330.476 605.144 338.65 611.869 342.539 614.045C349.131 617.738 353.152 620.178 358.293 621.102C356.512 616.027 356.774 611.018 354.993 605.943C349.722 609.896 344.776 602.051 339.305 598.952C333.241 595.391 322.563 593.41 326.845 586.492C336.005 584.715 345.235 595.527 354.463 598.957C352.55 593.882 353.735 588.873 351.163 583.798C341.08 586.233 330.927 574.894 320.842 569.684C324.265 556.24 340.351 574.172 348.986 577.272C349.578 572.725 347.731 568.243 346.279 563.761C337.581 565.867 328.945 558.549 320.309 552.944C319.722 571.858 311.76 607.51 284.608 611.456C281.907 616.002 280.329 625.888 273.804 625.556L270.574 622.326C271.561 617.778 277.227 613.299 275.446 608.751C268.395 611.45 264.844 635.439 256.472 629.834C250.474 625.812 264.704 611.054 267.273 604.925C265.69 603.739 263.514 598.795 260.218 597.871C255.409 602.681 249.615 619.155 243.418 613.617C238.276 609.002 251.651 598.791 254.285 591.938C250.132 589.234 249.273 583.632 245.055 582.708C240.18 589.297 231.289 607.945 222.325 604.383C220.74 594.629 237.345 584.88 240.769 575.128C240.109 571.7 236.549 568.272 234.834 564.844C226.335 572.157 219.421 591.465 209.93 588.694C206.894 575.38 234.109 565.305 228.305 551.859C200.497 564.372 172.691 581.234 144.943 577.864C163.928 588.547 184.296 600.614 198.539 620.654L198.604 620.456ZM508.708 280.026C516.355 285.433 514.381 295.186 520.117 301.186C526.446 307.778 535.541 309.759 543.452 315.824C558.215 315.434 573.041 309.441 587.869 305.031C585.626 298.703 583.712 292.441 588.39 286.05C590.367 286.183 592.343 284.601 594.387 287.7C597.418 283.746 593.858 279.791 597.613 275.772C601.632 273.071 603.874 276.235 606.773 273.073C617.841 261.345 587.061 255.601 595.955 243.807C592.194 231.877 572.817 229.63 571.034 218.887C557.654 213.017 544.281 231.4 530.969 235.086C528.531 235.151 529.584 232.779 527.211 231.329C523.983 234.425 520.688 234.819 517.458 234.621C516.277 249.778 523.268 264.939 508.774 280.092L508.708 280.026ZM330.625 459.164C343.873 462.53 350.14 479.601 354.426 487.313C357.85 478.088 352.509 468.925 363.578 459.702C369.905 458.518 376.166 458.849 382.559 459.181C371.155 453.18 358.892 438.413 348.412 434.785C340.173 431.948 333.123 438.207 325.148 437.479C327.062 444.664 327.987 451.914 330.559 459.098L330.625 459.164ZM417.21 414.772C400.733 411.867 384.717 409.423 369.03 404.409C368.503 404.936 367.91 404.607 367.448 404.936C367.121 412.12 364.092 419.368 364.226 426.618C383.344 441.914 402.46 452.993 421.64 458.074C416.564 452.47 409.51 446.734 404.301 440.735C400.148 435.922 393.621 430.055 396.124 425.047C405.877 423.864 411.945 437.574 418.868 444.496C424.34 449.968 431.063 453.793 436.205 458.54C439.434 456.63 445.564 459.202 447.079 455.314C439.366 450.5 420.843 437.643 424.332 428.219C434.152 427.366 444.111 447.998 455.184 451.56C457.951 449.716 463.487 448.399 464.342 444.511C457.554 443.784 437.315 427.103 443.706 421.767C448.582 417.683 452.869 426.845 457.286 430.998C462.626 435.943 467.701 436.538 468.625 441.283C490.896 426.66 503.279 404.124 511.972 386.069C510.588 383.366 510.85 378.358 508.74 377.434C476.852 407.608 448.056 420.187 417.21 414.772ZM304.072 480.311C306.248 483.277 308.423 482.948 310.533 485.717C310.602 494.483 333.081 511.559 338.681 506.355C343.886 501.545 337.028 488.626 333.796 481.968C323.848 493.498 312.64 480.973 305.586 472.205C302.621 474.906 303.94 477.675 303.941 480.311L304.072 480.311ZM583.425 219.418C583.424 217.177 580.656 216.649 579.074 218.362C580.459 219.747 581.975 220.999 583.425 219.418ZM318.792 549.055C327.423 541.874 336.128 556.64 344.827 556.643C344.562 551.897 343.242 547.283 341.593 542.604C334.543 548.335 327.488 539.304 320.502 538.774C319.513 536.994 319.512 535.149 320.5 533.37C327.221 528.891 333.88 536.867 340.537 537.199C338.295 533.771 338.557 530.344 336.711 526.917C326.76 528.429 323.131 515.576 312.915 513.925C315.555 525.657 316.877 537.389 318.858 549.121L318.792 549.055ZM613.742 223.778C615.323 221.406 612.95 219.033 611.038 216.725C610.313 217.45 609.588 216.725 608.863 217.845C611.5 219.823 612.028 221.8 613.742 223.778ZM573.725 384.046C568.187 377.059 547.162 373.69 538.529 377.049C527.129 381.461 521.732 402.68 515.277 414.409C503.487 435.693 471.994 463.495 453.015 471.265C445.635 474.294 438.715 473.04 430.279 473.432C410.969 474.415 391 475.397 373.403 475.061C373.073 474.732 372.678 474.468 372.349 475.061C369.519 487.516 370.775 499.973 359.905 512.425C383.504 527.196 407.23 529.181 430.826 533.538C426.408 528.198 404.393 518.042 408.608 511.321C412.297 505.391 418.1 513.828 421.594 516.795C428.647 522.531 439.062 528.334 445.457 533.016C450.531 532.029 455.539 530.449 460.613 528.671C454.878 524.517 449.935 523.263 442.684 518.384C438.465 515.483 425.216 508.426 428.575 503.221C432.659 497.027 443.933 509.487 449.141 512.982C456.985 518.191 463.84 520.566 470.234 523.27C472.936 522.151 475.638 521.954 478.339 519.516C467.661 514.372 457.047 506.658 446.368 498.35C446.627 485.96 460.669 498.816 467.987 503.761C476.622 509.63 483.477 513.191 488.026 515.104C491.056 512.864 494.153 511.217 497.25 509.175C491.186 507.064 483.54 502.448 476.157 498.887C469.895 495.919 457.307 493.74 460.994 484.778C468.771 484.913 476.682 490.32 484.262 493.947C492.238 497.838 499.818 501.861 507.53 503.115C510.956 500.48 514.382 498.241 517.808 494.946C503.505 490.79 489.269 487.226 474.963 474.897C475.288 462.309 490.781 476.484 498.295 479.782C508.116 484.069 515.103 485.653 520.508 486.841C521.892 488.094 523.211 489.412 523.211 490.599L531.315 482.495C525.316 479.527 514.442 478.93 506.993 475.435C501.654 472.995 491.833 468.708 495.06 461.393C501.649 459.155 505.54 466.076 510.813 468.45C519.58 472.473 530.191 472.016 538.43 475.511L544.952 468.989C539.877 467.471 532.759 465.755 525.97 463.051C520.367 460.742 509.228 458.432 511.928 450.063C518.452 448.418 526.165 454.945 533.613 457.649C540.204 460.024 550.487 463.85 553.647 454.888C547.056 451.327 527.284 450.793 530.905 438.602C540.132 439.659 549.361 446.648 558.522 447.772C562.146 444.016 561.485 440.194 563.395 436.438C551.86 432.15 540.261 430.696 528.725 423.377C529.186 421.993 528.987 420.477 529.778 419.028C542.233 416.593 554.693 429.053 567.149 427.146C568.598 423.72 570.178 420.293 572.022 416.867C565.893 415.349 560.224 414.161 552.513 411.456C549.81 410.466 531.684 403.277 540.052 397.941C543.478 395.702 547.632 400.778 550.862 402.295C558.31 405.658 570.833 408.826 577.951 408.828C576.893 397.624 559.429 399.266 551.452 393.134C551.645 380.151 568.126 392.019 575.31 394.196C575.572 390.11 576.099 386.947 573.725 383.915L573.725 384.046ZM522.304 338.028C519.868 347.319 534.303 351.081 541.223 351.544C552.295 352.339 566.003 349.839 573.715 352.675C578.062 344.505 586.495 336.862 594.863 330.472C594.466 327.045 592.488 323.617 592.157 320.124C568.896 330.596 545.565 327.952 522.37 337.962L522.304 338.028ZM617.579 266.618C617.314 262.4 622.583 251.593 615.4 252.579C618.565 256.93 613.097 264.112 617.579 266.618ZM634.91 259.044C639.786 256.937 635.236 248.038 633.785 246.061C634.709 250.411 634.183 254.76 634.91 259.044ZM610.533 284.476C612.18 281.774 615.013 279.073 614.287 276.371C612.047 278.347 611.389 282.037 608.358 282.3L610.533 284.476ZM673.944 314.286C681.591 320.879 698.137 333.077 705.388 335.979C717.318 340.662 733.596 337.307 748.161 338.695C762.265 340.018 772.747 347.205 786.59 355.514C780.786 342.067 764.373 337.251 753.563 329.998C745.391 331.313 737.678 326.763 728.649 325.64C720.081 324.582 711.382 326.161 703.736 322.336C686.07 313.631 674.531 296.689 654.954 286.599L653.307 288.246C658.186 295.761 665.571 306.968 673.878 314.22L673.944 314.286ZM592.775 394.4C594.422 392.753 596.07 393.083 597.652 393.874C611.756 396.383 625.862 401.397 639.9 402.522C636.603 397.775 636.865 393.162 633.371 388.482C626.714 386.305 620.32 385.314 613.861 384.126C607.6 383.003 600.35 383.133 594.352 378.715C598.17 366.985 619.923 378.987 628.49 378.199C626.841 373.519 624.665 368.839 622.027 364.093C610.492 360.728 598.892 358.483 587.359 359.732C586.438 362.895 580.903 367.77 578.201 367.835C590.857 375.089 590.465 385.502 592.841 394.334L592.775 394.4ZM616.092 353.81C615.827 347.878 610.223 343.724 604.687 342.404C601.59 344.183 598.559 347.345 595.529 350.508C602.383 352.355 609.237 352.358 616.092 353.81ZM682.173 286.674C676.768 284.036 671.363 281.398 665.892 280.144C671.363 282.98 676.769 287.332 682.173 286.674ZM295.176 683.428C295.178 688.437 303.484 693.712 308.163 692.066C307.24 691.011 309.678 689.891 309.282 688.837C304.601 685.079 299.855 680.332 295.176 683.428ZM713.017 287.212C709.654 283.586 700.889 284.44 701.087 283.978C705.042 286.221 709.062 286.815 713.017 287.212ZM752.572 322.418C753.887 315.828 751.118 312.136 747.162 306.204C736.551 305.08 722.973 300.594 714.076 301.316C720.404 305.404 726.665 303.758 733.059 307.254C733.52 308.374 733.521 309.429 733.06 310.549C718.761 319.309 704.586 302.499 690.284 300.188C711.048 311.464 731.81 318.391 752.572 322.418ZM593.964 401.913C596.604 414.304 588.632 420.563 582.111 432.226C578.291 439.079 577.173 447.58 573.485 454.96C569.467 462.934 563.209 471.433 557.807 478.286C553.393 483.754 545.948 488.431 543.708 493.439C541.206 499.106 543.385 511.695 543.19 519.933C542.604 543.066 541.754 562.244 545.913 584.323C560.415 590.655 571.88 585.782 587.038 583.282C591.519 582.493 595.671 582.692 599.493 581.639C604.172 580.388 607.796 577.819 612.541 576.239C621.173 573.408 644.766 569.198 652.61 571.902C661.047 574.805 667.706 584.364 674.299 590.297C690.714 605.131 711.412 617.66 727.892 628.738C712.531 612.059 699.21 586.615 682.398 570.199C677.058 564.859 672.048 560.639 678.044 555.039C685.159 548.451 692.017 558.207 699.136 564.273C728.407 589.195 768.155 613.263 797.688 635.813C793.731 627.112 788.785 618.477 784.696 609.776C777.512 608.258 770.262 604.564 763.078 605.419C761.825 602.716 750.687 601.856 754.375 595.662C762.678 591.842 770.985 598.831 779.289 598.966C773.552 589.935 764.324 585.845 752.196 581.623C747.714 580.04 727.875 575.354 733.804 568.634C736.703 565.34 745.14 570.615 748.963 571.934C755.489 574.111 759.641 575.892 764.65 576.816C761.354 572.993 760.1 569.236 755.42 565.478C752.915 565.345 750.346 566.992 747.907 565.475C740.788 562.837 733.867 559.473 726.221 556.834C717.52 553.8 705.658 554.719 700.778 546.545C705.982 539.495 715.672 545.627 722.461 547.672C730.634 550.18 738.479 554.334 745.728 554.732C740.124 548.601 736.563 542.405 729.444 536.339C727.73 536.075 727.204 539.897 724.568 540.16C714.746 534.159 703.871 532.376 693.721 530.923C683.11 529.404 673.421 527.094 662.876 524.981C658.723 524.123 652.99 526.56 649.891 521.748C654.435 511.27 664.916 518.589 672.101 520.107C688.71 523.672 708.679 523.085 724.037 529.879L710.522 516.363C708.545 515.177 706.569 518.603 704.591 516.889C682.313 510.423 659.507 503.034 638.022 502.236C631.102 502.036 623.062 505.197 616.932 500.647C617.983 491.553 629.254 494.654 634.79 494.656C656.407 494.663 679.607 500.734 699.776 506.54C689.82 493.158 679.934 492.891 667.806 488.669C651.13 482.798 636.63 480.025 621.207 476.725C613.562 475.141 605.06 476.126 599.062 471.841C598.6 470.72 598.6 469.666 599.061 468.545C611.647 464.397 625.489 468.884 638.012 471.788C650.996 474.758 664.31 478.848 677.031 482.609C667.27 462.307 646.774 463.157 632.076 460.45C620.081 458.205 608.02 457.081 597.934 451.212C601.029 441.393 620.078 450.033 628.778 451.749C641.037 454.126 650.99 455.513 659.097 457.164C655.469 450.11 651.71 443.057 648.808 436.07C638.593 435.474 630.354 432.769 618.49 430.656C616.051 430.194 585.339 427.152 594.694 418.72C596.934 416.743 605.899 420.041 607.151 420.371C621.256 423.803 633.515 426.575 645.576 426.381C643.663 421.701 644.452 416.956 642.342 412.342C626.26 409.174 610.243 403.962 594.096 402.045L593.964 401.913ZM740.699 293.152C734.503 289.987 725.539 288.139 721.19 289.851C727.714 289.787 734.174 293.48 740.699 293.152ZM757.439 292.631C754.01 288.939 750.583 286.829 747.155 286.696C750.583 288.674 754.012 292.498 757.439 292.631ZM761.793 306.736C760.409 305.351 758.892 304.099 757.443 305.68C758.893 307.394 760.344 308.712 761.793 306.736ZM571.293 602.324C577.3 632.181 588.119 664.083 596.235 693.281C600.788 709.693 606.263 724.787 613.584 740.937C617.211 749.044 620.312 759.26 624.928 765.325C632.642 775.411 646.023 783.39 654.725 788.666C715.106 825.065 781.872 838.334 840.471 865.045C847.388 856.678 855.36 849.101 861.552 839.613C839.536 828.27 817.521 821.145 795.505 810.329C795.902 815.47 803.087 818.57 800.321 822.787C794.919 831.089 783.774 811.248 787.331 805.449C783.179 803.273 779.026 801.624 774.873 799.448C775.337 806.5 786.543 813.49 779.757 820.539C779.23 820.275 778.637 820.341 778.176 821.066C771.979 815.66 767.296 805.97 767.887 798.918C768.743 796.216 773.094 798.854 770.588 796.217C765.514 795.622 760.503 791.007 755.428 790.808C756.749 798.717 766.703 806.695 760.841 814.667C760.313 814.404 759.786 814.535 759.259 815.194C747.327 805.634 750.746 780.591 732.226 780.519C734.272 788.758 745.084 799.57 736.057 805.96C724.784 795.477 728.534 774.059 710.078 766.935C708.763 775.766 718.454 784.666 712.789 793.496C711.141 793.693 709.56 794.483 707.911 792.967C702.24 782.947 705.993 769.702 697.026 760.472C692.609 756.055 683.58 755.063 678.569 749.658C674.811 745.504 674.283 741.418 673.687 735.025C667.162 733.243 662.415 727.442 655.758 724.738C650.617 722.627 639.018 724.469 641.651 716.034C652.326 710.897 662.94 720.588 673.618 725.205C671.508 721.777 674.011 718.351 672.033 714.923C658.125 707.603 644.284 706.94 630.31 698.104C631.031 688.68 644.479 696.065 650.872 698.111C658.979 700.683 666.098 703.454 670.317 705.696C676.178 691.528 657.987 689.545 645.925 685.653C636.434 682.618 627.733 680.111 621.537 676.418C620.083 664.686 638.935 674.447 646.977 676.954C657.325 680.186 665.235 685.066 671.298 685.068C671.56 679.268 664.706 677.816 660.487 676.365C645.789 671.681 631.09 665.283 617.709 660.599C616.717 647.879 635.371 658.76 643.676 661.662C654.684 665.555 663.121 670.303 669.646 670.371C668.194 665.625 668.72 661.012 666.412 656.332C653.097 649.341 640.046 645.91 627.458 643.335C623.108 642.411 617.703 642.805 613.88 639.509C613.418 638.388 613.418 637.333 613.879 636.213C621.456 630.877 631.343 635.23 638.791 637.276C647.228 639.651 656.521 641.566 664.234 646.511C667.725 641.042 659.881 637.283 656.124 635.107C641.029 626.6 624.025 626.067 610.643 615.584C609.653 613.804 610.444 611.959 612.75 610.18C609.454 608.597 606.29 605.96 608.463 602.6C610.835 598.91 617.097 602.8 621.447 603.724C634.893 606.497 652.886 610.655 662.115 616.194C661.783 608.351 652.622 607.887 646.953 605.38C638.977 601.885 630.737 596.412 623.092 594.564C621.048 593.311 621.641 592.059 620.388 590.807C603.915 598.183 587.504 598.902 571.095 602.126L571.293 602.324ZM658.485 599.651C653.933 586.138 640.751 585.87 631.394 588.767C640.424 591.868 649.456 599.582 658.485 599.651ZM663.899 629.969C660.272 624.366 652.89 620.936 646.562 618.034C637.202 613.813 625.866 612.623 617.298 611.566C632.853 618.03 648.343 622.187 663.899 629.969ZM681.234 637.554C682.16 645.199 682.426 652.712 683.944 660.819C687.047 676.703 685.273 693.508 686.662 707.942C687.191 713.215 688.516 736.15 691.549 739.842C693.395 742.083 704.469 747.623 709.413 750.195C715.939 753.558 722.135 756.724 727.87 759.955C744.877 769.583 763.398 774.927 778.822 782.709C781.525 784.094 783.635 786.599 786.403 788.182C797.873 794.644 809.933 792.605 821.071 793.598C842.557 795.45 863.252 797.961 883.882 803.306C889.811 795.927 888.82 788.479 894.156 781.166C870.823 774.436 847.621 762.697 824.288 755.703C826.86 760.251 831.871 766.975 824.293 769.807C817.173 765.191 816.907 756.228 814.005 749.768C808.402 747.328 802.799 744.36 797.197 742.711C799.572 752.466 814.009 762.158 809.135 771.911C807.356 772.899 805.511 772.898 803.731 771.909C801.025 760.77 786.918 749.562 788.561 738.292C784.212 738.686 779.926 733.478 775.577 735.059C780.655 745.935 786.986 756.745 783.167 767.552C781.519 767.75 779.938 768.54 778.29 767.024C772.815 753.511 772.346 730.906 755.011 724.243C756.794 735.25 771.827 753.84 760.493 761.086C750.999 750.275 754.091 730.965 743.146 718.835C738.07 713.232 729.501 710.988 728.51 702.09C719.084 698.594 709.726 699.514 700.366 694.502C702.998 682.113 718.489 693.915 726.398 692.336C724.284 677.836 700.889 683.957 695.547 671.236C702.266 662.407 713.541 676.317 722.043 676.122C723.096 672.695 721.579 669.201 720.457 665.84C709.647 659.905 698.772 658.517 687.962 653.9C687.896 652.253 687.434 650.605 688.488 649.024C698.372 645.204 708.327 654.237 718.279 654.965C716.43 644.156 706.544 642.966 696.591 638.679C691.12 636.371 680.113 633.269 683.604 627.8C687.754 621.409 698.368 632.946 704.168 632.157C695.334 625.959 686.501 618.706 677.602 614.288C676.484 621.735 680.441 629.249 681.366 637.554L681.234 637.554ZM877.827 829.798C879.54 825.845 880.395 821.825 878.944 817.87C865.762 814.57 852.58 811.798 839.399 811.925C852.187 818.652 865.039 821.358 877.827 829.798Z" fill="#284253"/>
</g>
<defs>
<clipPath id="clip0_826_2512">
<rect width="741.007" height="904.006" fill="white" transform="translate(0 523.971) rotate(-45)"/>
</clipPath>
</defs>
</svg>
