<svg width="750" height="847" viewBox="0 0 750 847" fill="none" xmlns="http://www.w3.org/2000/svg">
<g clip-path="url(#clip0_826_2537)">
<path fill-rule="evenodd" clip-rule="evenodd" d="M504.087 332.84C503.481 333.393 503.453 333.972 503.811 334.434C498.777 339.919 492.655 338.21 487.336 342.186C484.64 340.701 483.629 338.958 482.955 337.164C488.605 332.333 484.752 328.897 484.736 324.99C488.309 319.729 495.696 326.764 493.897 330.834C497.091 330.288 501.701 328.088 504.039 332.905L504.087 332.84Z" fill="#284253"/>
<path fill-rule="evenodd" clip-rule="evenodd" d="M434.113 347.164C437.26 344.785 444.773 349.616 440.823 353.9C436.852 357.669 430.837 351.345 434.113 347.164Z" fill="#284253"/>
<path fill-rule="evenodd" clip-rule="evenodd" d="M440.976 354.911C446.023 360.924 449.218 372.164 459.545 371.275C462.7 373.897 460.463 377.344 461.933 380.224C467.958 385.857 473.354 387.332 479.002 390.09C477.418 404.707 453.654 385.918 453.384 378.427C443.302 376.001 430.494 360.481 440.976 354.911Z" fill="#284253"/>
<path fill-rule="evenodd" clip-rule="evenodd" d="M433.17 388.82C428.686 400.603 415.765 412.469 406.884 417.219C403.832 421.366 400.672 424.034 397.812 422.229C390.38 417.558 411.994 405.398 419.777 396.043C424.106 390.839 426.759 385.201 431.318 386.459C431.502 387.293 432.135 388.059 433.217 388.756L433.17 388.82Z" fill="#284253"/>
<path fill-rule="evenodd" clip-rule="evenodd" d="M388.352 428.85C395.222 429.812 390.212 438.11 386.388 436.395C382.807 434.758 382.88 428.02 388.352 428.85Z" fill="#284253"/>
<path fill-rule="evenodd" clip-rule="evenodd" d="M371.813 446.444C369.233 455.233 359.338 459.736 351.811 465.084C344.125 470.514 335.915 476.657 329.634 483.023C326.334 486.287 324.191 493.399 318.264 489.936C318.866 479.092 331.813 470.443 340.228 463.751C349.475 456.472 360.082 450.595 367.309 444.028C369.23 443.044 370.707 444.831 371.813 446.444Z" fill="#284253"/>
<path fill-rule="evenodd" clip-rule="evenodd" d="M700.273 220.328C710.754 230.339 702.925 249.648 689.398 258.271C688.068 268.479 689.992 279.684 681.869 290.586C680.009 293.113 676.052 294.695 674.114 297.464C669.826 303.697 669.997 314.71 660.975 323.852C657.341 327.57 650.915 329.933 644.5 331.604C639.12 347.721 624.405 354.571 612.333 348.483C598.603 355.757 582.126 345.628 565.983 336.943C563.434 343.657 568.141 351.217 566.695 359.142C565.328 366.826 560.991 378.816 555.761 389.85C547.752 406.829 540.808 426.29 529.788 444.649C520.608 459.967 508.795 467.754 497.417 477.658C489.948 484.148 479.133 488.274 474.076 494.74C470.608 499.18 467.814 509.209 464.952 516.891C456.444 539.696 436.319 574.627 413.122 599.506C409.41 603.466 402.903 603.771 399.147 606.3C396.797 607.867 394.961 611.31 391.974 613.607C389.658 615.399 386.257 616.091 384.343 617.879C378.648 623.177 372.97 632.382 366.241 638.816C359.909 644.844 350.259 649.827 347.803 654.113C346.028 657.202 347.528 661.802 346.451 665.704C343.64 675.621 327.781 697.71 318.184 705.33C307.246 713.96 291.635 725.144 281.891 736.351C280.569 737.876 276.57 744.122 274.166 746.847C264.04 758.573 249.306 776.695 238.144 793.351C234.111 799.373 228.698 809.572 221.852 805.732C212.922 800.658 221.297 792.938 224.431 785.157C213.599 779.281 193.941 784.99 181.438 771.493C178.487 768.322 176.113 760.981 178.286 757.486C185.5 745.516 216.301 757.997 224.764 749.343C229.801 744.26 233.654 735.909 237.381 729.762C248.959 710.915 268.305 684.9 283.015 667.759C286.884 663.315 293.573 657.75 295.814 652.807C297.504 649.156 295.595 643.756 297.013 640.205C297.895 638.057 300.592 635.747 302.163 633.207C304.145 629.972 305.042 625.637 306.854 623.175C316.357 609.993 329.37 597.596 339.013 581.919C336.654 580.383 334.744 578.777 333.621 577.052C322.736 588.318 311.089 596.827 298.186 606.907C294.433 609.839 288.893 612.353 286.539 615.416C283.518 619.385 283.435 624.917 281.295 628.637C258.476 668.177 223.336 690.858 195.617 717.003C191.178 726.421 170.187 763.612 160.271 757.712C155.15 754.642 155.401 747.935 160.047 742.164C145.424 736.696 128.748 733.612 113.008 719.23C104.603 711.546 96.901 699.385 111.924 694.96C117.488 693.362 125.85 695.82 133.456 696.324C146.177 697.196 166.166 700.521 176.625 690.24C191.181 675.882 202.303 654.402 217.214 636.31C242.517 605.589 270.029 564.009 291.344 533.151C290.91 527.238 284.939 524.241 283.564 519.334C280.469 508.366 292.891 490.539 300.63 477.857C314.538 455.031 333.555 439.761 351.515 427.01C371.457 412.92 389.722 407.884 406.969 378.626C415.655 363.843 416.52 351.694 420.695 335.589C399.207 335.656 375.593 350.939 348.691 325.845C346.091 310.547 356.265 294.961 364.029 279.4C371.745 263.903 376.346 246.813 385.004 232.61C381.168 231.184 377.569 231.332 373.698 229.682C366.483 241.652 358.416 247.601 349.498 247.929C326.698 279.992 301.152 302.643 277.119 335.297C260.239 358.232 239.947 378.757 221.954 399.275C202.687 421.253 185.585 444.625 166.819 466.871C158.048 477.297 148.24 488.456 139.275 500.637C130.31 512.817 118.258 522.825 112.16 533.819C110.481 536.778 110.537 541.715 109.215 545.136C107.076 550.753 103.721 555.176 101.626 560.326C96.1776 574.096 91.8566 588.096 86.03 604.684C82.2308 615.672 78.1028 633.609 71.5105 648.934C70.4373 651.341 66.4856 659.42 61.4571 657.716C51.7711 654.483 57.5112 643.026 60.3152 636.1C69.9061 612.095 74.4675 590.181 84.082 567.092C71.8625 578.275 57.0335 594.629 43.8324 609.585C37.8926 616.301 32.1355 627.645 24.3536 621.419C16.7657 615.335 28.7091 605.746 34.4888 599.112C43.3407 588.847 51.7261 578.537 54.3077 575.843C108.538 519.367 155 454.477 210.901 390.041C230.229 367.709 249.523 347.049 267.353 324.314C285.82 300.848 305.853 280.133 323.377 259.169C327.61 254.094 335.396 245.142 336.728 241.028C338.265 236.366 333.891 230.25 335.445 225.7C337.343 220.005 345.071 211.809 347.662 210.32C342.925 201.04 343.517 190.888 346.244 180.409C368.425 147.291 396.317 136.356 426.568 125.059C434.131 122.235 445.913 118.421 450.675 122.925C452.295 124.517 452.784 129.272 452.328 130.434C449.728 136.811 441.809 135.378 436.712 137.02C420.568 142.019 391.283 153.627 375.9 167.076C353.256 186.869 352.834 209.932 383.994 217.183C385.956 213.433 384.905 210.661 386.08 207.032C386.895 204.435 389.653 201.771 389.913 198.166C390.333 192.582 385.313 185.991 387.436 178.364C388.997 172.72 394.62 164.673 399.623 159.366C410.379 148.004 432.656 138.33 448.206 137.389C458.053 136.746 475.229 143.893 480.075 152.754C486.749 164.957 470.965 186.403 457.188 189.947C455.226 193.697 459.846 196.498 457.706 200.217C464.217 200.314 469.741 205.679 469.872 211.868C456.978 226.949 441.081 222.941 426.946 229.817C420.048 241.222 411.101 251.617 405.194 264.25C400.85 273.539 401.896 285.395 398.152 293.327C409.157 292.737 418.226 285.428 428.39 280.423C438.123 275.6 448.482 268.841 458.258 265.449C465.086 263.082 472.494 264.939 478.961 261.707C475.337 251.05 472.099 240.276 480.546 227.715C478.796 214.241 474.776 196.399 491.449 183.5C490.873 160.302 514.57 139.486 534.151 140.114C542.241 99.7216 597.746 90.8302 614.1 127.139C628.532 119.182 662.761 130.391 669.889 152.817C670.399 154.291 670.554 161.397 671.265 161.921C672.171 162.587 682.583 160.362 685.147 161.35C700.961 167.096 713.519 191.221 709.456 205.412C708.144 210.04 703.55 216.147 700.273 220.328ZM628.594 140.504C631.775 140.247 633.963 144.455 634.139 146.383C643.991 142.346 650.688 155.466 644.465 162.972C648.473 161.727 652.675 162.522 657.06 164.151C660.079 154.087 636.212 136.521 628.594 140.504ZM679.491 175.267C673.352 177.241 667.719 182.185 661.012 179.646C658.122 178.018 658.378 175.909 657.061 174.04C656.927 177.338 650.164 181.65 651.94 184.655C659.796 182.246 667.631 181.221 674.742 187.953C676.345 189.432 676.004 192.877 677.835 194.724C681.222 198.116 692.025 200.373 693.035 205.911C698.935 194.372 690.64 182.474 679.604 175.25L679.491 175.267ZM629.124 158.074C631.31 159.982 633.121 159.418 635.375 161.775C637.235 159.249 638.195 156.859 638.931 154.504C635.115 151.696 632.261 156.387 629.124 158.074ZM600.442 143.257C598.85 139.188 599.777 134.677 600.047 130.381C596.481 122.762 586.451 118.776 579.791 119.967C587.608 124.521 590.528 129.767 589.964 135.545C599.507 140.87 593.774 151.234 600.749 155.169C599.524 152.769 603.468 149.579 605.164 146.732L600.507 143.305L600.442 143.257ZM624.255 146.4C618.291 142.31 611.18 149.262 608.669 156.603C613.324 153.936 624.079 156.258 624.255 146.4ZM634.376 179.12C637.651 182.529 640.242 181.04 642.925 180.917C644.455 177.348 650.833 173.153 649.057 170.147C643.755 170.441 638.539 171.296 634.376 179.12ZM634.167 222.216C634.044 226.72 634.594 231.12 629.077 236.449C632.42 236.512 640.472 238.443 645.811 240.674C647.446 238.182 646.094 236.089 647.345 233.713C643.1 229.59 639.606 230.814 635.426 226.738C635.365 225.195 635.304 223.652 637.266 221.8C642.237 220.465 647.923 223.85 652.894 222.514C652.964 217.272 656.954 217.811 660.067 215.208C659.019 209.043 652.587 212.5 649.036 210.685C644.527 201.773 657.25 203.047 661.742 201.958C663.398 198.082 665.693 195.776 668.761 193.639C665.48 191.324 662.504 191.032 659.477 190.402C652.762 192.752 647.305 203.418 640.304 204.259C651.198 209.78 640.6 220.658 634.184 222.329L634.167 222.216ZM555.222 146.033C557.652 148.421 559.539 147.213 561.901 149.151C563.964 151.768 560.936 154.934 561.961 156.387C569.812 157.371 580.222 166.531 581.112 173.179C586.161 173.499 592.142 179.599 596.835 177.559C590.064 173.075 598.397 166.223 593.376 161.529C589.425 167.711 586.217 170.444 582.005 168.443C572.841 164.095 581.826 152.429 589.566 149.635C588.494 148.247 589.444 146.549 588.372 145.161C583.632 159.052 566.279 153.772 569.986 143.315C572.201 137.054 579.301 134.589 582.233 131.553C573.261 119.356 557.509 134.932 555.399 146.064L555.222 146.033ZM604.13 167.646C605.559 171.395 605.191 175.419 604.372 179.511C606.953 180.611 609.398 180.812 612.216 183.486C615.725 176.28 624.577 179.698 629.672 171.962C629.693 170.579 628.703 169.35 630.072 167.761C620.234 159.721 611.861 161.749 604.066 167.599L604.13 167.646ZM666.705 207.408C666.459 210.723 667.561 213.832 667.652 217.095C673.567 215.156 680.042 216.925 685.138 209.189C679.778 200.349 671.575 201.604 666.688 207.296L666.705 207.408ZM556.667 128.218C557.634 126.633 561.404 125.712 560.682 123.982C559.63 125.005 555.928 126.376 556.667 128.218ZM637.805 191.532C640.269 194.145 641.816 190.688 644.179 192.627C644.475 191.547 647.131 190.105 645.742 189.283C642.961 189.133 640.386 190.735 637.805 191.532ZM616.015 188.08C617.056 189.645 614.277 191.795 616.78 193.138C620.608 187.665 625.912 191.568 629.791 186.433C626.643 182.717 620.149 186.528 616.063 188.015L616.015 188.08ZM689.314 230.341C684.439 227.752 680.241 225.462 677.824 222.784C676.781 226.911 675.129 231.188 670.94 235.796C677.463 237.501 678.864 243.726 677.985 248.173C683.658 246.155 692.642 236.387 689.314 230.341ZM624.841 198.172C626.526 199.811 625.289 201.898 627.199 203.503C630.27 203.666 634.874 200.662 631.92 197.089C629.492 197 627.048 196.799 624.841 198.172ZM662.655 225.104C659.753 227.963 656.712 229.52 653.583 230.114C657.172 230.657 660.512 230.319 664.155 231.602C664.911 229.761 668.3 227.46 667.435 225.925C665.927 226.213 664.333 225.94 662.655 225.104ZM604.802 188.817C606.273 189.8 605.946 191.057 606.855 192.126C609.552 189.816 606.658 187.786 604.802 188.817ZM625.454 212.107C626.506 212.981 624.364 214.401 624.901 215.296C629.388 217.6 633.076 214.621 636.731 211.417C632.683 209.737 629.029 211.043 625.454 212.107ZM609.09 200.063C608.823 204.761 613.985 203.167 617.21 202.444C614.231 199.852 611.541 199.171 609.09 200.063ZM563.249 164.527C562.064 166.95 563.977 168.958 560.704 171.643C563.594 173.271 561.99 175.586 562.633 177.558C565.698 175.019 569.422 176.462 572.134 171.965C571.144 168.839 566.667 165.844 563.249 164.527ZM653.825 241.978C653.886 243.521 653.385 245.15 655.019 246.453C660.229 246.691 665.826 249.112 670.189 244.133C664.054 238.919 658.875 240.401 653.825 241.978ZM610.343 211.773C612.896 213.453 610.056 215.957 613.283 217.533C614.822 217.068 618.725 212.849 616.993 211.274C614.861 212.002 612.325 210.435 610.343 211.773ZM578.691 187.578C564.326 186.096 529.253 224.808 533.045 242.282C534.514 248.956 540.189 253.033 546.252 257.396C557.402 258.91 568.181 248.465 579.189 238.387C583.575 234.324 588.581 231.316 590.529 227.855C592.873 223.587 590.525 217.564 595.926 215.646C595.053 205.315 594.938 189.348 578.708 187.691L578.691 187.578ZM532.298 155.231C521.968 155.719 508.588 164.55 506.259 178.418C507.933 180.749 510.282 182.977 510.945 185.463C517.097 173.31 528.333 161.702 539.713 159.789C537.255 157.981 534.923 157.762 532.298 155.231ZM608.286 225.542L606.999 227.291C614.117 232.93 623.364 235.54 626.366 225.364C619.813 221.939 614.636 227.618 608.286 225.542ZM661.878 281.167C664.08 283.187 666.011 283.409 667.975 283.856C673.52 276.051 676.883 268.637 672.043 262.478C669.906 268.497 667.433 274.567 661.878 281.167ZM530.7 172.035C548.594 178.612 533.27 201.195 520.905 182.905C518.323 185.599 518.646 187.735 519.371 189.866C526.394 193.737 534.978 193.861 538.034 200.006C544.131 190.909 550.642 185.314 557.3 179.926C546.661 176.091 540.706 161.42 530.7 172.035ZM651.981 263.994C655.786 269.392 647.648 272.591 646.002 275.775C647.306 277.933 651.964 277.566 654.705 278.584C658.863 272.256 663.632 265.777 663.858 260.05C657.496 252.571 656.63 260.523 652.029 263.929L651.981 263.994ZM631.296 254.163C634.574 256.077 630.052 259.241 630.344 261.554C632.019 260.09 634.511 264.021 636.135 262.22C635.175 260.815 635.676 259.186 635.953 257.591C638.827 255.311 646.788 252.081 646.159 249.82C641.578 253.741 636.049 251.769 631.296 254.163ZM603.442 234.562C601.072 237.512 598.967 241.456 596.423 242.88C607.227 253.13 621.633 240.06 603.442 234.562ZM610.029 253.794C610.891 264.816 600.449 263.423 595.483 267.46C592.769 269.658 590.94 273.905 589.781 277.647C597.986 268.802 597.764 282.923 599.983 286.953C610.627 283.6 602.306 268.486 612.017 266.944C619.105 270.862 610.935 279.931 617.928 282.081C621.26 272.947 612.359 263.499 618.561 255.479C615.071 255.207 614.333 251.468 610.012 253.681L610.029 253.794ZM627.341 275.525C630.838 274.702 634.725 276.465 638.035 274.406C632.994 271.095 624.959 269.277 626.452 263.184C622.556 264.412 626.313 271.772 627.276 275.477L627.341 275.525ZM634.203 283.272C635.602 285.3 633.629 287.844 631.657 290.388C638.026 298.671 647.441 296.311 651.178 289.473C643.952 290.348 639.77 282.076 634.138 283.224L634.203 283.272ZM495.848 198.524C490.317 206.039 492.316 214.703 496.437 223.329L499.871 218.664C496.46 214.356 495.355 210.846 497.606 207.109C499.303 204.262 502.472 204.697 505.085 201.826C507.108 199.619 508.301 192.307 512.38 191.913C511.39 190.684 511.411 189.301 510.757 188.021C508.409 195.682 500.283 192.498 495.753 198.653L495.848 198.524ZM513.011 202.166C517.859 205.334 525.56 207.606 527.629 212.924C529.199 210.384 533.34 207.739 533.055 204.332C527.092 208.234 518.58 195.277 513.076 202.213L513.011 202.166ZM588.668 249.759C587.993 251.759 586.73 250.63 585.94 252.246C591.945 255.467 598.386 262.704 601.51 255.614C597.152 253.406 593.315 253.878 588.668 249.759ZM639.437 304.205C636.788 306.45 636.453 310.699 634.011 312.797C629.015 317.011 624.576 314.642 618.26 314.688C622.958 317.247 623.049 320.511 623.252 323.757C630.179 319.765 632.242 308.698 642.914 316.552C650.221 315.837 657.268 305.043 658.717 297.519L656.971 296.234C653.759 302.36 644.321 300.008 639.485 304.14L639.437 304.205ZM419.279 163.144C423.582 164.614 426.307 161.725 429.85 164.632C433.847 167.873 433.991 177.568 429.846 181.71C424.809 186.792 415.068 184.717 409.955 180.554C408.3 182.532 407.319 184.407 407.686 186.076C426.028 184.593 455.014 183.552 465.923 159.518C447.963 144.901 433.891 155.62 419.262 163.032L419.279 163.144ZM576.69 261.02C580.265 261.853 584.418 266.508 587.721 265.542C582.992 265.058 580.511 258.538 576.69 261.02ZM621.367 295.699C619.634 294.125 622.413 290.077 619.008 290.368C618.749 293.972 619.23 301.718 619.433 306.862C623.801 308.379 627.965 308.547 631.416 303.994C629.864 300.954 624.492 298.499 621.367 295.699ZM504.343 211.368C506.923 216.264 512.61 213.956 516.232 214.725C511.912 211.246 507.626 207.991 504.343 211.368ZM596.113 293.295C594.696 296.846 590.368 298.255 590.534 300.875C597.317 300.872 595.939 309.248 592.523 314.025C594.524 315.099 593.83 316.585 596.168 317.607C598.882 317.307 601.168 313.795 604.259 316.37L608.979 309.956C601.136 304.083 607.792 294.498 611.454 288.304L610.289 287.447C606.243 293.758 601.707 297.211 596.161 293.23L596.113 293.295ZM504.309 224.828C504.74 232.236 513.899 230.088 518.403 232.504C518.976 229.829 520.897 226.948 519.784 224.531C514.918 226.942 508.655 219.736 504.309 224.828ZM583.824 284.25C587.266 286.483 584.191 289.713 586.059 292.187C592.669 288.762 588.888 282.383 589.127 278.264C587.431 281.111 585.561 282.432 583.824 284.25ZM576.38 276.074C577.769 276.896 581.695 277.388 580.854 274.872C579.533 276.397 577.548 273.538 576.38 276.074ZM558.482 270.992C560.903 272.174 558.444 274.16 558.665 275.621C554.544 276.883 550.322 277.472 547.018 284.129C550.627 285.187 550.697 287.936 552.134 290.591C554.613 287.222 558.548 292.715 560.254 292.972C559.438 287.577 558.571 283.742 562.511 280.15C563.676 279.109 566.716 279.449 567.414 278.365C568.607 276.745 565.724 272.126 568.948 271.403C565.997 270.13 567.138 268.173 566.161 266.655C563.804 269.315 560.856 268.444 558.53 270.927L558.482 270.992ZM570.43 281.583C569.714 286.35 569.784 290.997 569.967 295.626C576.708 298.39 577.858 287.749 577.587 284.054C575.404 284.445 572.97 283.552 570.478 281.519L570.43 281.583ZM505.957 239.525C510.556 243.709 514.475 243.397 518.428 243.31C516.065 241.371 509.77 240.034 505.957 239.525ZM614.796 331.317C616.773 337.167 626.725 337.6 628.096 330.318C624.037 333.124 618.838 328.399 614.796 331.317ZM511.779 253.698C513.484 253.955 519.682 253.122 517.388 249.736C515.977 252.194 511.354 250.889 511.779 253.698ZM580.909 299.185C581.49 303.408 581.013 307.851 578.27 312.525C579.551 311.869 580.899 311.663 582.316 311.906C581.772 308.31 584.503 304.327 586.272 300.434C584.722 301.591 582.595 298.927 580.909 299.185ZM490.758 238.227C488.581 243.217 488.154 247.997 491.306 252.115C498.187 252.385 507.981 258.994 500.315 266.836L503.807 269.407C506.028 265.847 511.32 264.348 511.838 260.934C505.481 261.849 499.405 253.981 504.793 248.557C498.768 244.822 495.888 240.605 497.166 235.752C495.273 238.054 492.818 236.647 490.822 238.275L490.758 238.227ZM430.424 199.215C422.034 201.131 408.939 197.786 404.294 201.659C400.16 205.109 400.635 212.05 397.868 217.706C403.98 218.208 410.156 218.759 415.795 216.516C421.562 206.377 438.3 207.21 442.294 196.365C437.609 195.414 435.862 197.923 430.311 199.232L430.424 199.215ZM529.46 267.611C517.265 275.915 493.054 296.752 482.467 316.828C477.64 325.96 475.743 341.545 483.886 346.739C490.817 351.141 502.515 342.97 509.098 338.226C518.156 331.608 525.526 324.846 531.551 318.693C514.598 307.314 523.128 291.118 537.674 273.656L529.525 267.658L529.46 267.611ZM564.576 300.648C562.723 302.081 560.67 302.567 558.814 303.599C562.674 305.941 562.653 311.119 567.27 311.62C568.935 308.95 570.264 306.332 570.244 303.921C568.644 304.74 566.414 301.401 564.576 300.648ZM588.966 321.296C588.302 320.707 587.189 320.188 587.649 319.427C582.539 317.564 578.431 322.332 573.032 318.558C571.113 327.534 579.585 325.778 586.056 329.043C591.463 331.723 594.379 336.567 598.986 335.862C596.968 332.779 601.767 328.02 600.644 326.295C597.01 339.902 579.836 327.062 589.031 321.343L588.966 321.296ZM547.719 299.029C544.582 300.716 541.627 299.04 539.017 296.22C535.542 301.753 539.035 306.221 545.785 310.191C548.53 307.816 548.133 302.53 547.719 299.029ZM403.403 408.265C386.36 427.085 361.391 433.779 342.128 452.364C324.524 469.373 312.579 484.654 299.24 508.197C302.89 518.276 308.225 535.686 316.04 544.035C320.693 548.958 328.741 554.282 335.621 560.245C350.531 573.316 365.292 581.983 377.48 586.558C385.944 589.691 390.066 594.523 396.083 589.463C389.316 583.483 372.825 587.327 374.939 576.597C382.369 575.174 393.063 577.85 399.946 584.215C401.839 581.913 404.124 582.196 405.984 579.669C395.761 573.643 386.934 577.235 376.626 570.647C376.281 561.903 389.017 566.682 394.894 567.911C402.364 569.413 408.876 571.809 412.945 574.005C414.702 570.803 419.157 567.19 419.229 564.246C409.325 563.749 399.525 564.328 389.043 560.009C385.375 549.818 400.335 555.234 406.511 555.785C414.601 556.445 420.416 556.13 424.532 558.261L430.97 549.514C422.377 546.286 403.284 552.311 402.899 538.743C397.121 539.684 389.749 540.352 385.801 535.149C379.14 526.451 394.706 517.63 400.381 508.023C395.918 502.841 396.788 497.188 402.561 491.648C414.249 480.374 441.911 476.66 453.413 464.15C450.308 461.865 443.756 466.431 438.643 462.269C438.773 460.466 436.56 459.137 438.889 457.056C449.742 453.557 462.154 459.995 471.915 448.901C463.298 446.654 456.092 453.735 446.815 447.507C447.536 437.45 466.891 443.804 473.191 439.851C473.845 437.336 476.747 434.477 475.154 432.306C468.228 434.4 461.54 438.068 453.699 434.495C454.544 421.832 476.387 431.715 478.94 419.71C477.385 416.269 472.675 421.991 469.38 418.068C468.982 416.576 468.022 415.171 469.197 413.439C474.745 407.933 482.196 415.015 487.265 405.961C481.893 403.505 477.714 409.319 471.913 403.651C472.21 402.571 472.169 401.542 472.466 400.462C480.373 394.595 490.317 401.814 497.677 391.949C495.121 389.868 489.049 394.188 484.501 390.342C485.247 389.193 482.847 388.525 484.042 387.307C490.765 381.967 500.281 382.179 506.403 383.887C510.05 381.777 513.422 377.467 516.933 374.457C513.12 372.051 506.101 378.471 500.447 374.909C500.723 373.314 498.527 372.098 500.264 370.28C507.813 367.745 514.971 362.626 523.942 368.728C525.859 365.445 528.236 365.197 530.256 362.588C529.936 360.854 525.073 363.668 524.158 359.898C528.254 347.83 543.408 353.389 550.81 340.758C550.273 336.068 549.516 326.122 546.922 325.311C531.491 338.826 514.411 357.019 497.447 361.914C489.687 364.193 478.332 363.227 470.418 354.606C453.276 335.896 470.588 302.89 492.255 279.683C488.671 277.644 485.137 275.942 481.807 275.589C476.504 279.677 468.825 285.911 465.85 293.611C467.339 290.911 469.389 291.92 471.489 293.266C472.43 302.149 458.686 309.713 453.14 319.415C449.86 325.092 448.87 335.65 441.199 333.201C437.723 332.64 441.211 326.817 438.565 329.464C429.447 356.214 428.892 380.678 403.839 408.485L403.403 408.265ZM396.247 233.593C398.165 242.096 391.316 251.538 386.6 262.551C378.574 281.315 368.783 300.579 362.803 318.052C386.211 334.481 404.469 316.855 425.922 320.358C432.431 308.669 444.566 295.026 451.137 284.879C431.867 290.873 409.938 313.489 389.408 308.866C375.544 305.755 382.354 291.489 384.832 282.026C389.29 265.13 392.739 250.688 405.072 233.795C405.358 233.407 405.532 233.035 404.919 232.784C402.08 233.391 399.019 232.536 396.247 233.593ZM350.262 231.311C354.184 233.299 356.525 224.834 359.733 222.101L357.987 220.815C355.364 222.481 347.655 226.995 350.262 231.311ZM523 389.111C519.791 393.741 518.673 400.41 515.716 406.324C512.681 412.48 508.229 418.393 505.398 424.001C500.939 432.905 495.379 446.692 485.362 456.101C480.928 460.229 473.103 462.46 467.753 466.614C459.049 473.292 450.892 482.071 442.848 487.039C440.802 488.329 437.89 488.085 435.922 489.133C429.33 492.671 424.479 498.99 416.873 500.384C420.766 506.745 413.92 514.692 407.749 522.535C415.75 522.231 425.931 519.237 432.437 510.94C433.98 508.979 434.522 506.481 436.146 504.68C447.709 491.815 467.544 484.239 478.419 471.767C480.616 471.086 479.839 472.412 482.035 471.731C518.02 448.174 536.426 401.489 548.474 365.609C541.86 374.325 529.703 379.461 523.017 389.223L523 389.111ZM440.786 325.905C442.789 323.183 445.353 320.376 444.772 318.051C442.656 320.789 441.055 323.506 440.786 325.905ZM419.039 535.24C415.321 536.499 409.978 537.661 409.814 539.238C418.759 540.227 427.921 542.276 436.556 540.84C437.874 537.016 441.103 532.9 440.512 529.369C433.351 530.291 426.156 532.887 419.104 535.287L419.039 535.24ZM299.188 548.913C293.724 560.673 282.233 572.492 275.384 580.037C268.041 588.117 264.3 598.348 258.352 608.055C253.055 616.742 245.664 626.784 238.134 635.525C219.698 656.916 203.726 682.817 187.443 698.302C183.169 702.348 176.461 703.604 173.45 708.779C163.347 711.531 152.873 712.213 142.264 711.996C150.342 719.04 161.993 718.926 166.901 727.432C180.619 714.755 191.432 704.534 204.558 692.12C224.477 673.319 250.642 651.724 267.63 622.275C269.912 618.361 270.367 613.002 272.874 609.054C278.538 600.138 289.435 594.274 297.196 588.2C305.979 581.279 314.97 576.11 321.519 567.346C313.571 560.397 306.944 551.924 299.028 548.995L299.188 548.913ZM351.156 590.757C340.211 610.369 318.763 627.046 313.324 645.817C312.496 648.703 313.646 651.747 312.525 654.219C308.832 662.488 298.782 671.672 292.859 678.5C276.78 697.23 257.453 725.657 247.531 742.526C243.062 750.224 235.722 756.809 232.033 763.583C240.415 768.453 244.18 757.24 248.049 752.796C255.692 744.038 264.891 733.029 272.742 724.124C292.043 702.371 318.351 692.368 331.828 662.133C325.124 650.107 338.064 644.448 346.837 634.424C357.188 622.664 368.243 610.624 375.851 603.539C366.513 597.665 360.94 598.057 351.091 590.709L351.156 590.757Z" fill="#284253"/>
</g>
<defs>
<clipPath id="clip0_826_2537">
<rect width="343.806" height="797.697" fill="white" transform="translate(472.842 -6.10352e-05) rotate(36.353)"/>
</clipPath>
</defs>
</svg>
