<svg width="682" height="220" viewBox="0 0 682 220" fill="none" xmlns="http://www.w3.org/2000/svg">
<rect width="682" height="220" fill="black"/>
<path d="M121.051 113.369C120.074 110.963 121.619 108.254 124.313 107.025C127.19 105.711 130.855 106.643 133.06 108.475C135.595 110.58 135.968 113.727 134.82 116.44C133.58 119.371 130.428 121.465 126.909 122.387C123.256 123.338 119.127 123.162 115.682 121.727C112.231 120.287 109.641 117.624 109.085 114.422C108.468 110.857 111.046 107.66 113.171 104.755C115.572 101.467 118.015 98.1844 120.068 94.7355C123.983 88.1551 126.53 80.618 124.337 73.3125C124.099 72.512 123.794 71.7266 123.433 70.9562C123.043 70.1305 122.67 69.2142 121.821 68.6302C120.19 67.5074 117.447 68.0965 115.725 68.7661C111.95 70.2262 109.83 73.524 109.549 76.852C109.231 80.6482 111.131 84.2884 113.263 87.5559C114.362 89.2426 115.547 90.889 116.58 92.6008C117.594 94.2874 118.443 96.0345 119.182 97.8168C120.66 101.376 121.699 105.052 122.615 108.737C123.592 112.654 124.551 116.587 125.144 120.559C126.237 127.885 126.231 135.905 122.279 142.702C121.558 143.935 120.654 145.219 119.268 146.025C117.508 147.047 115.273 146.901 113.239 146.76C112.481 146.71 111.54 146.629 110.954 146.186C110.722 146.01 110.532 145.783 110.502 145.516C110.49 145.406 110.63 145.28 110.618 145.29C111.669 144.54 114.051 145.104 115.334 145.38C117.343 145.818 119.213 146.518 120.96 147.455C122.615 148.341 124.148 146.161 122.499 145.28C120.514 144.217 118.308 143.412 116.018 142.928C114.088 142.521 111.827 142.148 109.909 142.777C107.747 143.487 106.837 145.446 108.016 147.148C109.274 148.96 111.87 149.222 114.155 149.328C116.537 149.444 118.999 149.287 120.996 148.094C122.713 147.067 123.953 145.617 124.869 144.061C126.982 140.472 128.076 136.514 128.552 132.562C129.56 124.159 127.502 115.7 125.425 107.509C124.417 103.531 123.25 99.5639 121.522 95.7526C120.66 93.8595 119.671 92.0067 118.522 90.2193C117.374 88.427 116.103 86.69 115.01 84.8724C113.104 81.7156 111.424 77.5468 113.44 74.1382C114.228 72.809 115.462 71.6813 117.081 71.0267C117.832 70.7196 118.675 70.5585 119.512 70.5635C119.585 70.5635 119.97 70.5988 119.884 70.5585C119.817 70.5283 120.055 70.7951 120.104 70.8707C120.33 71.2432 120.514 71.641 120.685 72.0337C123.934 79.3845 121.173 87.3747 117.068 94.081C114.845 97.7161 112.212 101.165 109.69 104.659C107.252 108.032 105.249 111.617 106.275 115.625C108.242 123.263 118.669 126.943 127.276 124.924C131.393 123.957 135.21 121.707 137.086 118.475C138.912 115.333 139.114 111.431 136.848 108.395C134.777 105.616 130.788 103.708 126.793 103.914C122.786 104.12 119.451 106.396 118.168 109.498C117.563 110.953 117.527 112.584 118.119 114.039C118.724 115.569 121.674 114.91 121.051 113.369Z" fill="white"/>
<path d="M111.155 146.634C111.259 146.629 111.356 146.634 111.46 146.639C111.301 146.619 111.32 146.624 111.503 146.655C111.649 146.69 111.796 146.715 111.943 146.755C112.285 146.846 112.615 146.957 112.951 147.057C113.653 147.269 114.38 147.425 115.113 147.531C116.756 147.762 118.357 147.757 120 147.546C120.794 147.445 121.301 146.594 121.069 145.995C120.788 145.285 120.036 145.008 119.187 145.114C119.004 145.139 118.986 145.139 119.132 145.124C119.028 145.134 118.925 145.144 118.827 145.154C118.674 145.164 118.521 145.174 118.363 145.184C118.002 145.205 117.642 145.21 117.281 145.2C116.921 145.189 116.561 145.169 116.2 145.139C115.876 145.114 116.347 145.169 115.993 145.114C115.815 145.089 115.638 145.064 115.461 145.033C114.013 144.787 112.651 144.117 111.149 144.122C110.348 144.122 109.585 144.701 109.621 145.381C109.664 146.055 110.3 146.634 111.155 146.634Z" fill="white"/>
<path d="M126.948 136.414C131.364 136.197 135.738 135.497 139.91 134.274C143.483 133.227 147.344 131.857 149.286 128.992C150.252 127.563 147.735 126.384 146.648 127.724C142.677 132.607 140.472 138.433 140.362 144.308C140.338 145.497 140.57 146.77 140.191 147.933C139.825 149.061 138.536 149.338 137.241 149.429C135.726 149.529 134.162 149.343 132.788 148.799C132.177 148.558 131.529 148.276 131.041 147.883C130.839 147.717 130.094 146.977 130.35 146.79C130.204 146.901 130.613 146.851 130.576 146.846C130.943 146.871 131.395 146.78 131.768 146.77C132.824 146.73 133.881 146.705 134.932 146.77C136.526 146.876 138.383 147.329 139.379 148.437C139.867 148.981 140.704 149.257 141.468 148.89C142.121 148.573 142.506 147.717 142.017 147.168C140.777 145.783 139.018 144.887 136.99 144.5C134.822 144.087 132.299 144.072 130.1 144.369C127.907 144.666 126.765 146.357 127.577 148.049C128.353 149.665 130.179 150.637 132.055 151.271C135.329 152.379 141.065 152.555 142.787 149.398C143.587 147.928 143.416 146.317 143.416 144.751C143.416 143.05 143.6 141.353 143.978 139.686C144.858 135.86 146.66 132.24 149.286 129.003C148.407 128.58 147.527 128.157 146.648 127.734C145.029 130.12 141.529 131.173 138.56 132.013C134.81 133.071 130.906 133.71 126.954 133.906C124.993 133.992 124.981 136.509 126.948 136.414Z" fill="white"/>
<path d="M132.175 148.361C132.34 148.326 132.505 148.301 132.67 148.271C132.78 148.256 132.768 148.256 132.621 148.276C132.719 148.266 132.811 148.261 132.908 148.261C133.196 148.251 133.489 148.256 133.776 148.276C133.849 148.281 134.222 148.316 133.953 148.286C134.124 148.306 134.295 148.331 134.46 148.356C134.771 148.407 135.083 148.462 135.395 148.523C136.683 148.764 137.966 149.016 139.255 149.263C139.255 148.452 139.255 147.646 139.255 146.836C138.76 146.896 139.554 146.811 139.053 146.856C138.925 146.866 138.803 146.881 138.675 146.891C138.394 146.916 138.119 146.932 137.838 146.947C137.282 146.977 136.72 146.987 136.164 146.977C135.602 146.972 135.046 146.947 134.49 146.901C134.24 146.881 133.983 146.861 133.733 146.831C134.026 146.861 133.544 146.806 133.538 146.806C133.385 146.786 133.238 146.765 133.086 146.745C132.304 146.634 131.4 146.916 131.204 147.626C131.033 148.241 131.43 149.056 132.273 149.177C134.875 149.55 137.453 149.575 140.067 149.268C140.697 149.192 141.216 148.553 141.191 148.054C141.161 147.516 140.739 146.972 140.067 146.841C138.687 146.574 137.306 146.297 135.92 146.045C134.417 145.774 132.872 145.602 131.363 145.94C130.593 146.111 130.044 146.841 130.294 147.49C130.551 148.135 131.345 148.548 132.175 148.361Z" fill="white"/>
<path d="M119.126 94.6707C126.089 103.965 132.595 113.571 141.061 122.02C143.443 124.396 145.978 126.662 148.684 128.781C149.399 129.34 150.48 128.449 149.766 127.89C140.175 120.388 133.059 111.134 126.242 101.88C124.312 99.2624 122.4 96.6393 120.445 94.0313C119.926 93.3465 118.607 93.9759 119.126 94.6707Z" fill="white"/>
<path d="M119.049 95.8682C122.225 100.586 124.43 105.681 127.204 110.555C129.922 115.328 133.013 119.95 136.458 124.39C138.406 126.898 140.471 129.35 142.633 131.736C143.214 132.375 144.539 131.751 143.953 131.102C140.123 126.883 136.623 122.462 133.483 117.865C130.319 113.228 127.637 108.415 125.108 103.521C123.655 100.712 122.17 97.9073 120.368 95.2339C119.892 94.5239 118.572 95.1583 119.049 95.8682Z" fill="white"/>
<path d="M118.242 94.6448C119.965 96.9859 120.557 99.6946 121.284 102.328C122.048 105.097 123.288 107.614 124.778 110.167C126.262 112.699 127.472 115.262 128.345 117.986C129.194 120.634 129.83 123.323 130.599 125.991C131.467 129.012 132.536 131.993 134.209 134.782C134.643 135.507 135.963 134.873 135.529 134.148C132.53 129.143 131.65 123.539 129.989 118.182C129.158 115.514 128.07 112.946 126.635 110.459C125.157 107.891 123.734 105.399 122.933 102.625C122.084 99.6846 121.498 96.6385 119.561 94.0154C119.054 93.3156 117.729 93.9499 118.242 94.6448Z" fill="white"/>
<path d="M140.432 128.227C141.061 128.222 141.648 128.021 142.094 127.653C141.452 127.588 140.817 127.517 140.176 127.452C141.251 128.741 142.259 130.07 143.181 131.439C143.493 131.898 144.305 132.089 144.855 131.802C145.423 131.5 145.624 130.916 145.295 130.422C144.366 129.053 143.364 127.724 142.289 126.435C141.849 125.906 140.958 125.745 140.371 126.233C140.237 126.344 140.426 126.188 140.451 126.198C140.451 126.198 140.176 126.314 140.402 126.233C140.579 126.173 140.408 126.218 140.371 126.233C140.249 126.274 140.677 126.218 140.438 126.218C139.797 126.223 139.186 126.677 139.217 127.225C139.241 127.759 139.748 128.232 140.432 128.227Z" fill="white"/>
<path d="M133.054 130.599C133.677 130.719 134.3 130.659 134.849 130.387C134.251 130.186 133.652 129.984 133.054 129.783C133.713 131.253 134.287 132.743 134.776 134.259C134.941 134.767 135.656 135.13 136.279 134.964C136.914 134.793 137.311 134.269 137.134 133.725C136.645 132.21 136.071 130.719 135.411 129.249C135.143 128.65 134.342 128.298 133.616 128.645C133.499 128.7 133.512 128.695 133.664 128.64C133.554 128.66 133.548 128.665 133.652 128.655C133.756 128.645 133.75 128.645 133.64 128.65C133.817 128.68 133.835 128.68 133.701 128.655C133.078 128.534 132.351 128.811 132.198 129.36C132.058 129.874 132.388 130.473 133.054 130.599Z" fill="white"/>
<path d="M127.405 136.721C130.404 136.782 133.415 136.908 136.414 136.878C139.12 136.852 141.735 136.47 143.885 135.045C144.526 134.617 144.423 133.711 143.885 133.263C143.25 132.739 142.37 132.835 141.723 133.263C140.073 134.355 137.697 134.375 135.694 134.36C132.933 134.34 130.166 134.259 127.405 134.204C125.438 134.164 125.438 136.681 127.405 136.721Z" fill="white"/>
<path d="M109.451 85.4113C110.025 85.1545 110.617 84.9229 111.216 84.7114C111.118 84.7467 111.021 84.7769 110.923 84.8121C111.528 84.6007 112.138 84.4144 112.762 84.2533C113.372 84.0921 113.824 83.5484 113.617 83.0147C113.421 82.5112 112.768 82.1386 112.114 82.3098C110.77 82.6623 109.463 83.1204 108.217 83.6692C107.655 83.921 107.429 84.6007 107.777 85.0488C108.144 85.522 108.846 85.6781 109.451 85.4113Z" fill="white"/>
<path d="M110.727 88.8708C111.075 88.8406 111.423 88.8003 111.765 88.7248C112.101 88.6493 112.425 88.5436 112.742 88.4278C113.298 88.2264 113.793 87.9394 114.251 87.6121C114.477 87.451 114.611 87.1389 114.611 86.9022C114.611 86.6555 114.477 86.3585 114.251 86.1923C114.019 86.0161 113.714 85.8852 113.39 85.8953C113.054 85.9053 112.779 86.006 112.529 86.1923C112.449 86.2477 112.37 86.3031 112.29 86.3534C112.37 86.3031 112.455 86.2477 112.535 86.1973C112.205 86.4038 111.85 86.575 111.472 86.7109C111.569 86.6757 111.667 86.6454 111.765 86.6102C111.374 86.7461 110.959 86.8418 110.537 86.8921C110.647 86.8821 110.751 86.867 110.861 86.8569C110.818 86.8619 110.775 86.867 110.733 86.872C110.562 86.867 110.409 86.8972 110.262 86.9576C110.11 86.9979 109.981 87.0684 109.871 87.164C109.651 87.3251 109.493 87.6121 109.505 87.8639C109.517 88.1257 109.621 88.3925 109.865 88.5738C110.085 88.7449 110.415 88.901 110.727 88.8708Z" fill="white"/>
<path d="M113.634 91.9865C113.757 91.9059 113.885 91.8203 114.007 91.7398C113.928 91.7901 113.842 91.8455 113.763 91.8959C114.563 91.3873 115.412 90.9342 116.304 90.5365C116.866 90.2847 117.092 89.605 116.744 89.1569C116.377 88.6887 115.675 88.5276 115.07 88.7944C113.946 89.2979 112.901 89.892 111.906 90.5566C111.68 90.7076 111.545 91.0349 111.545 91.2665C111.545 91.5132 111.68 91.8103 111.906 91.9764C112.138 92.1526 112.443 92.2835 112.767 92.2735C112.877 92.2634 112.981 92.2483 113.091 92.2382C113.298 92.1979 113.482 92.1123 113.634 91.9865Z" fill="white"/>
<path d="M108.78 84.5559C108.676 84.3394 108.572 84.1279 108.468 83.9114C108.431 83.7805 108.358 83.6647 108.248 83.569C108.163 83.4583 108.047 83.3727 107.906 83.3072C107.766 83.2317 107.613 83.1914 107.454 83.1864C107.289 83.1562 107.13 83.1612 106.965 83.2065C106.868 83.2418 106.77 83.272 106.672 83.3072C106.489 83.3979 106.342 83.5187 106.232 83.6697C106.19 83.7503 106.153 83.8309 106.11 83.9114C106.049 84.0876 106.049 84.2689 106.11 84.4451C106.214 84.6616 106.318 84.8731 106.422 85.0895C106.458 85.2205 106.532 85.3363 106.642 85.4319C106.727 85.5427 106.843 85.6283 106.984 85.6937C107.124 85.7692 107.277 85.8095 107.436 85.8146C107.601 85.8448 107.76 85.8397 107.924 85.7944C108.022 85.7592 108.12 85.729 108.218 85.6937C108.401 85.6031 108.548 85.4823 108.657 85.3312C108.7 85.2507 108.737 85.1701 108.78 85.0895C108.835 84.9133 108.835 84.7321 108.78 84.5559Z" fill="white"/>
<path d="M110.948 88.8145C111.009 88.5326 111.058 88.2456 111.027 87.9586C111.003 87.6767 110.948 87.3846 110.838 87.1128C110.801 86.9819 110.728 86.8661 110.618 86.7704C110.532 86.6596 110.416 86.574 110.276 86.5086C110.135 86.4331 109.983 86.3928 109.824 86.3878C109.659 86.3575 109.5 86.3626 109.335 86.4079C109.042 86.4885 108.755 86.6395 108.602 86.8711C108.455 87.1027 108.37 87.3897 108.48 87.6465C108.541 87.7975 108.59 87.9485 108.614 88.1046C108.602 88.014 108.584 87.9284 108.571 87.8378C108.602 88.0392 108.602 88.2355 108.571 88.4369C108.584 88.3463 108.602 88.2607 108.614 88.1701C108.608 88.2053 108.602 88.2406 108.596 88.2758C108.547 88.4117 108.535 88.5426 108.571 88.6786C108.578 88.8145 108.626 88.9354 108.718 89.0512C108.797 89.167 108.901 89.2626 109.036 89.3331C109.152 89.4237 109.292 89.4841 109.451 89.5144C109.763 89.5748 110.117 89.5597 110.392 89.4137C110.471 89.3633 110.557 89.3079 110.636 89.2576C110.783 89.1367 110.893 88.9857 110.948 88.8145Z" fill="white"/>
<path d="M111.051 90.7126C111.002 90.8435 110.99 90.9845 110.972 91.1204C110.966 91.1708 110.966 91.2262 110.972 91.2765C110.984 91.4125 111.002 91.5534 111.045 91.6843C111.082 91.8152 111.161 91.9461 111.222 92.0619C111.314 92.2331 111.461 92.3842 111.613 92.5201C111.723 92.6158 111.858 92.6913 111.98 92.7718C112.035 92.8071 112.09 92.8323 112.151 92.8574C112.291 92.933 112.444 92.9732 112.603 92.9783C112.768 93.0085 112.927 93.0034 113.092 92.9581C113.25 92.9279 113.391 92.8675 113.507 92.7769C113.641 92.7064 113.745 92.6107 113.825 92.4949C113.867 92.4144 113.904 92.3338 113.947 92.2533C114.008 92.077 114.008 91.8958 113.947 91.7196C113.904 91.639 113.867 91.5585 113.825 91.4779C113.715 91.3269 113.568 91.206 113.385 91.1154C113.324 91.0902 113.269 91.06 113.214 91.0298C113.293 91.0802 113.379 91.1355 113.458 91.1859C113.391 91.1406 113.336 91.0953 113.281 91.0399C113.342 91.1053 113.409 91.1758 113.47 91.2413C113.415 91.1809 113.366 91.1104 113.324 91.0399C113.366 91.1204 113.403 91.201 113.446 91.2815C113.409 91.206 113.379 91.1255 113.366 91.0449C113.379 91.1355 113.397 91.2211 113.409 91.3118C113.397 91.2413 113.397 91.1657 113.409 91.0953C113.397 91.1859 113.379 91.2715 113.366 91.3621C113.373 91.3218 113.385 91.2815 113.397 91.2413C113.446 91.1053 113.458 90.9744 113.421 90.8385C113.415 90.7025 113.366 90.5817 113.275 90.4659C113.195 90.3501 113.092 90.2545 112.957 90.184C112.841 90.0933 112.701 90.0329 112.542 90.0027C112.432 89.9926 112.328 89.9775 112.218 89.9675C111.998 89.9675 111.79 90.0128 111.601 90.1034C111.522 90.1538 111.436 90.2091 111.357 90.2595C111.21 90.3954 111.106 90.5414 111.051 90.7126Z" fill="white"/>
<path d="M180.992 86.36C179.768 86.36 178.692 86.18 177.764 85.82C176.844 85.46 176.068 85 175.436 84.44C174.804 83.872 174.312 83.28 173.96 82.664L176.72 80.744C176.912 81.144 177.184 81.54 177.536 81.932C177.888 82.324 178.356 82.648 178.94 82.904C179.524 83.16 180.256 83.288 181.136 83.288C181.968 83.288 182.636 83.168 183.14 82.928C183.652 82.688 184.02 82.38 184.244 82.004C184.476 81.628 184.592 81.232 184.592 80.816C184.592 80.264 184.428 79.84 184.1 79.544C183.78 79.248 183.364 79.044 182.852 78.932C182.34 78.812 181.8 78.744 181.232 78.728C180.68 78.712 180.28 78.7 180.032 78.692C179.792 78.684 179.628 78.68 179.54 78.68C179.46 78.68 179.384 78.68 179.312 78.68V75.608C179.416 75.608 179.568 75.608 179.768 75.608C179.976 75.608 180.184 75.608 180.392 75.608C180.608 75.6 180.784 75.592 180.92 75.584C181.76 75.544 182.46 75.36 183.02 75.032C183.588 74.704 183.872 74.192 183.872 73.496C183.872 72.856 183.62 72.348 183.116 71.972C182.62 71.596 181.952 71.408 181.112 71.408C180.32 71.408 179.612 71.58 178.988 71.924C178.372 72.26 177.92 72.632 177.632 73.04L175.4 70.64C176 70.016 176.804 69.48 177.812 69.032C178.82 68.584 179.952 68.36 181.208 68.36C181.968 68.36 182.712 68.46 183.44 68.66C184.168 68.852 184.824 69.152 185.408 69.56C185.992 69.96 186.456 70.476 186.8 71.108C187.152 71.74 187.328 72.496 187.328 73.376C187.328 74.12 187.196 74.824 186.932 75.488C186.668 76.144 186.288 76.696 185.792 77.144C186.512 77.464 187.068 77.928 187.46 78.536C187.852 79.144 188.048 79.904 188.048 80.816C188.048 81.96 187.728 82.948 187.088 83.78C186.456 84.604 185.604 85.24 184.532 85.688C183.468 86.136 182.288 86.36 180.992 86.36ZM189.728 88.88V82.952C190.248 82.952 190.688 82.824 191.048 82.568C191.416 82.304 191.716 81.936 191.948 81.464C192.18 80.984 192.364 80.424 192.5 79.784C192.636 79.144 192.736 78.448 192.8 77.696C192.88 76.736 192.952 75.792 193.016 74.864C193.08 73.928 193.144 72.96 193.208 71.96C193.272 70.952 193.344 69.864 193.424 68.696L204.896 68.72V82.952H206.216V88.88H202.952V86H192.992V88.88H189.728ZM194.6 82.952H201.632V71.768L196.4 71.744C196.344 72.536 196.296 73.264 196.256 73.928C196.224 74.592 196.184 75.264 196.136 75.944C196.088 76.624 196.024 77.384 195.944 78.224C195.864 79.064 195.784 79.756 195.704 80.3C195.624 80.836 195.5 81.304 195.332 81.704C195.172 82.104 194.928 82.52 194.6 82.952ZM208.852 86V68.72H216.148C216.316 68.72 216.54 68.728 216.82 68.744C217.108 68.752 217.364 68.776 217.588 68.816C218.62 68.976 219.464 69.316 220.12 69.836C220.784 70.356 221.272 71.012 221.584 71.804C221.896 72.588 222.052 73.464 222.052 74.432C222.052 75.4 221.892 76.28 221.572 77.072C221.26 77.856 220.772 78.508 220.108 79.028C219.452 79.548 218.612 79.888 217.588 80.048C217.364 80.08 217.108 80.104 216.82 80.12C216.532 80.136 216.308 80.144 216.148 80.144H212.116V86H208.852ZM212.116 77.096H216.004C216.172 77.096 216.356 77.088 216.556 77.072C216.756 77.056 216.94 77.024 217.108 76.976C217.548 76.856 217.888 76.656 218.128 76.376C218.368 76.088 218.532 75.772 218.62 75.428C218.716 75.076 218.764 74.744 218.764 74.432C218.764 74.12 218.716 73.792 218.62 73.448C218.532 73.096 218.368 72.78 218.128 72.5C217.888 72.212 217.548 72.008 217.108 71.888C216.94 71.84 216.756 71.808 216.556 71.792C216.356 71.776 216.172 71.768 216.004 71.768H212.116V77.096ZM226.525 86L228.925 81.152L223.021 68.72H226.717L230.629 77.72L234.685 68.72H238.165L230.005 86H226.525ZM237.928 86L244.048 77.24L238.384 68.72H242.248L247.144 76.448V68.72H250.408V76.448L255.304 68.72H259.168L253.504 77.24L259.624 86H255.616L250.408 78.368V86H247.144V78.368L241.936 86H237.928ZM261.539 86V68.72H272.819V71.768H264.803V75.464H271.379V78.512H264.803V82.952H272.819V86H261.539ZM275.696 86V68.72H278.96V75.824H286.688V68.72H289.952V86H286.688V78.872H278.96V86H275.696ZM307.457 86H304.145V74.48L296.633 86H293.321V68.72H296.633V80.24L304.145 68.72H307.457V86ZM310.805 86V68.72H322.085V71.768H314.069V75.464H320.645V78.512H314.069V82.952H322.085V86H310.805ZM336.078 86.36C334.854 86.36 333.778 86.18 332.85 85.82C331.93 85.46 331.154 85 330.522 84.44C329.89 83.872 329.398 83.28 329.046 82.664L331.806 80.744C331.998 81.144 332.27 81.54 332.622 81.932C332.974 82.324 333.442 82.648 334.026 82.904C334.61 83.16 335.342 83.288 336.222 83.288C337.054 83.288 337.722 83.168 338.226 82.928C338.738 82.688 339.106 82.38 339.33 82.004C339.562 81.628 339.678 81.232 339.678 80.816C339.678 80.264 339.514 79.84 339.186 79.544C338.866 79.248 338.45 79.044 337.938 78.932C337.426 78.812 336.886 78.744 336.318 78.728C335.766 78.712 335.366 78.7 335.118 78.692C334.878 78.684 334.714 78.68 334.626 78.68C334.546 78.68 334.47 78.68 334.398 78.68V75.608C334.502 75.608 334.654 75.608 334.854 75.608C335.062 75.608 335.27 75.608 335.478 75.608C335.694 75.6 335.87 75.592 336.006 75.584C336.846 75.544 337.546 75.36 338.106 75.032C338.674 74.704 338.958 74.192 338.958 73.496C338.958 72.856 338.706 72.348 338.202 71.972C337.706 71.596 337.038 71.408 336.198 71.408C335.406 71.408 334.698 71.58 334.074 71.924C333.458 72.26 333.006 72.632 332.718 73.04L330.486 70.64C331.086 70.016 331.89 69.48 332.898 69.032C333.906 68.584 335.038 68.36 336.294 68.36C337.054 68.36 337.798 68.46 338.526 68.66C339.254 68.852 339.91 69.152 340.494 69.56C341.078 69.96 341.542 70.476 341.886 71.108C342.238 71.74 342.414 72.496 342.414 73.376C342.414 74.12 342.282 74.824 342.018 75.488C341.754 76.144 341.374 76.696 340.878 77.144C341.598 77.464 342.154 77.928 342.546 78.536C342.938 79.144 343.134 79.904 343.134 80.816C343.134 81.96 342.814 82.948 342.174 83.78C341.542 84.604 340.69 85.24 339.618 85.688C338.554 86.136 337.374 86.36 336.078 86.36ZM344.574 86L349.854 68.72H354.726L360.006 86H356.646L351.942 70.76H352.566L347.934 86H344.574ZM347.742 82.4V79.352H356.862V82.4H347.742ZM365.761 86L371.041 68.72H375.913L381.193 86H377.833L373.129 70.76H373.753L369.121 86H365.761ZM368.929 82.4V79.352H378.049V82.4H368.929ZM388.539 86V83.48C387.651 83.632 386.807 83.6 386.007 83.384C385.215 83.16 384.511 82.768 383.895 82.208C383.279 81.64 382.795 80.912 382.443 80.024C382.091 79.128 381.915 78.08 381.915 76.88C381.915 75.68 382.091 74.628 382.443 73.724C382.795 72.82 383.279 72.08 383.895 71.504C384.511 70.92 385.215 70.512 386.007 70.28C386.807 70.048 387.651 70.008 388.539 70.16V68.72H391.779V70.16C392.667 70.008 393.511 70.048 394.311 70.28C395.111 70.512 395.819 70.92 396.435 71.504C397.051 72.08 397.535 72.82 397.887 73.724C398.247 74.628 398.427 75.68 398.427 76.88C398.427 78.08 398.247 79.128 397.887 80.024C397.535 80.912 397.051 81.64 396.435 82.208C395.819 82.768 395.111 83.16 394.311 83.384C393.511 83.6 392.667 83.632 391.779 83.48V86H388.539ZM388.539 80.504V73.088C387.859 72.976 387.299 73.02 386.859 73.22C386.427 73.42 386.091 73.716 385.851 74.108C385.619 74.492 385.455 74.932 385.359 75.428C385.271 75.916 385.227 76.4 385.227 76.88C385.227 77.36 385.271 77.836 385.359 78.308C385.455 78.78 385.619 79.204 385.851 79.58C386.091 79.948 386.427 80.22 386.859 80.396C387.299 80.572 387.859 80.608 388.539 80.504ZM391.779 80.504C392.459 80.608 393.015 80.572 393.447 80.396C393.879 80.212 394.215 79.94 394.455 79.58C394.703 79.212 394.875 78.8 394.971 78.344C395.067 77.88 395.115 77.424 395.115 76.976C395.115 76.528 395.067 76.056 394.971 75.56C394.875 75.064 394.703 74.612 394.455 74.204C394.215 73.788 393.879 73.472 393.447 73.256C393.015 73.032 392.459 72.976 391.779 73.088V80.504ZM414.964 86H411.652V74.48L404.14 86H400.828V68.72H404.14V80.24L411.652 68.72H414.964V86ZM418.313 86V68.72H425.609C425.777 68.72 426.001 68.728 426.281 68.744C426.569 68.752 426.825 68.776 427.049 68.816C428.081 68.976 428.925 69.316 429.581 69.836C430.245 70.356 430.733 71.012 431.045 71.804C431.357 72.588 431.513 73.464 431.513 74.432C431.513 75.4 431.353 76.28 431.033 77.072C430.721 77.856 430.233 78.508 429.569 79.028C428.913 79.548 428.073 79.888 427.049 80.048C426.825 80.08 426.569 80.104 426.281 80.12C425.993 80.136 425.769 80.144 425.609 80.144H421.577V86H418.313ZM421.577 77.096H425.465C425.633 77.096 425.817 77.088 426.017 77.072C426.217 77.056 426.401 77.024 426.569 76.976C427.009 76.856 427.349 76.656 427.589 76.376C427.829 76.088 427.993 75.772 428.081 75.428C428.177 75.076 428.225 74.744 428.225 74.432C428.225 74.12 428.177 73.792 428.081 73.448C427.993 73.096 427.829 72.78 427.589 72.5C427.349 72.212 427.009 72.008 426.569 71.888C426.401 71.84 426.217 71.808 426.017 71.792C425.817 71.776 425.633 71.768 425.465 71.768H421.577V77.096ZM433.922 86V68.72H436.85L442.562 80.192L448.274 68.72H451.202V86H448.154V75.68L443.138 86H441.986L436.97 75.68V86H433.922ZM453.371 86L458.651 68.72H463.523L468.803 86H465.443L460.739 70.76H461.363L456.731 86H453.371ZM456.539 82.4V79.352H465.659V82.4H456.539ZM484.033 88.88V86H470.953V68.72H474.217V83.12H482.089V69.2H485.353V83.12H487.297V88.88H484.033ZM503.347 86H500.035V74.48L492.523 86H489.211V68.72H492.523V80.24L500.035 68.72H503.347V86ZM510.32 86.36C508.944 86.36 507.808 86.008 506.912 85.304C506.024 84.6 505.392 83.648 505.016 82.448L508.232 81.68C508.304 82.12 508.536 82.504 508.928 82.832C509.32 83.152 509.736 83.312 510.176 83.312C510.48 83.312 510.804 83.228 511.148 83.06C511.5 82.892 511.752 82.624 511.904 82.256C512 82.024 512.056 81.74 512.072 81.404C512.088 81.068 512.096 80.68 512.096 80.24V68.72H515.408V80.24C515.408 80.792 515.404 81.272 515.396 81.68C515.396 82.088 515.356 82.472 515.276 82.832C515.204 83.184 515.056 83.552 514.832 83.936C514.344 84.784 513.708 85.4 512.924 85.784C512.14 86.168 511.272 86.36 510.32 86.36ZM517.8 86L523.08 68.72H527.952L533.232 86H529.872L525.168 70.76H525.792L521.16 86H517.8ZM520.968 82.4V79.352H530.088V82.4H520.968ZM540.188 86V68.72H543.452V75.824H551.18V68.72H554.444V86H551.18V78.872H543.452V86H540.188ZM556.613 86L561.893 68.72H566.765L572.045 86H568.685L563.981 70.76H564.605L559.973 86H556.613ZM559.781 82.4V79.352H568.901V82.4H559.781ZM174.68 119V101.72H177.608L183.32 113.192L189.032 101.72H191.96V119H188.912V108.68L183.896 119H182.744L177.728 108.68V119H174.68ZM197.392 119L199.792 114.152L193.888 101.72H197.584L201.496 110.72L205.552 101.72H209.032L200.872 119H197.392ZM216.055 119.36C214.831 119.36 213.755 119.18 212.827 118.82C211.907 118.46 211.131 118 210.499 117.44C209.867 116.872 209.375 116.28 209.023 115.664L211.783 113.744C211.975 114.144 212.247 114.54 212.599 114.932C212.951 115.324 213.419 115.648 214.003 115.904C214.587 116.16 215.319 116.288 216.199 116.288C217.031 116.288 217.699 116.168 218.203 115.928C218.715 115.688 219.083 115.38 219.307 115.004C219.539 114.628 219.655 114.232 219.655 113.816C219.655 113.264 219.491 112.84 219.163 112.544C218.843 112.248 218.427 112.044 217.915 111.932C217.403 111.812 216.863 111.744 216.295 111.728C215.743 111.712 215.343 111.7 215.095 111.692C214.855 111.684 214.691 111.68 214.603 111.68C214.523 111.68 214.447 111.68 214.375 111.68V108.608C214.479 108.608 214.631 108.608 214.831 108.608C215.039 108.608 215.247 108.608 215.455 108.608C215.671 108.6 215.847 108.592 215.983 108.584C216.823 108.544 217.523 108.36 218.083 108.032C218.651 107.704 218.935 107.192 218.935 106.496C218.935 105.856 218.683 105.348 218.179 104.972C217.683 104.596 217.015 104.408 216.175 104.408C215.383 104.408 214.675 104.58 214.051 104.924C213.435 105.26 212.983 105.632 212.695 106.04L210.463 103.64C211.063 103.016 211.867 102.48 212.875 102.032C213.883 101.584 215.015 101.36 216.271 101.36C217.031 101.36 217.775 101.46 218.503 101.66C219.231 101.852 219.887 102.152 220.471 102.56C221.055 102.96 221.519 103.476 221.863 104.108C222.215 104.74 222.391 105.496 222.391 106.376C222.391 107.12 222.259 107.824 221.995 108.488C221.731 109.144 221.351 109.696 220.855 110.144C221.575 110.464 222.131 110.928 222.523 111.536C222.915 112.144 223.111 112.904 223.111 113.816C223.111 114.96 222.791 115.948 222.151 116.78C221.519 117.604 220.667 118.24 219.595 118.688C218.531 119.136 217.351 119.36 216.055 119.36ZM239.886 119H236.574V107.48L229.062 119H225.75V101.72H229.062V113.24L236.574 101.72H239.886V119ZM253.051 119V111.464L253.507 112.208C253.067 112.6 252.439 112.904 251.623 113.12C250.815 113.328 249.971 113.432 249.091 113.432C247.651 113.432 246.503 113.148 245.647 112.58C244.791 112.004 244.175 111.212 243.799 110.204C243.423 109.188 243.235 108.016 243.235 106.688V101.72H246.547V105.704C246.547 106.224 246.567 106.756 246.607 107.3C246.647 107.844 246.763 108.348 246.955 108.812C247.155 109.276 247.483 109.652 247.939 109.94C248.395 110.22 249.035 110.36 249.859 110.36C250.747 110.36 251.499 110.208 252.115 109.904C252.731 109.592 253.163 109.264 253.411 108.92L253.051 110.384V101.72H256.339V119H253.051ZM259.688 119V101.72H262.952V109.688L269.528 101.72H273.512L266.288 110.24L273.968 119H269.84L262.952 111.128V119H259.688ZM274.449 119L279.729 101.72H284.601L289.881 119H286.521L281.817 103.76H282.441L277.809 119H274.449ZM277.617 115.4V112.352H286.737V115.4H277.617ZM294.61 119V104.768H289.162V101.72H303.322V104.768H297.874V119H294.61ZM303.582 119L308.862 101.72H313.734L319.014 119H315.654L310.95 103.76H311.574L306.942 119H303.582ZM306.75 115.4V112.352H315.87V115.4H306.75ZM328.033 119L330.433 114.152L324.529 101.72H328.225L332.137 110.72L336.193 101.72H339.673L331.513 119H328.033ZM341.344 119V101.72H344.272L349.984 113.192L355.696 101.72H358.624V119H355.576V108.68L350.56 119H349.408L344.392 108.68V119H341.344ZM361.993 119V101.72H373.273V104.768H365.257V108.464H371.833V111.512H365.257V115.952H373.273V119H361.993ZM380.157 119V104.768H374.709V101.72H388.869V104.768H383.421V119H380.157ZM390.797 119V101.72H394.061V108.824H401.789V101.72H405.053V119H401.789V111.872H394.061V119H390.797ZM415.838 119.36C414.11 119.36 412.618 118.984 411.362 118.232C410.114 117.48 409.15 116.428 408.47 115.076C407.798 113.724 407.462 112.152 407.462 110.36C407.462 108.568 407.798 106.996 408.47 105.644C409.15 104.292 410.114 103.24 411.362 102.488C412.618 101.736 414.11 101.36 415.838 101.36C417.566 101.36 419.054 101.736 420.302 102.488C421.558 103.24 422.522 104.292 423.194 105.644C423.874 106.996 424.214 108.568 424.214 110.36C424.214 112.152 423.874 113.724 423.194 115.076C422.522 116.428 421.558 117.48 420.302 118.232C419.054 118.984 417.566 119.36 415.838 119.36ZM415.838 116.288C416.934 116.304 417.846 116.068 418.574 115.58C419.302 115.092 419.846 114.4 420.206 113.504C420.574 112.608 420.758 111.56 420.758 110.36C420.758 109.16 420.574 108.12 420.206 107.24C419.846 106.36 419.302 105.676 418.574 105.188C417.846 104.7 416.934 104.448 415.838 104.432C414.742 104.416 413.83 104.652 413.102 105.14C412.374 105.628 411.826 106.32 411.458 107.216C411.098 108.112 410.918 109.16 410.918 110.36C410.918 111.56 411.098 112.6 411.458 113.48C411.826 114.36 412.374 115.044 413.102 115.532C413.83 116.02 414.742 116.272 415.838 116.288ZM434.026 119.36C432.298 119.36 430.806 118.984 429.55 118.232C428.302 117.48 427.338 116.428 426.658 115.076C425.986 113.724 425.65 112.152 425.65 110.36C425.65 108.568 425.986 106.996 426.658 105.644C427.338 104.292 428.302 103.24 429.55 102.488C430.806 101.736 432.298 101.36 434.026 101.36C436.01 101.36 437.674 101.852 439.018 102.836C440.37 103.82 441.322 105.152 441.874 106.832L438.586 107.744C438.266 106.696 437.726 105.884 436.966 105.308C436.206 104.724 435.226 104.432 434.026 104.432C432.93 104.432 432.014 104.676 431.278 105.164C430.55 105.652 430.002 106.34 429.634 107.228C429.266 108.116 429.082 109.16 429.082 110.36C429.082 111.56 429.266 112.604 429.634 113.492C430.002 114.38 430.55 115.068 431.278 115.556C432.014 116.044 432.93 116.288 434.026 116.288C435.226 116.288 436.206 115.996 436.966 115.412C437.726 114.828 438.266 114.016 438.586 112.976L441.874 113.888C441.322 115.568 440.37 116.9 439.018 117.884C437.674 118.868 436.01 119.36 434.026 119.36ZM448.524 119V104.768H443.076V101.72H457.236V104.768H451.788V119H448.524ZM173.48 152L179.264 134.72H182.24L188.024 152H185.804L180.392 135.968H181.064L175.7 152H173.48ZM176.264 147.956V145.952H185.24V147.956H176.264ZM190.172 152V134.72H192.308V142.832L199.868 134.72H202.556L194.708 143.108L203.168 152H200.408L192.308 143.552V152H190.172ZM203.644 152L209.428 134.72H212.404L218.188 152H215.968L210.556 135.968H211.228L205.864 152H203.644ZM206.428 147.956V145.952H215.404V147.956H206.428ZM220.34 154.88V149.972C220.972 149.972 221.484 149.812 221.876 149.492C222.276 149.172 222.588 148.74 222.812 148.196C223.036 147.644 223.204 147.024 223.316 146.336C223.436 145.648 223.532 144.936 223.604 144.2C223.708 143.16 223.792 142.152 223.856 141.176C223.928 140.2 223.992 139.188 224.048 138.14C224.104 137.092 224.168 135.948 224.24 134.708L235.1 134.72V149.972H236.36V154.88H234.224V152H222.476V154.88H220.34ZM224.084 149.972H232.964V136.748L226.22 136.736C226.172 137.664 226.124 138.556 226.076 139.412C226.036 140.26 225.984 141.116 225.92 141.98C225.856 142.844 225.776 143.76 225.68 144.728C225.592 145.624 225.492 146.4 225.38 147.056C225.276 147.704 225.124 148.264 224.924 148.736C224.724 149.2 224.444 149.612 224.084 149.972ZM238.993 152V134.72H249.913V136.748H241.129V142.16H248.473V144.188H241.129V149.972H249.913V152H238.993ZM252.797 152V134.72H254.741L261.269 148.484L267.761 134.72H269.729V151.988H267.701V139.412L261.833 152H260.693L254.825 139.412V152H252.797ZM280.198 152.36C278.478 152.36 277.018 151.98 275.818 151.22C274.618 150.46 273.702 149.404 273.07 148.052C272.446 146.7 272.134 145.136 272.134 143.36C272.134 141.584 272.446 140.02 273.07 138.668C273.702 137.316 274.618 136.26 275.818 135.5C277.018 134.74 278.478 134.36 280.198 134.36C282.198 134.36 283.842 134.868 285.13 135.884C286.426 136.9 287.318 138.268 287.806 139.988L285.634 140.564C285.282 139.276 284.654 138.26 283.75 137.516C282.846 136.772 281.662 136.4 280.198 136.4C278.91 136.4 277.838 136.692 276.982 137.276C276.126 137.86 275.482 138.676 275.05 139.724C274.618 140.764 274.398 141.976 274.39 143.36C274.382 144.736 274.594 145.948 275.026 146.996C275.458 148.036 276.106 148.852 276.97 149.444C277.834 150.028 278.91 150.32 280.198 150.32C281.662 150.32 282.846 149.948 283.75 149.204C284.654 148.452 285.282 147.436 285.634 146.156L287.806 146.732C287.318 148.444 286.426 149.812 285.13 150.836C283.842 151.852 282.198 152.36 280.198 152.36ZM290.438 152V134.72H292.574V142.832L300.134 134.72H302.822L294.974 143.108L303.434 152H300.674L292.574 143.552V152H290.438ZM318.442 152H316.282V138.488L307.27 152H305.11V134.72H307.27V148.22L316.282 134.72H318.442V152ZM326.602 152V134.72H328.546L335.074 148.484L341.566 134.72H343.534V151.988H341.506V139.412L335.638 152H334.498L328.63 139.412V152H326.602ZM349.599 152L351.663 147.716L345.579 134.72H347.967L352.779 145.436L357.699 134.72H359.979L351.915 152H349.599ZM366.732 152.36C365.548 152.36 364.516 152.188 363.636 151.844C362.764 151.492 362.04 151.036 361.464 150.476C360.896 149.908 360.464 149.3 360.168 148.652L362.064 147.476C362.256 147.98 362.552 148.448 362.952 148.88C363.36 149.312 363.88 149.66 364.512 149.924C365.152 150.188 365.92 150.32 366.816 150.32C367.728 150.32 368.492 150.18 369.108 149.9C369.724 149.612 370.184 149.224 370.488 148.736C370.8 148.24 370.956 147.672 370.956 147.032C370.956 146.304 370.776 145.744 370.416 145.352C370.056 144.952 369.572 144.672 368.964 144.512C368.364 144.344 367.7 144.248 366.972 144.224C366.404 144.2 365.996 144.184 365.748 144.176C365.5 144.168 365.332 144.164 365.244 144.164C365.164 144.164 365.088 144.164 365.016 144.164V142.124C365.088 142.124 365.24 142.124 365.472 142.124C365.704 142.124 365.948 142.124 366.204 142.124C366.46 142.116 366.664 142.108 366.816 142.1C367.888 142.044 368.74 141.772 369.372 141.284C370.004 140.788 370.32 140.108 370.32 139.244C370.32 138.348 369.996 137.648 369.348 137.144C368.708 136.64 367.872 136.388 366.84 136.388C365.864 136.388 365.032 136.616 364.344 137.072C363.664 137.528 363.12 138.116 362.712 138.836L361.068 137.432C361.628 136.544 362.404 135.812 363.396 135.236C364.396 134.652 365.564 134.36 366.9 134.36C367.636 134.36 368.344 134.46 369.024 134.66C369.712 134.852 370.32 135.148 370.848 135.548C371.384 135.94 371.808 136.44 372.12 137.048C372.432 137.648 372.588 138.36 372.588 139.184C372.588 140.072 372.4 140.86 372.024 141.548C371.648 142.236 371.156 142.768 370.548 143.144C371.388 143.424 372.044 143.888 372.516 144.536C372.988 145.184 373.224 146.024 373.224 147.056C373.224 148.136 372.948 149.072 372.396 149.864C371.852 150.656 371.092 151.272 370.116 151.712C369.14 152.144 368.012 152.36 366.732 152.36ZM389.082 152H386.922V138.488L377.91 152H375.75V134.72H377.91V148.22L386.922 134.72H389.082V152ZM402.686 152V144.032L403.166 144.788C402.646 145.18 401.982 145.496 401.174 145.736C400.374 145.968 399.486 146.084 398.51 146.084C397.03 146.084 395.846 145.804 394.958 145.244C394.07 144.684 393.426 143.916 393.026 142.94C392.634 141.956 392.438 140.828 392.438 139.556V134.72H394.598V138.848C394.598 139.576 394.658 140.256 394.778 140.888C394.906 141.512 395.126 142.06 395.438 142.532C395.75 143.004 396.182 143.372 396.734 143.636C397.286 143.892 397.986 144.02 398.834 144.02C399.858 144.02 400.734 143.86 401.462 143.54C402.198 143.22 402.73 142.876 403.058 142.508L402.686 143.936V134.72H404.834V152H402.686ZM406.988 152L412.772 134.72H415.748L421.532 152H419.312L413.9 135.968H414.572L409.208 152H406.988ZM409.772 147.956V145.952H418.748V147.956H409.772ZM423.68 152V134.72H430.508C430.676 134.72 430.876 134.728 431.108 134.744C431.34 134.752 431.564 134.776 431.78 134.816C432.716 134.96 433.5 135.28 434.132 135.776C434.772 136.272 435.252 136.9 435.572 137.66C435.892 138.412 436.052 139.248 436.052 140.168C436.052 141.08 435.888 141.916 435.56 142.676C435.24 143.428 434.76 144.056 434.12 144.56C433.488 145.056 432.708 145.376 431.78 145.52C431.564 145.552 431.34 145.576 431.108 145.592C430.876 145.608 430.676 145.616 430.508 145.616H425.816V152H423.68ZM425.816 143.588H430.436C430.588 143.588 430.76 143.58 430.952 143.564C431.152 143.548 431.34 143.52 431.516 143.48C432.068 143.352 432.516 143.12 432.86 142.784C433.212 142.44 433.468 142.04 433.628 141.584C433.788 141.12 433.868 140.648 433.868 140.168C433.868 139.688 433.788 139.22 433.628 138.764C433.468 138.3 433.212 137.896 432.86 137.552C432.516 137.208 432.068 136.976 431.516 136.856C431.34 136.808 431.152 136.78 430.952 136.772C430.76 136.756 430.588 136.748 430.436 136.748H425.816V143.588ZM451.778 152H449.618V138.488L440.606 152H438.446V134.72H440.606V148.22L449.618 134.72H451.778V152ZM459.698 145.316V143.552H466.898V145.316H459.698ZM481.925 152.36C480.205 152.36 478.745 151.98 477.545 151.22C476.345 150.46 475.429 149.404 474.797 148.052C474.173 146.7 473.861 145.136 473.861 143.36C473.861 141.584 474.173 140.02 474.797 138.668C475.429 137.316 476.345 136.26 477.545 135.5C478.745 134.74 480.205 134.36 481.925 134.36C483.925 134.36 485.569 134.868 486.857 135.884C488.153 136.9 489.045 138.268 489.533 139.988L487.361 140.564C487.009 139.276 486.381 138.26 485.477 137.516C484.573 136.772 483.389 136.4 481.925 136.4C480.637 136.4 479.565 136.692 478.709 137.276C477.853 137.86 477.209 138.676 476.777 139.724C476.345 140.764 476.125 141.976 476.117 143.36C476.109 144.736 476.321 145.948 476.753 146.996C477.185 148.036 477.833 148.852 478.697 149.444C479.561 150.028 480.637 150.32 481.925 150.32C483.389 150.32 484.573 149.948 485.477 149.204C486.381 148.452 487.009 147.436 487.361 146.156L489.533 146.732C489.045 148.444 488.153 149.812 486.857 150.836C485.569 151.852 483.925 152.36 481.925 152.36ZM492.164 152V134.72H494.3V142.832L501.86 134.72H504.548L496.7 143.108L505.16 152H502.4L494.3 143.552V152H492.164ZM513.097 152.36C511.377 152.36 509.917 151.98 508.717 151.22C507.517 150.46 506.601 149.404 505.969 148.052C505.345 146.7 505.033 145.136 505.033 143.36C505.033 141.584 505.345 140.02 505.969 138.668C506.601 137.316 507.517 136.26 508.717 135.5C509.917 134.74 511.377 134.36 513.097 134.36C514.825 134.36 516.289 134.74 517.489 135.5C518.689 136.26 519.601 137.316 520.225 138.668C520.849 140.02 521.161 141.584 521.161 143.36C521.161 145.136 520.849 146.7 520.225 148.052C519.601 149.404 518.689 150.46 517.489 151.22C516.289 151.98 514.825 152.36 513.097 152.36ZM513.097 150.32C514.385 150.328 515.457 150.04 516.312 149.456C517.177 148.864 517.821 148.044 518.245 146.996C518.677 145.948 518.893 144.736 518.893 143.36C518.893 141.976 518.677 140.764 518.245 139.724C517.821 138.684 517.177 137.872 516.312 137.288C515.457 136.704 514.385 136.408 513.097 136.4C511.809 136.392 510.737 136.68 509.881 137.264C509.033 137.848 508.393 138.664 507.961 139.712C507.529 140.76 507.309 141.976 507.301 143.36C507.293 144.736 507.505 145.944 507.937 146.984C508.369 148.024 509.013 148.84 509.869 149.432C510.733 150.016 511.809 150.312 513.097 150.32ZM523.571 152V134.72H537.059V152H534.923V136.748H525.707V152H523.571ZM543.542 152.348C542.334 152.348 541.31 152.02 540.47 151.364C539.63 150.708 539.054 149.828 538.742 148.724L540.866 148.22C540.994 148.804 541.302 149.3 541.79 149.708C542.286 150.116 542.854 150.32 543.494 150.32C543.91 150.32 544.334 150.22 544.766 150.02C545.198 149.812 545.53 149.476 545.762 149.012C545.922 148.692 546.014 148.34 546.038 147.956C546.062 147.564 546.074 147.104 546.074 146.576V134.72H548.234V146.576C548.234 147.072 548.23 147.516 548.222 147.908C548.222 148.3 548.182 148.676 548.102 149.036C548.03 149.388 547.886 149.748 547.67 150.116C547.238 150.876 546.658 151.44 545.93 151.808C545.21 152.168 544.414 152.348 543.542 152.348ZM551.836 152V134.72H562.756V136.748H553.972V142.16H561.316V144.188H553.972V149.972H562.756V152H551.836Z" fill="white"/>
</svg>
