<svg width="931" height="921" viewBox="0 0 931 921" fill="none" xmlns="http://www.w3.org/2000/svg">
<path d="M804 656.499C543.546 798.926 482.5 768.499 270.5 656.499C108.925 571.139 -68.9993 334.145 141 261C193.5 242.713 311 233 357.5 233C439 233 528.5 223 662 269.286C787.5 294.493 971.332 534.264 804 656.499Z" fill="white"/>
<g clip-path="url(#clip0_826_2744)">
<path fill-rule="evenodd" clip-rule="evenodd" d="M458.154 601.619C461.23 601.347 462.039 605.356 459.546 607.066C457.274 611.849 455.915 616.713 457.773 621.994C454.324 625.404 452.18 620.648 451.761 618.53C450.764 613.521 454.197 605.778 458.123 601.643L458.154 601.619Z" fill="#37586F"/>
<path fill-rule="evenodd" clip-rule="evenodd" d="M667.528 617.945C668.876 617.884 667.459 617.35 666.893 617.645C656.528 613.21 643.754 612.115 635.236 598.237C634.044 596.277 634.277 593.847 632.766 591.989C631.771 590.723 628.358 589.361 626.341 588.001C617.182 581.867 607.381 574.091 598.762 561.29C585.947 542.2 582.414 523.504 591.335 506.003C581.34 497.031 585.338 488.295 593.462 480.559C597.429 476.792 605.416 470.213 609.45 469.638C612.718 469.167 618.298 470.622 621.487 472.46C623.475 473.594 624.711 475.419 626.536 476.282C630.264 478.045 634.24 476.317 637.847 475.579C650.909 475.647 663.477 475.655 675.712 481.517C678.537 482.892 681.507 485.401 684.589 486.025C686.906 486.5 689.735 485.026 692.32 484.891C710.045 484.04 726.07 495.612 743.297 503.893C743.636 496.335 741.477 488.644 740.363 480.38C739.893 477.055 740.234 473.241 739.782 469.75C739.338 466.205 739.482 461.696 738.32 459.014C737.05 456.067 733.989 454.329 733.95 451.363C733.91 447.699 737.936 444.134 741.907 442.211C748.392 439.11 760.688 440.929 765.616 445.295C773.093 451.952 769.18 458.324 760.735 461.468C759.594 464.961 760.921 467.664 761.203 470.938C762.106 480.266 760.185 490.566 760.408 500.678C760.609 508.161 761.166 515.463 761.189 523.037C761.176 525.493 761.708 528.072 761.678 530.443C761.69 532.93 761.034 535.393 761.04 537.936C761.027 540.393 761.62 542.923 761.529 545.342C761.374 550.408 761.43 555.108 760.72 559.911C759.674 567.076 757.679 574.238 756.08 581.588C754.049 590.925 751.099 598.837 745.506 608.778C739.205 619.974 732.06 629.336 717.574 639.377C702.693 649.678 684.495 653.348 668.79 656.006C660.867 657.341 652.777 658.907 644.911 659.997C632.324 661.802 621.377 658.973 609.202 657.308C600.82 656.157 592.532 653.983 584.302 650.616C574.386 646.625 563.363 643.256 553.164 638.589C535.623 630.606 515.712 622.588 496.507 624.852C492.283 625.376 486.915 626.6 483.717 628.365C479.892 630.473 477.144 634.332 474.066 632.257C470.274 636.436 464.913 631.962 462.571 626.511C460.91 622.623 461.256 615.011 462.138 610.871C463.809 602.915 468.006 592.974 471.748 584.039C475.277 575.721 477.224 566.151 482.735 557.374C487.346 550.052 493.5 542.917 499.764 535.795C505.936 528.746 512.093 521.108 519.246 514.736C529.056 505.975 537.063 501.577 546.178 500.554C549.151 500.214 552.984 499.448 555.292 501.179C558.848 503.927 558.845 510.771 559.875 514.806C561.136 519.707 561.874 525.02 563.246 528.985C564.732 533.411 567.731 538.494 570.693 543.656C573.63 548.787 575.97 554.489 578.58 558.38C583.94 566.402 592.134 572.894 599.696 579.533C613.86 591.97 628.616 603.891 642.95 611.599C650.458 615.634 658.52 616.188 666.997 617.714C667.198 617.905 667.437 617.767 667.632 618.014L667.528 617.945ZM502.873 541.841C496.464 549.476 490.355 557.176 486.345 565.072C482.397 572.921 480.22 581.374 476.615 589.152C474.959 592.752 473.517 597.131 472.218 601.248C469.458 609.911 465.651 617.748 470.174 626.228C473.839 628.29 476.278 624.925 480.706 622.442C487.194 618.839 497.375 617.777 504.418 617.733C509.392 617.719 515.468 619.234 520.636 620.165C534.287 622.567 544.961 628.408 557.808 633.59C564.872 636.426 571.958 638.846 579.135 641.444C586.556 644.099 593.092 647.151 600.514 648.857C607.557 650.461 614.756 651.693 622.273 653.075C636.046 655.631 652.454 652.219 667.901 649.613C683.888 646.933 702.143 642.32 715.333 632.849C733.498 619.816 741.955 604.578 747.245 590.131C749.271 584.593 749.812 578.624 751.408 572.476C754.55 560.367 756.165 552.405 754.316 540.226C754.54 536.453 755.177 532.508 754.998 528.603C754.808 524.557 755.162 520.633 755.045 516.68C754.902 511.299 753.882 506.008 753.759 500.462C753.499 487.832 755.867 475.183 753.652 462.792C750.874 462.429 748.142 461.68 745.307 461.561C746.382 472.502 747.695 483.555 749.173 494.629C749.904 499.997 749.329 505.542 749.772 510.987C750.224 516.825 751.072 522.151 751.006 527.646C750.814 549.022 748.24 571.87 732.472 591.058C734.194 594.199 732.675 596.642 731.84 600.145C731.005 603.648 729.276 608.803 726.43 605.247C724.611 602.932 728.516 598.263 726.958 597.042C725.495 598.541 724.167 600.085 722.294 601.507C722.569 604.837 719.788 620.257 715.535 615.861C713.001 613.208 717.968 608.304 716.167 606.774L711.607 610.358C710.085 613.303 710.997 623.023 708.07 624.626C706.908 625.24 705.566 624.547 704.959 623.775C702.61 620.978 706.885 617.666 705.373 614.411C704.132 615.686 703.066 615.725 701.883 616.755C701.567 619.65 699.906 628.697 698.315 629.399C692.999 631.83 695.228 621.288 696.523 619.321C694.753 620.113 693.011 620.434 691.215 621.446C690.125 623.103 689.088 637.951 684.53 633.294C681.764 630.474 685.929 626.451 685.714 623.324C684.6 624 683.262 623.504 682.387 624.292C680.919 625.595 678.926 641.446 674.272 636.414C671.205 633.083 678.276 628.573 676.577 624.764C675.252 625.107 673.968 624.868 672.644 624.96C671.708 627.194 672.177 637.363 669.63 638.815C664.98 641.523 666.247 633.435 666.637 631.331C667.098 628.621 668.032 626.638 668.159 624.391C667.393 624.494 666.622 624.401 665.901 624.118C665.534 624.856 665.492 626.388 664.73 628.335C664.137 629.8 662.968 631.419 662.571 632.879C662.053 634.884 661.521 640.547 658.153 637.151C655.181 634.194 659.82 627.351 662.051 623.849C659.867 622.72 657.609 622.447 655.33 622.591C654.881 625.191 652.349 628.88 651.395 632.676C650.891 634.571 650.175 641.775 646.703 637.613C643.96 634.377 649.938 624.483 650.897 621.581C649.956 620.574 648.818 621.219 647.839 620.29C644.549 624.475 644.698 629.102 641.243 633.267C633.957 633.002 641.63 622.474 643.157 619.027C641.675 617.396 639.951 617.802 638.469 616.171C637.439 618.728 636.18 621.565 634.615 625.343C633.392 628.352 632.292 633.611 629.633 634.603C625.278 636.229 627.075 630.272 627.828 628.631C630.306 623.287 632.419 618.43 634.169 613.808C632.21 612.901 630.426 610.758 628.351 610.592C625.806 615.788 624.223 623.475 621.166 628.525C620.509 629.591 617.18 634.106 615.171 630.791C614.234 629.281 616.168 627.81 617.113 625.969C619.611 621.158 621.565 612.231 625.015 607.87C624.001 606.77 622.87 606.41 621.867 605.451C615.258 613.593 614.016 622.411 608.068 630.632C601.333 630.434 607.51 622.631 609.274 618.598C611.936 612.41 613.947 607.233 618.036 602.67C616.6 601.352 615.114 600.223 613.594 599.62C611.442 604.808 607.949 608.353 604.996 614.171C603.945 616.195 602.71 620.013 601.471 622.685C600.799 624.112 598.076 631.047 595.156 627.649C593.705 625.994 596.183 622.996 597.365 620.569C601.109 613.031 603.812 603.915 610.647 597.393C608.763 595.378 606.725 594.433 604.798 592.552C598.082 601.128 593.951 611.217 589.603 620.079C588.795 621.714 586.985 627.781 583.975 624.903C581.744 622.762 585.327 618.697 586.372 616.477C590.133 608.326 593.54 599.156 599.401 591.901C600.523 590.919 600.415 590.655 601.68 590.109C597.112 586.01 592.587 581.776 587.993 577.898C580 586.878 573.141 599.012 568.372 607.656C567.522 609.173 564.169 616.004 561.287 613.226C559.104 611.147 563.731 605.811 564.975 603.335C570.27 593.079 577.195 583.69 584.46 574.482C582.725 573.099 581.071 570.805 579.298 569.501C566.654 582.139 563.347 595.875 555.108 609.044C548.663 610.166 553.691 601.219 555.245 598.25C561.358 586.752 567.096 574.65 576.095 565.427L573.111 561.631C563.078 572.265 554.564 583.753 548.685 595.167C547.926 596.612 543.669 607.301 540.419 602.914C538.831 600.767 544.119 593.862 545.506 591.124C551.495 579.024 560.926 567.815 570.647 556.976C569.716 555.411 569.17 553.892 568.239 552.327C558.038 562.494 548.553 575.345 541.862 586.997C541.155 588.252 539.197 590.391 537.971 592.953C536.721 595.484 534.407 601.797 531.656 597.917C530.172 595.839 534.991 588.654 536.795 585.687C544.466 573.064 554.558 558.638 566.055 547.901C564.121 545.377 563.232 542.979 561.439 540.444C561.341 541.969 558.887 543.349 556.747 545.381C544.293 557.12 536.661 576.704 529.134 590.461C528.532 591.534 525.756 596.563 523.528 593.221C522.22 591.303 527.485 583.418 529.243 580.138C535.916 567.451 543.013 551.434 554.039 541.367C555.014 540.451 556.869 538.943 557.582 538.582C558.412 538.179 559.769 538.511 559.975 537.949C559.168 535.337 557.645 532.639 557.034 530.023C541.012 544.767 533.861 561.476 523.726 576.735C520.356 581.832 517.953 587.715 513.587 592.496C508.348 591.222 512.216 587.582 513.868 584.485C518.485 575.711 524.504 566.185 530.797 555.994C537.921 544.45 545.749 533.802 555.448 524.329C554.984 522.596 554.935 520.886 554.25 519.128C540.783 530.465 532.654 541.999 524.458 553.637C521.498 557.861 518.466 561.993 515.604 566.34C512.81 570.585 511.25 575.956 506.944 579.291C501.928 578.49 504.691 575.919 506.514 573.038C508.943 569.28 510.684 564.965 513.716 560.833C524.998 545.321 535.168 527.887 553.05 513.48C552.547 511.128 552.099 508.783 551.596 506.432C532.736 506.028 515.547 526.833 503.119 541.647L502.873 541.841ZM630.876 582.737C628.837 573.803 629.22 564.463 630.684 555.421C631.218 552.105 632.449 548.79 631.757 546.388C631.22 544.563 629.857 543.337 629.047 541.926C620.829 527.162 624.912 513.715 631.869 500.754L629.589 502.546C621.276 502.94 613.06 502.507 605.379 497.809C601.251 501.054 600.895 505.23 597.317 507.843C600.482 510.348 605.649 512.228 609.797 512.813C614.318 502.966 625.553 512.312 620.162 518.198C617.982 520.561 615.835 520.302 613.397 521.069C607.253 518.009 600.69 518.474 594.688 514.454C593.37 518.736 592.932 523.125 593.132 527.563C597.866 526.738 602.289 532.3 607.563 529.752C608.927 529.078 609.822 527.426 610.418 527.107C612.786 525.745 616.121 526.119 617.715 527.513C624.974 533.892 614.908 544.801 609.54 536.387C604.213 537.03 599.051 536.044 593.957 534.255C595.162 538.452 595.291 542.546 598.203 546.948C603.17 549.335 608.389 550.077 613.413 552.219L616.186 550.04C621.777 549.29 626.612 557.025 622.299 560.415C620.882 561.529 617.554 561.798 615.997 561.275C614.976 560.928 614.592 559.932 613.677 559.403C610.33 557.49 606.188 556.851 603.291 556.082C612.124 568.015 621.153 578.295 630.839 582.817L630.876 582.737ZM654.259 606.203C658.903 608.496 664.51 610.43 669.029 611.422C675.858 612.944 682.897 611.056 689.867 611.869C691.171 611.943 690.782 614.745 691.909 613.959C697.857 612.079 705.389 607.457 711.029 601.824C698.951 605.926 686.973 603.307 675.439 601.887C663.655 600.465 652.077 597.532 640.544 594.464C644.389 600.18 649.402 603.829 654.314 606.21L654.259 606.203ZM636.698 578.16C636.899 580 637.378 586.315 638.429 586.638C642.632 587.927 648.103 589.37 652.644 590.644C645.496 580.982 650.849 572.828 649.618 563.908C645.355 562.415 641.425 558.114 637.396 554.639C635.761 561.118 635.825 570.456 636.667 578.184L636.698 578.16ZM656.094 584.635C658.048 588.642 662.984 592.702 666.551 593.244C671.439 593.946 680.965 585.457 685.064 580.337C689.027 575.424 691.105 568.746 692.884 562.703C697.288 547.954 701.61 532.022 701.753 517.177C701.776 514.163 702.689 509.999 699.333 508.393C698.269 512.175 697.616 516.734 696.618 521.614C694.779 530.75 690.814 539.91 685.85 548.557C683.243 553.103 680.263 558.443 676.943 561.702C669.922 568.62 662.4 568.691 656.071 567.424C657.229 572.257 653.524 579.464 656.094 584.635ZM609.786 476.216C606.717 477.13 601.826 481.625 598.718 484.518C593.161 489.686 589.627 494.511 594.164 499.584C601.074 493.602 608.884 482.867 618.685 478.658C616.459 478.111 613.408 475.116 609.786 476.216ZM722.227 590.074C723.297 589.532 724.225 589.951 725.308 589.3C743.324 569.293 743.772 547.166 744.417 525.035C743.14 525.44 742.132 523.586 741.023 522.81C730.067 520.287 719.312 516.307 708.622 511.776C708.475 517.485 708.383 523.201 707.734 528.905C713.421 529.229 718.903 531.51 724.401 533.431C729.879 528.924 737.94 532.076 741.015 538.397C745.453 547.593 724.053 548.586 723.042 538.994C717.594 537.833 712.087 537.169 706.898 534.057C705.557 539.007 704.074 543.968 703.968 549.095C708.483 549.64 713.475 554.405 718.429 552.908C719.387 552.604 720.334 551.21 721.673 550.757C725.909 549.425 737.715 553.727 735.022 559.939C732.71 565.302 724.721 564.841 721.379 562.874C720.202 562.201 719.461 560.687 718.259 559.983C716.199 558.757 712.754 559.067 710.439 558.341C706.828 557.235 704.271 555.948 701.623 555.433C700.637 559.505 699.369 563.598 698.107 567.636C703.15 568.915 708.318 569.147 713.256 571.308C718.151 563.015 732.929 573.57 728.558 579.803C726.441 582.816 722.088 584.19 720.231 584.301C717.787 584.425 714.867 582.676 713.067 580.895C711.943 579.781 711.277 577.857 709.889 576.852C706.551 574.382 699.515 576.717 696.585 572.928C693.91 580.874 687.27 588.341 678.293 595.499C692.479 597.63 706.67 599.957 722.289 590.025L722.227 590.074ZM663.8 498.573C661.718 498.462 657.433 497.386 655.791 498.277C653.011 499.814 649.813 506.523 648.447 509.795C644.83 518.381 644.238 524.54 641.498 533.735C640.443 537.211 638.052 543.236 639.141 545.826C641.469 551.387 648.109 554.507 650.429 557.077C652.434 537.373 661.187 518.456 671.263 499.698C669.297 498.846 666.8 498.712 663.8 498.573ZM646.79 498.812C638.502 499.934 636.508 506.845 634.222 511.989C630.758 519.756 629.461 529.265 633.853 536.5C638.412 523.976 639.423 510.996 646.815 498.842L646.79 498.812ZM685.229 503.45C683.499 502.962 679.755 500.862 678.095 501.667C674.395 503.428 672.284 512.029 670.43 515.883C663.367 530.675 656.917 546.183 657.181 559.959C659.328 561.867 663.722 561.559 666.954 560.915C674.864 555.696 676.932 550.275 680.42 544.187C687.848 531.255 691.872 518.303 692.14 505.457C690.126 504.544 687.899 504.247 685.253 503.481L685.229 503.45ZM652.909 491.504C655.224 488.236 660.466 485.013 663.044 483.537C653.584 481.585 639.976 482.345 629.13 483.132C621.439 483.684 614.865 487.305 610.496 493.286C614.055 494.833 617.79 494.893 621.375 496.219C623.75 485.863 633.394 494.262 632.861 499.924C638.409 492.716 646.74 491.71 652.902 491.559L652.909 491.504ZM676.611 492.996C673.259 490.887 666.88 487.212 662.734 492.02C667.46 491.5 671.879 493.57 676.611 492.996ZM689.175 497.501C687.768 495.711 686.273 494.888 684.761 493.979C684.031 494.254 683.199 494.908 682.922 495.825C685.026 496.218 687.001 497.462 689.151 497.47L689.175 497.501ZM706.726 504.228C719.111 508.824 731.412 514.135 744.002 516.772C743.652 515.249 743.847 513.848 743.387 512.312C737.174 507.009 730.632 504.711 723.397 500.96C713.977 496.08 705.437 491.558 696.507 491.737C700.197 494.529 705.304 499.503 706.726 504.228ZM743.382 454.485C749.899 456.053 756.511 457.997 762.918 452.261C757.546 446.696 751.45 446.994 745.345 447.598L741.063 450.964C741.476 451.489 742.924 454.346 743.413 454.461L743.382 454.485Z" fill="#37586F"/>
<path fill-rule="evenodd" clip-rule="evenodd" d="M483.581 646.45C482.802 646.663 482.135 645.689 481.487 644.801C481.759 644.387 481.787 643.915 481.65 643.424C486.207 637.744 491.721 637.404 497.841 636.438C501.029 635.929 507.005 634.527 508.689 637.747C511.261 642.667 503.832 640.318 501.706 640.341C498.797 640.381 491.823 641.718 489.191 643.188C486.799 644.52 486.737 646.216 483.532 646.389L483.581 646.45Z" fill="#37586F"/>
<path fill-rule="evenodd" clip-rule="evenodd" d="M482.668 617.204C479.836 615.186 483.206 611.737 485.41 613.4C487.408 614.926 485.733 619.389 482.668 617.204Z" fill="#37586F"/>
<path fill-rule="evenodd" clip-rule="evenodd" d="M512.455 551.937C515.604 555.054 512.063 557.588 510.634 559.511C506.933 564.568 505.567 569.487 502.611 574.857C501.115 577.582 499.118 580.051 497.762 582.764C495.319 587.582 493.535 592.73 491.668 597.394C490.994 599.072 490.365 601.315 490.362 602.516C490.388 603.944 491.813 605.82 490.977 606.976C487.624 611.46 485.227 603.656 485.427 601.501C485.966 595.784 489.939 589.614 492.64 583.096C493.955 580.014 495.595 577.027 497.375 574.03C500.558 568.631 502.119 563.009 505.995 557.415C507.618 555.04 509.517 551.75 512.393 551.985L512.455 551.937Z" fill="#37586F"/>
<path fill-rule="evenodd" clip-rule="evenodd" d="M464.07 573.196C463.638 572.836 463.789 573.217 463.682 572.702C461.213 561.509 474.26 545.009 484.567 532.062C492.315 522.325 499.515 512.02 508.485 502.57C511.677 499.212 515.391 496.392 519.03 493.032C519.943 492.164 527.466 482.904 529.614 488.806C530.545 491.32 525.908 492.968 524.645 493.961C514.726 501.759 506.251 512.218 498.356 522.02C489.113 533.532 480.769 543.588 473.19 556.138C471.664 558.636 470.004 562.039 469.142 565.064C468.324 567.954 468.665 577.074 464.046 573.165L464.07 573.196Z" fill="#37586F"/>
<path fill-rule="evenodd" clip-rule="evenodd" d="M505.71 608.977C516.33 603.973 525.406 610.572 535.723 613.298C538.107 613.92 548.592 614.767 544.683 618.988C542.855 620.975 536.531 618.256 534.716 617.785C525.266 615.276 517.138 610.58 507.588 612.445C505.903 612.521 505.163 610.057 505.679 609.001L505.71 608.977Z" fill="#37586F"/>
<path fill-rule="evenodd" clip-rule="evenodd" d="M469.292 532.984C469.254 530.717 471.552 529.709 472.857 528.134C476.274 524.049 478.656 519.28 482.203 515.043C486.628 509.766 491.495 505.241 497.545 499.686C499.679 497.709 503.287 492.725 505.677 494.941C508.845 497.893 499.884 503.74 497.479 505.88C493.7 509.251 489.272 514.08 485.403 518.67C481.566 523.235 479.065 528.297 476.303 531.567C474.418 533.798 473.23 534.633 471.356 534.658C470.576 534.871 469.91 533.897 469.261 533.008L469.292 532.984Z" fill="#37586F"/>
<path fill-rule="evenodd" clip-rule="evenodd" d="M556.154 624.703C554.666 623.825 554.217 622.43 555.427 621.179C559.65 616.66 561.214 627.716 556.154 624.703Z" fill="#37586F"/>
<path fill-rule="evenodd" clip-rule="evenodd" d="M650.301 647.07C648.384 650.275 643.739 650.581 640.456 650.715C637.368 650.846 633.469 650.515 630.654 650.231C624.528 649.603 617.287 648.255 611.153 646.285C604.426 644.133 598.3 641.158 592.136 638.264C585.393 635.075 577.106 631.952 570.973 629.033C569.838 628.477 567.755 626.969 569.146 625.125C571.139 622.46 578.562 627.211 578.538 627.18C582.244 628.661 584.909 630.212 587.661 631.494C601.144 637.674 616.072 643.666 630.531 645.383C633.781 645.775 637.759 646.144 640.774 645.921C644.407 645.661 647.324 642.269 650.27 647.095L650.301 647.07Z" fill="#37586F"/>
<path fill-rule="evenodd" clip-rule="evenodd" d="M477.661 505.08C479.17 502.246 485.16 497.437 486.489 502.235C485.878 505.262 477.904 511.032 477.661 505.08Z" fill="#37586F"/>
<path fill-rule="evenodd" clip-rule="evenodd" d="M576.398 620.274C569.628 622.25 573.686 614.415 575.49 610.75C578.309 604.888 580.965 599.454 585.127 593.335C587.09 590.444 590.404 582.994 593.333 586.085C595.545 588.391 591.017 592.65 589.531 594.817C583.661 603.327 580.57 611.949 576.392 620.329L576.398 620.274Z" fill="#37586F"/>
<path fill-rule="evenodd" clip-rule="evenodd" d="M517.528 545.9C514.751 543.889 518.321 540.632 520.27 542.097C522.371 543.691 520.537 548.079 517.528 545.9Z" fill="#37586F"/>
<path fill-rule="evenodd" clip-rule="evenodd" d="M624.423 674.007C619.426 669.995 627.55 669.551 630.44 669.676C636.88 670.007 643.791 671.315 650.209 671.364C665.752 671.479 677.699 669.178 693.694 660.548C699.573 657.375 706.09 653.999 710.184 651.28C712.972 649.438 719.499 643.157 721.726 645.102C725.284 648.297 716.381 652.95 713.192 655.107C705.726 660.128 697.672 664.213 690.111 667.91C672.414 676.529 653.09 677.438 635.743 675.345C634.036 675.139 632.234 674.558 630.569 674.469C628.487 674.357 626.214 675.396 624.43 673.952L624.423 674.007Z" fill="#37586F"/>
<path fill-rule="evenodd" clip-rule="evenodd" d="M525.695 533.337C527.282 530.791 530.065 526.406 533.489 525.562C534.128 526.058 534.756 526.413 535.337 527.405C535.219 530.045 528.132 539.861 525.695 533.337Z" fill="#37586F"/>
<path fill-rule="evenodd" clip-rule="evenodd" d="M666.933 686.93C660.425 681.759 674.199 681.019 677.151 680.146C687.169 677.164 696.344 671.399 707.552 665.684C709.07 664.89 711.62 662.236 713.383 664.796C715.552 667.935 707.032 671.237 703.938 673.07C690.816 680.789 678.284 685.898 666.958 686.961L666.933 686.93Z" fill="#37586F"/>
<path fill-rule="evenodd" clip-rule="evenodd" d="M571.262 528.276C567.043 523.353 573.358 520.037 575.852 526.316C576.76 528.549 576.034 531.366 576.258 532.539C576.664 534.767 578.044 537.727 578.759 540.411C579.515 543.212 580.223 545.951 581.506 548.09C583.847 551.892 591.222 558.229 589.414 560.749C586.71 564.473 580.349 555.241 577.717 551.068C576.216 548.653 575.091 545.192 574.221 541.931C572.739 536.304 570.889 533.064 571.262 528.276Z" fill="#37586F"/>
<path fill-rule="evenodd" clip-rule="evenodd" d="M664.753 647.194C662.979 646.142 663.312 644.981 663.451 644.523C664.528 641.329 670.641 643.714 667.75 646.885C666.849 647.894 666.027 647.991 664.722 647.218L664.753 647.194Z" fill="#37586F"/>
<path fill-rule="evenodd" clip-rule="evenodd" d="M569.03 518.146C567.665 517.171 567.293 515.366 569.267 514.263C573.806 511.794 573.355 521.238 569.03 518.146Z" fill="#37586F"/>
<path fill-rule="evenodd" clip-rule="evenodd" d="M676.766 642.694C681.095 639.64 686.393 638.771 691.777 636.236C701.002 631.93 710.24 626.815 720.598 617.673C722.842 615.709 724.247 613.755 725.764 614.86C730.338 618.206 714.67 629.026 710.207 632.035C703.558 636.513 685.077 646.797 678.318 645.619C677.468 645.488 676.741 643.613 676.822 642.7L676.766 642.694Z" fill="#37586F"/>
<path fill-rule="evenodd" clip-rule="evenodd" d="M580.023 493.073C572.632 492.042 584.415 477.484 587.759 474.256C590.467 471.678 593.836 469.179 595.482 471.081C597.473 473.361 593.987 475.203 591.507 477.502C586.241 482.342 584.303 488.31 580.023 493.073Z" fill="#37586F"/>
<path fill-rule="evenodd" clip-rule="evenodd" d="M652.009 524.723C651.152 530.291 648.619 535.628 647.322 541.142C648.782 544.838 643.739 546.856 642.344 542.609C641.44 539.874 644.047 536.026 645.478 531.505C647.121 526.368 646.675 521.425 649.6 520.074C652.409 518.765 654.444 522.559 652.009 524.723Z" fill="#37586F"/>
<path fill-rule="evenodd" clip-rule="evenodd" d="M673.177 516.271C679.086 515.671 675.42 521.849 673.728 525.277C670.562 531.711 668.664 535.7 668.053 542.024C667.894 543.597 667.748 553.999 663.45 549.737C661.876 548.178 662.996 542.503 663.094 540.978C663.889 532.163 668.511 524.284 673.153 516.24L673.177 516.271Z" fill="#37586F"/>
<path fill-rule="evenodd" clip-rule="evenodd" d="M653.988 505.938C656.805 501.975 661.294 507.685 656.779 509.487C654.935 509.488 653.552 507.729 653.988 505.938Z" fill="#37586F"/>
<path fill-rule="evenodd" clip-rule="evenodd" d="M636.967 463.936C640.201 457.398 650.436 458.94 656.472 460.088C659.86 460.72 663.647 461.987 667.157 462.774C670.966 463.625 675.217 464.277 677.79 465.901C680.338 467.493 685.702 472.415 681.285 475.039C678.686 475.284 677.883 472.17 676.289 470.776C673.941 468.677 669.472 468.445 666.097 467.702C658.417 466.049 650.734 463.25 642.881 464.23C641.556 465.272 640.137 466.637 638.978 466.05C637.972 466.292 637.193 464.857 636.936 463.96L636.967 463.936Z" fill="#37586F"/>
<path fill-rule="evenodd" clip-rule="evenodd" d="M762.405 597.94C756.39 598.024 760.834 588.587 761.51 584.311C762.244 579.539 762.344 575.165 762.82 571.395C763.827 562.912 766.359 555.228 768.333 546.136C771.239 532.715 773.504 519.048 773.277 504.494C773.249 502.619 773.37 495.482 776.968 496.698C779.277 497.48 778.308 500.939 778.279 503.058C778.162 509.693 777.886 516.252 776.904 522.168C775.555 530.47 774.873 539.746 773.209 547.646C771.323 556.47 768.665 564.502 767.696 572.905C766.701 581.278 766.366 589.981 762.429 597.971L762.405 597.94Z" fill="#37586F"/>
<path fill-rule="evenodd" clip-rule="evenodd" d="M652.305 456.372C647.663 449.834 660.205 451.459 663.166 451.928C664.616 452.187 678.263 455.091 673.786 459.16C671.875 460.913 663.839 456.842 661.943 456.586C658.37 456.099 655.92 456.976 652.335 456.348L652.305 456.372Z" fill="#37586F"/>
<path fill-rule="evenodd" clip-rule="evenodd" d="M778.678 543.696C776.37 542.664 777.474 535.953 777.603 533.454C777.765 530.68 777.728 520.172 782.145 524.141C783.611 525.435 782.982 530.025 782.806 533.858C782.701 536.388 782.84 545.568 778.653 543.666L778.678 543.696Z" fill="#37586F"/>
<path fill-rule="evenodd" clip-rule="evenodd" d="M725.61 449.63C724.321 449.894 722.563 449.179 722.191 447.374C723.938 444.651 725.27 440.259 728.189 437.314C730.664 434.82 735.711 430.652 736.771 434.663C737.402 437.113 734.104 438.308 731.697 440.699C728.785 443.588 728.244 447.909 725.585 449.599L725.61 449.63Z" fill="#37586F"/>
<path fill-rule="evenodd" clip-rule="evenodd" d="M774.21 455.719C774.21 455.719 773.732 455.745 773.575 455.419C771.283 450.728 774.107 451.404 773.825 447.431C773.661 444.813 772.256 441.124 769.643 438.434C768.421 437.197 763.089 435.297 765.775 432.436C770.473 427.444 778.194 443.098 778.612 446.165C778.97 449.03 778.338 458.116 774.265 455.725L774.21 455.719Z" fill="#37586F"/>
<path fill-rule="evenodd" clip-rule="evenodd" d="M774.199 432.754C777.372 426.265 784.5 438.439 783.033 441.391C780.16 444.648 777.782 440.925 777.849 438.475C776.376 436.537 774.406 434.539 774.144 432.748L774.199 432.754Z" fill="#37586F"/>
</g>
<g clip-path="url(#clip1_826_2744)">
<path fill-rule="evenodd" clip-rule="evenodd" d="M442.905 491.984C445.401 492.031 447.742 492.844 449.755 494.326C451.166 495.366 452.911 497.032 452.7 498.971C452.433 501.412 449.715 501.897 447.726 502.044C444.768 502.258 441.182 501.878 438.637 500.203C435.168 497.93 436.016 493.272 439.034 491.031C443.081 488.008 447.542 490.47 449.448 494.65C449.777 495.37 449.65 496.18 448.934 496.601C445.878 498.451 442.233 498.04 439.363 496.004C438.376 495.309 438.765 493.926 439.95 493.827C442.031 493.64 443.342 494.228 445.217 495.016C446.35 495.492 446.518 497.109 445.208 497.503C443.405 498.048 440.531 498.538 439.033 496.997C437.881 495.811 438.567 494.045 439.416 492.93C440.596 491.372 442.495 490.652 444.421 490.882C447.479 491.253 449.526 493.77 450.906 496.33C451.379 497.208 450.913 498.072 450.053 498.413C446.735 499.736 443.023 498.9 440.552 496.326C440.24 495.998 440.186 495.41 440.542 495.095C444.165 491.84 449.427 493.148 452.014 497.1C452.318 497.57 452.215 498.281 451.815 498.66C449.45 500.898 446.945 500.41 444.719 498.26C444.067 497.636 444.894 496.573 445.669 497.026C447.391 498.05 448.469 498.278 449.995 496.845C449.929 497.366 449.861 497.883 449.795 498.404C448.228 496.002 444.23 494.167 441.778 496.325C441.781 495.913 441.774 495.503 441.779 495.096C444.066 497.533 446.597 496.769 449.332 495.678C449.051 496.37 448.77 497.062 448.48 497.761C447.019 495.027 444.697 492.459 441.542 494.166C441.296 494.298 440.211 495.044 440.554 495.467C441.283 496.348 443.772 495.251 444.559 495.021C444.459 495.799 444.35 496.583 444.243 497.373C442.752 496.74 441.607 496.18 439.949 496.173C440.15 495.446 440.345 494.72 440.536 493.996C442.891 495.572 445.105 495.596 447.509 494.141C447.34 494.792 447.176 495.448 447.007 496.1C445.828 493.527 443.633 491.456 440.809 493.059C438.929 494.119 437.771 496.555 439.892 498.055C441.65 499.311 444.112 499.362 446.176 499.421C446.727 499.435 450.061 499.542 450.084 498.569C450.107 497.54 448.381 496.368 447.694 495.876C446.183 494.806 444.515 493.855 442.736 493.33C442.008 493.111 442.14 491.971 442.922 491.989L442.905 491.984Z" fill="#37586F"/>
<path fill-rule="evenodd" clip-rule="evenodd" d="M453.756 498.525C455.458 503.011 456.585 507.741 458.042 512.323C459.57 517.138 461.827 522.026 462.685 527.008C462.775 527.483 462.165 527.784 461.899 527.34C459.426 523.239 458.162 518.206 456.698 513.672C455.142 508.829 453.424 503.859 452.62 498.827C452.494 498.063 453.485 497.81 453.761 498.524L453.756 498.525Z" fill="#37586F"/>
</g>
<g clip-path="url(#clip2_826_2744)">
<path fill-rule="evenodd" clip-rule="evenodd" d="M366.183 518.73C366.835 523.056 364.819 526.795 361.529 529.64C358.535 532.225 352.634 532.843 351.291 527.99C350.116 523.77 354.727 521.252 357.917 519.751C360.129 518.708 366.607 515.683 368.611 518.418C368.867 518.771 368.767 519.393 368.443 519.663C367.003 520.885 363.934 520.973 362.141 521.599C359.988 522.374 356.284 523.835 355.338 526.147C355.06 526.825 355.844 527.309 356.356 527.615C357.193 528.113 358.921 526.451 359.403 526.014C360.674 524.863 361.67 523.546 362.602 522.119C363.287 521.07 364.539 519.989 364.707 518.719C364.807 517.98 366.069 517.995 366.179 518.722L366.183 518.73Z" fill="#37586F"/>
<path fill-rule="evenodd" clip-rule="evenodd" d="M406.152 529.718C404.094 530.79 400.845 530.015 398.651 529.668C394.573 529.014 390.554 527.913 386.595 526.729C379.529 524.611 372.386 521.855 365.924 518.32C364.654 517.618 365.782 515.719 367.059 516.398C373.171 519.721 379.802 522.123 386.406 524.257C389.93 525.404 393.467 526.46 397.09 527.288C399.892 527.935 403.369 527.753 406.016 528.761C406.42 528.913 406.583 529.489 406.146 529.716L406.152 529.718Z" fill="#37586F"/>
</g>
<g clip-path="url(#clip3_826_2744)">
<path fill-rule="evenodd" clip-rule="evenodd" d="M233.597 501.61C232.229 503.334 231.469 505.382 231.347 507.582C231.263 509.124 231.417 511.245 232.853 512.188C234.663 513.376 236.516 511.8 237.732 510.53C239.537 508.64 241.289 505.988 241.578 503.319C241.979 499.685 238.336 497.65 235.12 498.445C230.795 499.501 229.967 503.914 231.739 507.554C232.044 508.181 232.667 508.549 233.355 508.299C236.326 507.259 238.091 504.551 238.316 501.457C238.397 500.397 237.239 499.885 236.507 500.636C235.213 501.945 234.877 503.167 234.362 504.883C234.05 505.92 235.054 506.941 236.057 506.271C237.439 505.352 239.384 503.673 239.176 501.79C239.016 500.341 237.431 499.817 236.197 499.769C234.475 499.698 232.921 500.585 231.997 502.023C230.535 504.31 231.098 507.114 232.064 509.487C232.396 510.301 233.244 510.469 233.959 510.076C236.719 508.562 238.232 505.57 237.869 502.446C237.82 502.05 237.451 501.684 237.037 501.749C232.792 502.386 230.73 506.698 231.966 510.673C232.115 511.143 232.656 511.472 233.138 511.413C235.986 511.06 237.06 509.083 236.846 506.364C236.787 505.571 235.601 505.537 235.474 506.317C235.204 508.063 234.755 508.923 232.925 509.157C233.317 509.404 233.706 509.648 234.097 509.896C233.343 507.483 234.338 503.736 237.18 503.279C236.898 503.05 236.623 502.816 236.344 502.59C236.718 505.512 234.779 506.804 232.503 508.052C233.132 508.249 233.76 508.445 234.397 508.641C233.358 506.114 232.915 503.096 235.844 501.908C236.072 501.815 237.187 501.496 237.283 501.966C237.473 502.956 235.331 504.032 234.734 504.439C235.319 504.807 235.913 505.173 236.51 505.543C236.916 504.174 237.178 503.081 238.102 501.95C237.495 501.679 236.892 501.405 236.293 501.129C236.044 503.614 234.819 505.133 232.481 505.95C233.019 506.201 233.556 506.457 234.094 506.708C233.006 504.464 232.829 501.81 235.503 500.789C237.278 500.105 239.583 500.684 239.414 502.967C239.281 504.867 237.936 506.569 236.818 508.006C236.519 508.388 234.722 510.715 234.047 510.185C233.334 509.623 233.506 507.792 233.557 507.049C233.677 505.422 233.966 503.755 234.606 502.25C234.866 501.633 234.017 501.083 233.591 501.625L233.597 501.61Z" fill="#37586F"/>
<path fill-rule="evenodd" clip-rule="evenodd" d="M231.958 512.657C234.053 516.329 236.637 519.749 238.935 523.308C241.351 527.047 243.408 531.324 246.315 534.701C246.587 535.029 247.133 534.783 246.981 534.353C245.58 530.372 242.867 526.689 240.606 523.152C238.186 519.378 235.77 515.423 232.8 512.054C232.351 511.54 231.624 512.072 231.954 512.66L231.958 512.657Z" fill="#37586F"/>
</g>
<g clip-path="url(#clip4_826_2744)">
<path fill-rule="evenodd" clip-rule="evenodd" d="M316.962 114.028C316.181 115.458 310.414 121.004 309.08 117.604C307.946 114.71 315.155 113.096 317.731 113.645C317.483 113.227 317.235 112.803 316.99 112.387C315.547 114.552 312.761 115.949 310.297 117.364C309.334 117.918 310.233 118.932 311.276 118.554C313.239 117.838 314.884 116.728 315.751 115.166C316.061 114.61 315.613 114.099 314.855 114.062C311.911 113.906 309.963 115.712 309.398 117.779C309.272 118.247 309.762 118.883 310.471 118.788C313.098 118.433 314.784 116.932 314.626 114.818C314.585 114.278 313.836 113.776 313.123 114.004C311.899 114.393 311.89 114.981 312.136 115.866C312.213 116.133 312.684 116.32 313.013 116.216C313.229 116.149 313.408 116.094 313.583 115.968C313.721 115.89 313.833 115.79 313.916 115.672C314.127 115.35 313.993 115.376 313.511 115.751C313.117 115.463 312.713 115.179 312.318 114.891C312.218 116.166 311.681 116.776 310.111 117.189C310.56 117.51 311.009 117.832 311.458 118.159C311.662 116.68 312.909 115.491 314.926 115.568C314.624 115.198 314.328 114.83 314.029 114.457C313.317 115.831 311.976 116.717 310.293 117.364C310.618 117.761 310.947 118.161 311.272 118.555C314.006 116.909 317.416 115.74 318.977 113.206C319.289 112.705 318.977 112.074 318.243 111.948C313.949 111.207 306.052 114.188 307.593 118.251C308.426 120.443 311.351 120.214 313.345 119.184C315.425 118.11 317.547 116.164 317.786 114.176C317.823 113.845 317.125 113.735 316.962 114.031L316.962 114.028Z" fill="#37586F"/>
<path fill-rule="evenodd" clip-rule="evenodd" d="M318.322 113.545C316.456 106.208 317.159 98.5793 314.715 91.3261C314.502 90.6869 313.236 90.9999 313.455 91.6334C315.924 98.8666 314.684 106.566 317.726 113.686C317.858 113.993 318.401 113.842 318.319 113.542L318.322 113.545Z" fill="#37586F"/>
<path fill-rule="evenodd" clip-rule="evenodd" d="M314.046 92.5995C312.028 92.982 310.117 93.6881 308.171 94.2497C306.106 94.8478 304.033 95.4298 301.972 96.0333C299.956 96.619 297.944 97.2156 295.956 97.8526C294.407 98.3445 291.821 98.8897 290.801 99.9453C290.366 100.393 290.648 101.137 291.487 101.095C293.184 101.013 295.043 99.9215 296.582 99.3804C298.546 98.6891 300.546 98.0545 302.538 97.4228C304.59 96.7756 306.631 96.1287 308.648 95.4221C310.592 94.7479 312.663 94.1139 314.34 93.0824C314.647 92.8918 314.447 92.5242 314.043 92.5996L314.046 92.5995Z" fill="#37586F"/>
<path fill-rule="evenodd" clip-rule="evenodd" d="M293.673 119.422C295.214 116.068 294.509 111.874 294.194 108.406C294.015 106.518 293.723 104.643 293.473 102.763C293.321 101.627 293.643 99.5294 292.401 98.762C292.196 98.6391 291.948 98.6466 291.763 98.7813C290.626 99.6151 291.336 101.401 291.475 102.488C291.717 104.346 291.969 106.207 292.186 108.065C292.64 111.859 292.649 115.532 292.519 119.336C292.5 119.886 293.472 119.868 293.673 119.422Z" fill="#37586F"/>
<path fill-rule="evenodd" clip-rule="evenodd" d="M293.144 120.213C293.281 120.264 293.422 120.315 293.552 120.366C293.674 119.955 293.789 119.548 293.907 119.138C292.64 119.583 291.674 120.79 290.63 121.503C289.809 122.064 287.556 123.508 286.411 122.768C284.654 121.635 287.443 120.089 288.521 119.581C290.02 118.876 292.005 118.385 293.772 118.502C293.284 118.041 292.789 117.581 292.301 117.12C291.583 118.964 289.355 120.207 287.581 121.447C286.545 122.168 287.764 123.708 289.066 123.254C290.623 122.715 291.952 121.955 292.705 120.743C293.333 119.732 292.984 118.712 291.654 118.313C291.095 118.146 290.596 118.381 290.555 118.846C290.459 119.915 289.445 120.737 288.198 121.146C288.693 121.746 289.188 122.352 289.683 122.952C291.922 121.423 294.262 119.937 295.131 117.634C295.411 116.894 294.559 116.264 293.66 116.252C289.323 116.202 281.111 119.56 284.149 123.622C285.534 125.473 288.474 124.838 290.368 123.954C291.937 123.225 295.152 121.408 295.136 119.807C295.127 119.126 294.071 118.943 293.502 119.345C293.331 119.411 293.164 119.476 292.993 119.536C292.5 119.631 292.648 120.247 293.144 120.219L293.144 120.213Z" fill="#37586F"/>
</g>
<defs>
<clipPath id="clip0_826_2744">
<rect width="274.034" height="373.551" fill="white" transform="translate(574.704 776.369) rotate(-128.174)"/>
</clipPath>
<clipPath id="clip1_826_2744">
<rect width="17.7851" height="41.795" fill="white" transform="matrix(-0.966545 0.256498 0.256498 0.966545 452.19 487)"/>
</clipPath>
<clipPath id="clip2_826_2744">
<rect width="17.7851" height="54.2445" fill="white" transform="matrix(0.26147 -0.965212 -0.965212 -0.26147 402.357 544.35)"/>
</clipPath>
<clipPath id="clip3_826_2744">
<rect width="15.6743" height="36.8347" fill="white" transform="translate(225 505.128) rotate(-35.6171)"/>
</clipPath>
<clipPath id="clip4_826_2744">
<rect width="36.0239" height="33.003" fill="white" transform="matrix(-0.999543 0.0302205 -0.0496574 -0.998766 319.646 123.824)"/>
</clipPath>
</defs>
</svg>
